<svg width="24" height="24" viewBox="0 0 24 24" fill="none" xmlns="http://www.w3.org/2000/svg">
<g clip-path="url(#clip0_168_763)">
<path d="M21.0516 4.96399L13.4766 0.463989C12.5719 -0.0750732 11.4563 -0.0750732 10.5516 0.463989L2.97657 4.96399C2.07188 5.49836 1.51407 6.49211 1.51407 7.56555V16.5609C1.51407 17.6343 2.07188 18.6281 2.97657 19.1624L10.5516 23.6577C11.0016 23.9249 11.5078 24.0609 12.0141 24.0609C12.5203 24.0609 13.0219 23.9249 13.4766 23.6577L21.0516 19.1624C21.9563 18.6234 22.5141 17.6343 22.5141 16.5609V7.56555C22.5141 6.49211 21.9563 5.49836 21.0516 4.96399Z" fill="#E6E6E6"/>
<path d="M21.0516 4.96422L13.4766 0.464221C13.0266 0.197034 12.5203 0.0610962 12.0141 0.0610962C11.5078 0.0610962 11.0063 0.197034 10.5516 0.464221L2.97657 4.96422C2.07188 5.4986 1.51407 6.49235 1.51407 7.56578V16.5611C1.51407 17.6345 2.07188 18.6283 2.97657 19.1627L10.5516 23.658C11.0016 23.9252 11.5078 24.0611 12.0141 24.0611C12.5203 24.0611 13.0219 23.9252 13.4766 23.658L21.0516 19.1627C21.9563 18.6236 22.5141 17.6345 22.5141 16.5611V7.56578C22.5141 6.49235 21.9563 5.4986 21.0516 4.96422ZM10.8188 23.1986L3.24376 18.7033C2.50313 18.2627 2.04376 17.4423 2.04376 16.5611V7.56578C2.04376 6.68453 2.50313 5.86422 3.24376 5.4236L10.8188 0.928284C11.1844 0.712659 11.5969 0.600159 12.0141 0.600159C12.4313 0.600159 12.8484 0.712659 13.2094 0.928284L20.7844 5.4236C21.4078 5.79391 21.8297 6.4361 21.9469 7.15797C21.6938 6.6236 21.1313 6.4736 20.4703 6.86266L13.3031 11.2923C12.4078 11.8127 11.7516 12.4033 11.7516 13.4767V22.308C11.7516 22.9548 12.0094 23.372 12.4125 23.4939C12.2813 23.5173 12.15 23.5314 12.0141 23.5314C11.5969 23.5267 11.1797 23.4142 10.8188 23.1986Z" fill="#283037"/>
<path d="M19.0687 17.428L17.1797 18.5577C17.1281 18.5858 17.0906 18.6186 17.0906 18.6796V19.1718C17.0906 19.2327 17.1328 19.2561 17.1797 19.228L19.0969 18.0655C19.1484 18.0374 19.1531 17.9811 19.1531 17.9202V17.4843C19.1578 17.4233 19.1156 17.3999 19.0687 17.428Z" fill="#4DA825"/>
<path d="M15.0516 13.2749C15.1125 13.2421 15.1641 13.2842 15.1641 13.3639L15.1688 14.0155C15.4406 13.9077 15.6797 13.8796 15.8953 13.9264C15.9422 13.9405 15.9609 14.0014 15.9422 14.0764L15.7969 14.653C15.7875 14.6952 15.7594 14.7421 15.7313 14.7702C15.7172 14.7842 15.7078 14.7936 15.6938 14.7983C15.675 14.8077 15.6563 14.8124 15.6375 14.8077C15.5391 14.7842 15.3047 14.7327 14.9391 14.9202C14.5547 15.1171 14.4188 15.4499 14.4234 15.6983C14.4281 15.9936 14.5781 16.0874 15.1031 16.0921C15.8016 16.1014 16.1063 16.4108 16.1109 17.1139C16.1203 17.8077 15.75 18.5483 15.1828 19.0077L15.1969 19.6546C15.1969 19.7342 15.1453 19.8233 15.0844 19.8514L14.7 20.0717C14.6391 20.1046 14.5875 20.0671 14.5875 19.9874L14.5828 19.3499C14.2547 19.4858 13.9219 19.5186 13.7109 19.4342C13.6688 19.4202 13.6547 19.3592 13.6688 19.2936L13.8094 18.7077C13.8188 18.6608 13.8469 18.6139 13.8797 18.5858C13.8938 18.5764 13.9031 18.5671 13.9172 18.5577C13.9406 18.5483 13.9594 18.5436 13.9781 18.553C14.2078 18.628 14.4984 18.5952 14.7797 18.4499C15.1359 18.2671 15.375 17.9061 15.3703 17.5405C15.3656 17.2124 15.1875 17.0764 14.7563 17.0717C14.2078 17.0717 13.6922 16.9639 13.6828 16.153C13.6781 15.4874 14.025 14.7936 14.5734 14.353L14.5688 13.7014C14.5688 13.6217 14.6156 13.5327 14.6813 13.4999L15.0516 13.2749Z" fill="white"/>
</g>
<defs>
<clipPath id="clip0_168_763">
<rect width="24" height="24" fill="white"/>
</clipPath>
</defs>
</svg>
