<svg width="24" height="24" viewBox="0 0 24 24" fill="none" xmlns="http://www.w3.org/2000/svg">
<path d="M12 24C18.6274 24 24 18.6274 24 12C24 5.37258 18.6274 0 12 0C5.37258 0 0 5.37258 0 12C0 18.6274 5.37258 24 12 24Z" fill="#0091E2"/>
<path d="M19.3898 10.8164C19.3523 10.7859 19.0125 10.5305 18.2953 10.5305C18.1055 10.5305 17.9156 10.5445 17.7281 10.5797C17.5898 9.62578 16.8023 9.16172 16.7672 9.14062L16.575 9.02813L16.4484 9.21094C16.289 9.45703 16.1742 9.72656 16.1062 10.0125C15.9773 10.5563 16.0547 11.0672 16.3312 11.5031C15.9984 11.6883 15.4617 11.7352 15.3539 11.7375H6.49217C6.26014 11.7375 6.07264 11.925 6.07264 12.157C6.06327 12.9328 6.19452 13.7039 6.45936 14.4328C6.76405 15.2344 7.21874 15.8227 7.80936 16.1836C8.4703 16.5891 9.54608 16.8211 10.7672 16.8211C11.318 16.8234 11.8687 16.7719 12.4101 16.6711C13.1625 16.5328 13.8867 16.2703 14.5523 15.893C15.1008 15.5742 15.5953 15.1711 16.0148 14.6953C16.7156 13.9008 17.1351 13.0148 17.4469 12.2297H17.5711C18.3398 12.2297 18.8133 11.9227 19.0734 11.6648C19.2469 11.5008 19.3828 11.3016 19.4695 11.0789L19.5234 10.9172L19.3898 10.8164V10.8164ZM7.31249 11.482H8.50077C8.55702 11.482 8.60389 11.4352 8.60389 11.3789V10.3219C8.60389 10.2656 8.55702 10.2187 8.50077 10.2164H7.31249C7.25624 10.2164 7.20936 10.2633 7.20936 10.3195V11.3789C7.20936 11.4375 7.25624 11.482 7.31249 11.482V11.482ZM8.95077 11.482H10.139C10.1953 11.482 10.2422 11.4352 10.2422 11.3789V10.3219C10.2422 10.2656 10.1953 10.2187 10.139 10.2164H8.95077C8.89217 10.2164 8.8453 10.2633 8.8453 10.3219V11.3789C8.8453 11.4375 8.89217 11.482 8.95077 11.482ZM10.6101 11.4844H11.7984C11.8547 11.4844 11.9015 11.4375 11.9015 11.3813V10.3242C11.9015 10.268 11.8547 10.2211 11.7984 10.2188H10.6101C10.5539 10.2188 10.507 10.2656 10.507 10.3219V11.3813C10.507 11.4375 10.5539 11.482 10.6101 11.4844V11.4844ZM12.2531 11.4844H13.4414C13.4976 11.4844 13.5445 11.4375 13.5469 11.3813V10.3242C13.5469 10.2656 13.5 10.2188 13.4414 10.2188H12.2531C12.1969 10.2188 12.15 10.2656 12.15 10.3219V11.3813C12.15 11.4375 12.1945 11.4844 12.2531 11.4844V11.4844ZM8.94842 9.96094H10.1367C10.193 9.96094 10.2398 9.91406 10.2398 9.85547V8.79844C10.2398 8.74219 10.193 8.69531 10.1367 8.69531H8.94842C8.88983 8.69531 8.8453 8.74219 8.84296 8.79844V9.85547C8.8453 9.91406 8.89217 9.96094 8.94842 9.96094ZM10.6101 9.96094H11.7984C11.8547 9.96094 11.9015 9.91406 11.9015 9.85547V8.79844C11.9015 8.74219 11.8547 8.69531 11.7984 8.69531H10.6101C10.5539 8.69531 10.507 8.74219 10.507 8.79844V9.85547C10.507 9.91406 10.5539 9.96094 10.6101 9.96094ZM12.2531 9.96094H13.4414C13.5 9.96094 13.5445 9.91406 13.5469 9.85547V8.79844C13.5469 8.73984 13.5 8.69531 13.4414 8.69531H12.2531C12.1969 8.69531 12.15 8.74219 12.15 8.79844V9.85547C12.15 9.91406 12.1945 9.96094 12.2531 9.96094ZM12.2531 8.43984H13.4414C13.5 8.43984 13.5469 8.39297 13.5469 8.33438V7.275C13.5469 7.21875 13.5 7.17188 13.4414 7.17188H12.2531C12.1969 7.17188 12.15 7.21875 12.15 7.275V8.33438C12.15 8.39297 12.1945 8.43984 12.2531 8.43984ZM13.9078 11.4844H15.0961C15.1523 11.4844 15.1992 11.4375 15.1992 11.3813V10.3242C15.1992 10.2656 15.1523 10.2211 15.0961 10.2188H13.9078C13.8515 10.2188 13.8047 10.2656 13.8047 10.3219V11.3813C13.8047 11.4375 13.8515 11.4844 13.9078 11.4844" fill="white"/>
</svg>
