<svg width="300" height="300" viewBox="0 0 300 300" fill="none" xmlns="http://www.w3.org/2000/svg">
  <g clip-path="url(#clip0_219_433)">
    <path
      d="M268.277 99H98.7072C97.3968 99 96.2174 99.6552 95.4311 100.704L86.9133 112.891C85.0787 115.511 86.9133 119.05 90.1894 119.05L266.311 118.919C268.277 118.919 269.85 117.477 270.243 115.642L272.208 103.587C272.601 101.228 270.767 99 268.277 99Z"
      fill="#00ACD7" />
    <path
      d="M262.118 140.541H40.6551C39.3447 140.541 38.1653 141.196 37.51 142.114L28.7302 154.169C26.8956 156.79 28.7302 160.46 31.8752 160.46L260.152 160.329C262.118 160.329 263.691 158.887 264.084 157.052L266.049 145.128C266.311 142.638 264.477 140.541 262.118 140.541Z"
      fill="#00ACD7" />
    <path
      d="M255.828 181.95H165.146C163.836 181.95 162.525 182.606 161.87 183.785L153.876 195.972C152.173 198.593 154.007 202 157.152 202L253.862 201.869C255.828 201.869 257.4 200.428 257.794 198.593L259.759 186.537C260.152 184.178 258.318 181.95 255.828 181.95Z"
      fill="#00ACD7" />
  </g>
  <defs>
    <clipPath id="clip0_219_433">
      <rect width="300" height="300" fill="white" />
    </clipPath>
  </defs>
</svg>