<svg width="24" height="25" viewBox="0 0 24 25" fill="none" xmlns="http://www.w3.org/2000/svg">
<g clip-path="url(#clip0_169_930)">
<path d="M7.82553 24.0513C10.0382 24.0513 11.8341 22.2554 11.8341 20.0427V16.0342H7.82553C5.61281 16.0342 3.81699 17.83 3.81699 20.0427C3.81699 22.2554 5.61281 24.0513 7.82553 24.0513Z" fill="#0ACF83"/>
<path d="M3.81699 12.0256C3.81699 9.81292 5.61281 8.01709 7.82553 8.01709H11.8341V16.0342H7.82553C5.61281 16.0342 3.81699 14.2383 3.81699 12.0256Z" fill="#A259FF"/>
<path d="M3.81729 4.00854C3.81729 1.79583 5.61312 0 7.82583 0H11.8344V8.01708H7.82583C5.61312 8.01708 3.81729 6.22125 3.81729 4.00854Z" fill="#F24E1E"/>
<path d="M11.834 0H15.8426C18.0553 0 19.8511 1.79583 19.8511 4.00854C19.8511 6.22125 18.0553 8.01708 15.8426 8.01708H11.834V0Z" fill="#FF7262"/>
<path d="M19.8511 12.0256C19.8511 14.2383 18.0553 16.0342 15.8426 16.0342C13.6299 16.0342 11.834 14.2383 11.834 12.0256C11.834 9.81292 13.6299 8.01709 15.8426 8.01709C18.0553 8.01709 19.8511 9.81292 19.8511 12.0256Z" fill="#1ABCFE"/>
</g>
<defs>
<clipPath id="clip0_169_930">
<rect width="16.0374" height="24.0512" fill="white" transform="translate(3.81537)"/>
</clipPath>
</defs>
</svg>
