<svg width="24" height="24" viewBox="0 0 24 24" fill="none" xmlns="http://www.w3.org/2000/svg">
<g clip-path="url(#clip0_169_914)">
<path d="M23.5474 10.9308L13.0687 0.452724C12.4657 -0.150745 11.4869 -0.150745 10.8831 0.452724L8.70712 2.62866L11.4674 5.38894C12.1088 5.17219 12.8444 5.3176 13.3557 5.82891C13.8695 6.3435 14.0138 7.08535 13.7918 7.72885L16.452 10.3891C17.0956 10.1674 17.8382 10.3108 18.3522 10.8257C19.0706 11.5438 19.0706 12.7077 18.3522 13.4263C17.6336 14.145 16.4697 14.145 15.7507 13.4263C15.2104 12.8854 15.0769 12.0918 15.3504 11.4261L12.8696 8.94525L12.8693 15.4737C13.0492 15.5626 13.2134 15.6801 13.3557 15.8215C14.0741 16.5397 14.0741 17.7037 13.3557 18.4228C12.6371 19.1411 11.4727 19.1411 10.7551 18.4228C10.0367 17.7037 10.0367 16.5398 10.7551 15.8216C10.9273 15.6494 11.1319 15.513 11.3571 15.4203V8.83097C11.1315 8.7389 10.9268 8.60242 10.7551 8.42963C10.2108 7.88607 10.0799 7.08741 10.3588 6.41907L7.63781 3.69779L0.452812 10.8823C-0.150938 11.4863 -0.150938 12.4652 0.452812 13.0688L10.9316 23.547C11.5349 24.1506 12.5135 24.1506 13.1175 23.547L23.5473 13.1174C24.1508 12.5137 24.1508 11.5343 23.5473 10.9308" fill="#DE4C36"/>
</g>
<defs>
<clipPath id="clip0_169_914">
<rect width="24" height="24" fill="white"/>
</clipPath>
</defs>
</svg>
