<svg width="25" height="24" viewBox="0 0 25 24" fill="none" xmlns="http://www.w3.org/2000/svg">
<g clip-path="url(#clip0_169_929)">
<path d="M12.2012 23.2535L16.601 9.71234H7.80127L12.2011 23.2535H12.2012Z" fill="#E24329"/>
<path d="M12.2012 23.2534L7.80128 9.71228H1.63513L12.2012 23.2534Z" fill="#FC6D26"/>
<path d="M1.63512 9.71228L0.298102 13.8274C0.238653 14.0103 0.238645 14.2074 0.298078 14.3904C0.357511 14.5733 0.473334 14.7327 0.628948 14.8458L12.2012 23.2535L1.63503 9.71237L1.63512 9.71228Z" fill="#FCA326"/>
<path d="M1.63513 9.71235H7.80128L5.15143 1.55654C5.01505 1.13687 4.42136 1.13696 4.28508 1.55654L1.63513 9.71235Z" fill="#E24329"/>
<path d="M12.2012 23.2534L16.601 9.71228H22.7672L12.2011 23.2534H12.2012Z" fill="#FC6D26"/>
<path d="M22.7673 9.71228L24.1043 13.8274C24.1637 14.0104 24.1637 14.2074 24.1043 14.3904C24.0448 14.5733 23.929 14.7328 23.7734 14.8458L12.2012 23.2535L22.7673 9.71237V9.71228Z" fill="#FCA326"/>
<path d="M22.7673 9.71235H16.601L19.251 1.55654C19.3873 1.13687 19.981 1.13696 20.1173 1.55654L22.7673 9.71235Z" fill="#E24329"/>
</g>
<defs>
<clipPath id="clip0_169_929">
<rect width="23.9121" height="22.047" fill="white" transform="translate(0.238129 1.20258)"/>
</clipPath>
</defs>
</svg>
