<svg width="25" height="24" viewBox="0 0 25 24" fill="none" xmlns="http://www.w3.org/2000/svg">
<path d="M15.3099 3.39862V7.71959L20.1664 20.1917C20.1664 20.1917 21.6494 23.2377 17.4085 23.9803H7.73484C7.73484 23.9803 3.78302 23.5674 4.73043 20.4382L9.83344 7.72066V3.39969H15.3099V3.39862Z" fill="#009789"/>
<path d="M15.4122 2.89604H9.58686C9.11529 2.89604 8.7312 2.47674 8.7312 1.95823C8.7312 1.43971 9.11529 1.01935 9.58686 1.01935H15.4122C15.8859 1.01935 16.2689 1.43864 16.2689 1.95823C16.2689 2.47674 15.8859 2.89604 15.4122 2.89604Z" fill="#024E41"/>
<path d="M13.8749 10.4551C14.5001 10.4551 15.0101 11.0653 15.0101 11.8218C15.0101 12.575 14.5001 13.1874 13.8749 13.1874C13.2487 13.1874 12.7397 12.575 12.7397 11.8218C12.7408 11.0653 13.2487 10.4551 13.8749 10.4551Z" fill="white"/>
<path d="M10.3913 14.0015C10.9199 14.0015 11.3484 13.4851 11.3484 12.8482C11.3484 12.2112 10.9199 11.6948 10.3913 11.6948C9.8628 11.6948 9.43433 12.2112 9.43433 12.8482C9.43433 13.4851 9.8628 14.0015 10.3913 14.0015Z" fill="white"/>
<path d="M15.741 7.43362V5.37876C15.741 5.37876 18.3474 4.80369 19.6501 7.83584C19.6501 7.83477 17.6198 9.31457 15.741 7.43362Z" fill="#024E41"/>
<path d="M9.3573 7.43362V5.37876C9.3573 5.37876 6.75084 4.80369 5.44922 7.83584C5.44922 7.83477 7.47634 9.31457 9.3573 7.43362Z" fill="#024E41"/>
<path d="M17.3081 15.939C13.0693 14.6246 9.50691 15.3298 7.76466 15.8633L6.00853 20.0904C5.21795 22.6136 8.51896 22.9454 8.51896 22.9454H16.5986C20.1397 22.3469 18.9021 19.8919 18.9021 19.8919L17.3081 15.939Z" fill="white"/>
<path d="M11.2001 17.5095C11.2001 17.965 10.5877 18.3363 9.83341 18.3363C9.07911 18.3363 8.46777 17.965 8.46777 17.5095C8.46777 17.0518 9.07804 16.6826 9.83341 16.6826C10.5877 16.6826 11.2001 17.0518 11.2001 17.5095Z" fill="#024E41"/>
<path d="M16.0619 17.5095C16.0619 17.965 15.4495 18.3363 14.6963 18.3363C13.9399 18.3363 13.3296 17.965 13.3296 17.5095C13.3296 17.0518 13.9399 16.6826 14.6963 16.6826C15.4495 16.6826 16.0619 17.0518 16.0619 17.5095Z" fill="#024E41"/>
</svg>
