<svg width="25" height="24" viewBox="0 0 25 24" fill="none" xmlns="http://www.w3.org/2000/svg">
<path d="M20.8361 11.927C20.8361 10.786 19.9113 9.86123 18.7703 9.86072C18.6976 9.86072 18.6254 9.86474 18.5531 9.87226L21.3902 1.50446H9.33327L12.1668 9.86524C11.0279 9.79603 10.0489 10.6637 9.97972 11.8021C9.92255 12.7459 10.5133 13.6076 11.4141 13.8949C10.9747 14.6517 10.4276 15.3403 9.78965 15.9396C8.93406 16.7465 7.9546 17.3589 6.8954 17.736C5.63459 17.0886 5.03828 15.6477 5.57591 14.3844C5.63609 14.2415 5.69828 14.097 5.75746 13.9531C6.86882 13.6928 7.5584 12.5815 7.29862 11.4701C7.03833 10.3587 5.92697 9.66915 4.81561 9.92893C3.70425 10.1892 3.01466 11.3006 3.27445 12.4119C3.3903 12.9064 3.68419 13.3412 4.10045 13.6331C3.5894 14.7966 2.83813 16.0153 2.60342 17.4271C2.32307 19.1192 2.60292 20.9152 4.06584 21.9302C7.47465 24.2924 11.1748 20.4653 15.0756 19.5039C16.4894 19.1548 18.0416 19.2115 19.2869 18.4893C20.2222 17.9477 20.8391 17.05 21.0141 16.0414C21.1871 15.0459 20.9354 14.0544 20.3551 13.2505C20.667 12.8794 20.8371 12.4104 20.8361 11.927Z" fill="#9A425B"/>
<path d="M20.5178 15.9557C20.3658 16.8304 19.8252 17.5952 19.0343 18.0531C18.2976 18.4794 17.4149 18.6072 16.4801 18.7421C15.9796 18.8144 15.4615 18.8891 14.956 19.014C13.6179 19.3435 12.3225 19.9874 11.0697 20.6098C8.56164 21.8556 6.39659 22.9308 4.35442 21.5155C2.85889 20.4789 2.9281 18.5611 3.10213 17.5099C3.26362 16.5365 3.69994 15.6393 4.12221 14.7721C4.19544 14.6222 4.26665 14.4752 4.33636 14.3293C4.546 14.4126 4.76867 14.4697 5.00037 14.4958C4.57057 15.9146 5.24661 17.4563 6.66541 18.185L6.85949 18.2853L7.06511 18.212C8.1865 17.8123 9.22013 17.1719 10.1364 16.3068C10.7182 15.7596 11.2287 15.1423 11.657 14.4687C13.0628 14.6794 14.3727 13.7104 14.5833 12.3052C14.5854 12.2926 14.5869 12.2796 14.5889 12.2666C15.1335 12.247 15.6792 12.247 16.2238 12.2666C16.3953 13.5424 17.4831 14.4958 18.771 14.4973C19.2951 14.4978 19.8066 14.3373 20.2364 14.0369C20.5303 14.6302 20.6291 15.3022 20.5178 15.9557ZM5.28623 10.3804C6.14784 10.3814 6.84645 11.0795 6.84745 11.9411C6.84695 12.8037 6.14684 13.5023 5.28423 13.5018C5.09867 13.5018 4.91461 13.4687 4.74058 13.4035C4.39855 13.2751 4.11168 13.0309 3.93013 12.7134C3.79523 12.4782 3.72451 12.2119 3.72451 11.9406C3.72652 11.0795 4.42463 10.3814 5.28623 10.3804ZM10.4799 11.9265C10.4814 11.0649 11.1796 10.3668 12.0412 10.3658C12.5417 10.3658 12.987 10.6025 13.2729 10.9701C13.5648 11.3433 13.6701 11.8292 13.5593 12.2896C13.3902 12.9918 12.7628 13.4868 12.0412 13.4883C11.1791 13.4888 10.4799 12.7896 10.4799 11.9275C10.4799 11.927 10.4799 11.927 10.4799 11.9265ZM16.9961 10.0699C16.6566 10.3944 16.4119 10.8051 16.289 11.2585C15.7002 11.237 15.1114 11.237 14.5227 11.2585C14.3918 10.7751 14.1225 10.3407 13.7483 10.0077L15.3642 6.74136L16.9961 10.0699ZM10.0371 2.00855H20.6868L18.1712 9.42798C18.0629 9.45406 17.9565 9.48666 17.8527 9.52678L15.3677 4.45796L12.8757 9.49619C12.7669 9.45908 12.656 9.42899 12.5432 9.40692L10.0371 2.00855ZM20.3322 11.927C20.3327 12.4371 20.083 12.9155 19.6637 13.2064C19.4024 13.39 19.0905 13.4883 18.771 13.4883C17.9094 13.4868 17.2108 12.7886 17.2098 11.927C17.2098 11.6156 17.3036 11.3117 17.4786 11.0539C17.7976 10.581 18.3492 10.3197 18.917 10.3728C19.7184 10.4491 20.3307 11.1216 20.3322 11.927ZM21.3408 11.927C21.3388 10.6918 20.4596 9.6316 19.2459 9.40191L22.0946 1H8.62934L11.4825 9.41845C10.3079 9.68125 9.47239 10.7229 9.47039 11.9265C9.47089 12.8152 9.93078 13.6407 10.6861 14.1091C10.3275 14.6417 9.91072 15.1322 9.44381 15.5721C8.68802 16.2847 7.84648 16.8254 6.93873 17.1809C6.02497 16.6072 5.6383 15.5244 6.04001 14.5811L6.07161 14.5068L6.13029 14.3689C7.16291 14.0083 7.855 13.0349 7.85651 11.9416C7.855 10.5228 6.70502 9.37282 5.28623 9.37131C3.86744 9.37332 2.71797 10.5228 2.71646 11.9416C2.71646 12.6567 3.01035 13.3047 3.48328 13.7716C3.39752 13.9542 3.30725 14.1402 3.21447 14.3303C2.78216 15.219 2.29168 16.2265 2.10662 17.3449C1.738 19.5661 2.3323 21.3415 3.77918 22.345C4.65783 22.9539 5.54903 23.1931 6.44674 23.1931C8.13635 23.1931 9.84602 22.344 11.5181 21.5135C12.7222 20.9157 13.9675 20.2968 15.1972 19.9939C15.6546 19.8811 16.126 19.8129 16.624 19.7412C17.6125 19.5982 18.6346 19.4508 19.5398 18.9267C20.59 18.3189 21.3087 17.2988 21.5113 16.1287C21.6858 15.1242 21.4757 14.1182 20.9641 13.2651C21.2109 12.8619 21.3413 12.3985 21.3408 11.927Z" fill="white"/>
</svg>
