<svg width="25" height="24" viewBox="0 0 25 24" fill="none" xmlns="http://www.w3.org/2000/svg">
<g clip-path="url(#clip0_157_2490)">
<path d="M11.8612 -0.207703L12.4909 0.974863C12.6324 1.19309 12.7858 1.38625 12.9664 1.56615C13.4959 2.0891 13.9896 2.64725 14.4439 3.23678C15.5107 4.63757 16.2302 6.19319 16.7441 7.87562C17.0523 8.90336 17.2196 9.95765 17.2322 11.0237C17.2838 14.2109 16.1912 16.9476 13.9882 19.2221C13.6299 19.5827 13.2428 19.9136 12.8307 20.2115C12.6125 20.2115 12.5093 20.0441 12.4193 19.89C12.2555 19.6043 12.1465 19.2905 12.0979 18.9648C12.0205 18.5792 11.9696 18.1936 11.9947 17.7955V17.6156C11.977 17.5772 11.7846 -0.11702 11.8612 -0.207703V-0.207703Z" fill="#599636"/>
<path d="M11.8612 -0.246792C11.8354 -0.2984 11.8096 -0.259325 11.7838 -0.234258C11.7963 0.0237828 11.7064 0.253808 11.5655 0.473512C11.4107 0.691741 11.2058 0.859099 11.0001 1.03899C9.85732 2.02839 8.95786 3.22349 8.23756 4.56015C7.27912 6.35906 6.78515 8.287 6.64507 10.3167C6.58093 11.0488 6.87657 13.6321 7.10734 14.3775C7.73696 16.3563 8.86791 18.0144 10.3329 19.4535C10.6926 19.8001 11.0775 20.1215 11.4756 20.4304C11.5914 20.4304 11.6039 20.3272 11.6304 20.2505C11.6812 20.0865 11.7199 19.9189 11.7462 19.7492L12.0042 17.822L11.8612 -0.246792Z" fill="#6CAC48"/>
<path d="M12.4908 20.9945C12.5166 20.6996 12.6582 20.4548 12.8122 20.2108C12.6574 20.1467 12.5424 20.0191 12.4525 19.8768C12.3749 19.7421 12.3107 19.6001 12.2608 19.4529C12.0809 18.9132 12.0425 18.347 11.9909 17.7955V17.4615C11.9268 17.5132 11.9135 17.9496 11.9135 18.0145C11.876 18.5974 11.7987 19.177 11.682 19.7493C11.6437 19.9808 11.6179 20.2115 11.4756 20.4172C11.4756 20.443 11.4756 20.4688 11.4881 20.5072C11.7196 21.1884 11.783 21.8822 11.8221 22.5892V22.8472C11.8221 23.1554 11.8096 23.0905 12.0654 23.1937C12.1686 23.2321 12.2836 23.2454 12.3868 23.322C12.4643 23.322 12.4768 23.2579 12.4768 23.2063L12.4384 22.7824V21.5998C12.4259 21.3934 12.4643 21.1884 12.4901 20.9952L12.4908 20.9945Z" fill="#C2BFBF"/>
</g>
<defs>
<clipPath id="clip0_157_2490">
<rect width="24" height="24" fill="white" transform="translate(0.0247192)"/>
</clipPath>
</defs>
</svg>
