<svg width="25" height="24" viewBox="0 0 25 24" fill="none" xmlns="http://www.w3.org/2000/svg">
<g clip-path="url(#clip0_157_2502)">
<path d="M12.0247 14.0501C13.1569 14.0501 14.0747 13.1323 14.0747 12.0001C14.0747 10.8679 13.1569 9.95007 12.0247 9.95007C10.8925 9.95007 9.97467 10.8679 9.97467 12.0001C9.97467 13.1323 10.8925 14.0501 12.0247 14.0501Z" fill="white"/>
<path d="M12.0247 16.2C18.0999 16.2 23.0247 14.3196 23.0247 12C23.0247 9.68039 18.0999 7.79999 12.0247 7.79999C5.94959 7.79999 1.02472 9.68039 1.02472 12C1.02472 14.3196 5.94959 16.2 12.0247 16.2Z" stroke="white"/>
<path d="M8.3875 14.1C11.4251 19.3612 15.516 22.6861 17.5248 21.5263C19.5336 20.3665 18.6997 15.1612 15.6621 9.9C12.6245 4.63878 8.53363 1.31392 6.5248 2.47372C4.51597 3.63352 5.34993 8.83878 8.3875 14.1Z" stroke="white"/>
<path d="M8.3875 9.90007C5.34993 15.1613 4.51597 20.3666 6.5248 21.5264C8.53363 22.6861 12.6245 19.3613 15.6621 14.1001C18.6997 8.83885 19.5336 3.63359 17.5248 2.47379C15.516 1.31399 11.4251 4.63885 8.3875 9.90007Z" stroke="white"/>
</g>
<defs>
<clipPath id="clip0_157_2502">
<rect width="24" height="24" fill="white" transform="translate(0.0247192)"/>
</clipPath>
</defs>
</svg>
