<svg width="25" height="24" viewBox="0 0 25 24" fill="none" xmlns="http://www.w3.org/2000/svg">
<g clip-path="url(#clip0_157_2489)">
<path fill-rule="evenodd" clip-rule="evenodd" d="M13.8235 1.38153C13.6607 1.38153 13.5095 1.41642 13.3699 1.46294C13.6665 1.66065 13.8293 1.92233 13.9107 2.2189C13.9165 2.2596 13.9282 2.28868 13.934 2.32938C13.9398 2.36427 13.9456 2.39916 13.9456 2.43405C13.9689 2.94578 13.8119 3.00974 13.7014 3.31212C13.5327 3.70173 13.5792 4.12041 13.7828 4.45769C13.8002 4.49839 13.8235 4.54491 13.8526 4.58562C13.6316 3.11441 14.8586 2.89344 15.0853 2.43405C15.1028 2.03281 14.7713 1.76532 14.5097 1.57924C14.2596 1.42805 14.0328 1.38153 13.8235 1.38153V1.38153ZM15.6727 1.71299C15.6494 1.84673 15.6668 1.81184 15.661 1.88162C15.6552 1.92814 15.6552 1.9863 15.6494 2.03281C15.6378 2.07934 15.6262 2.12585 15.6087 2.17238C15.5971 2.2189 15.5796 2.26542 15.5622 2.31194C15.5389 2.35846 15.5215 2.39916 15.4982 2.44568C15.4808 2.46895 15.4692 2.4922 15.4517 2.51546C15.4401 2.53291 15.4284 2.55035 15.4168 2.5678C15.3877 2.60851 15.3587 2.64921 15.3296 2.6841C15.2947 2.71899 15.2656 2.75969 15.2249 2.78877C15.2249 2.79459 15.2249 2.79459 15.2249 2.79459C15.19 2.82367 15.1551 2.85856 15.1144 2.88763C14.9923 2.98067 14.8528 3.05045 14.7248 3.13768C14.6841 3.16675 14.6434 3.19002 14.6085 3.22491C14.5678 3.25398 14.5329 3.28305 14.498 3.31795C14.4573 3.35284 14.4283 3.38773 14.3934 3.42843C14.3643 3.46332 14.3294 3.50403 14.3061 3.54473C14.2771 3.58544 14.248 3.62614 14.2247 3.66685C14.2015 3.71337 14.184 3.75407 14.1608 3.80059C14.1433 3.84711 14.1259 3.88782 14.1143 3.93434C14.0968 3.98667 14.0852 4.0332 14.0735 4.07972C14.0677 4.10299 14.0677 4.13205 14.0619 4.15531C14.0561 4.17858 14.0561 4.20183 14.0503 4.22509C14.0503 4.27161 14.0445 4.32395 14.0445 4.37047C14.0445 4.40536 14.0445 4.44025 14.0503 4.47514C14.0503 4.52166 14.0561 4.56818 14.0677 4.62051C14.0736 4.66703 14.0852 4.71355 14.0968 4.76008C14.1143 4.8066 14.1259 4.85312 14.1433 4.89963C14.155 4.92871 14.1724 4.95779 14.1841 4.98104L12.8466 4.46351C12.6198 4.39954 12.3988 4.34139 12.172 4.28906C12.0499 4.25998 11.9278 4.23091 11.8057 4.20183C11.4568 4.13205 11.1021 4.07972 10.7474 4.04483C10.7357 4.04483 10.7299 4.039 10.7183 4.039C10.3694 4.00411 10.0263 3.98667 9.6774 3.98667C9.42154 3.98667 9.16567 3.99829 8.91563 4.01574C8.56091 4.03901 8.20619 4.08552 7.85148 4.14367C7.76425 4.15529 7.67703 4.17275 7.5898 4.1902C7.40953 4.22508 7.23508 4.26579 7.06645 4.3065C6.97922 4.32977 6.89199 4.35302 6.80477 4.37627C6.71755 4.41116 6.63614 4.45187 6.55472 4.48676C6.49076 4.51584 6.42679 4.54491 6.36283 4.57399C6.35121 4.57981 6.33956 4.57981 6.33375 4.58561C6.2756 4.61468 6.22327 4.63794 6.17093 4.66702C6.15349 4.67284 6.14185 4.67864 6.13023 4.68446C6.06626 4.71354 6.0023 4.74843 5.94996 4.7775C5.90925 4.79495 5.86855 4.81821 5.83366 4.83566C5.81621 4.84728 5.79295 4.85892 5.78132 4.86473C5.72899 4.8938 5.67665 4.92288 5.63013 4.95196C5.5778 4.98103 5.53128 5.0101 5.49057 5.03918C5.44987 5.06826 5.40916 5.09151 5.37427 5.12059C5.36844 5.12641 5.36265 5.12641 5.35683 5.13221C5.32193 5.15548 5.28123 5.18455 5.24634 5.21362C5.24634 5.21362 5.24052 5.21945 5.23472 5.22524C5.20565 5.24851 5.17657 5.27176 5.14749 5.29502C5.13587 5.30085 5.12422 5.31247 5.1126 5.31829C5.08353 5.34156 5.05445 5.37063 5.02538 5.39389C5.01955 5.40551 5.00793 5.41133 5.00211 5.41716C4.96722 5.45205 4.93233 5.48112 4.89744 5.51601C4.89161 5.51601 4.89161 5.52184 4.88582 5.52763C4.85093 5.55671 4.81604 5.5916 4.78115 5.62649C4.77532 5.63231 4.77532 5.63811 4.76953 5.63811C4.74045 5.66719 4.71138 5.69626 4.6823 5.73115C4.67068 5.74277 4.65322 5.75442 4.6416 5.76604C4.61252 5.80093 4.57763 5.83582 4.54274 5.87071C4.53692 5.88233 4.5253 5.88816 4.51947 5.89979C4.47295 5.94631 4.43224 5.99283 4.38573 6.03935C4.3799 6.04517 4.3741 6.05097 4.36828 6.05679C4.27524 6.15565 4.17638 6.2545 4.07171 6.34173C3.96704 6.43477 3.85656 6.522 3.74607 6.59759C3.62977 6.679 3.51928 6.74878 3.39717 6.81856C3.28087 6.88253 3.15875 6.94068 3.03082 6.99302C2.9087 7.04535 2.78077 7.09187 2.65284 7.13257C2.40861 7.18491 2.15856 7.28377 1.94341 7.30121C1.89689 7.30121 1.84455 7.31283 1.79803 7.31865C1.7457 7.33028 1.69918 7.34192 1.65266 7.35355C1.60614 7.37099 1.55962 7.38844 1.5131 7.40588C1.46658 7.42333 1.42006 7.44659 1.37354 7.46985C1.33283 7.49892 1.28631 7.52218 1.2456 7.55126C1.2049 7.58033 1.16419 7.61522 1.1293 7.65011C1.0886 7.67919 1.04789 7.71989 1.013 7.75478C0.978113 7.79549 0.943223 7.83038 0.914148 7.87108C0.885074 7.9176 0.850183 7.95831 0.826922 8.00483C0.797848 8.04554 0.768773 8.09206 0.745512 8.13857C0.722242 8.19091 0.698992 8.23743 0.681547 8.28977C0.664102 8.33629 0.646656 8.38862 0.629211 8.44096C0.61759 8.48748 0.605942 8.534 0.600137 8.58052C0.600137 8.58635 0.594313 8.59214 0.594313 8.59796C0.582692 8.6503 0.582692 8.72008 0.576867 8.75497C0.571043 8.79568 0.565247 8.83057 0.565247 8.87127C0.565247 8.89454 0.565247 8.92361 0.571071 8.94687C0.576895 8.98757 0.582691 9.02246 0.59434 9.05736C0.605961 9.09224 0.617609 9.12713 0.635044 9.16202C0.635044 9.16785 0.635044 9.16785 0.635044 9.16785C0.652489 9.20274 0.67575 9.23763 0.699009 9.27252C0.722278 9.30741 0.745531 9.3423 0.774606 9.37719C0.80368 9.40627 0.83857 9.44115 0.873461 9.47023C0.908351 9.50512 0.943242 9.53419 0.983946 9.56327C1.12351 9.68539 1.1584 9.72609 1.33866 9.81913C1.36774 9.83658 1.39682 9.84821 1.43171 9.86565C1.43753 9.86565 1.44333 9.87147 1.44915 9.87147C1.44915 9.88309 1.44915 9.88892 1.45498 9.90055C1.4608 9.94707 1.47242 9.99359 1.48405 10.0401C1.49567 10.0924 1.51313 10.139 1.53057 10.1797C1.54802 10.2146 1.55965 10.2495 1.57709 10.2843C1.58292 10.296 1.58871 10.3076 1.59454 10.3134C1.61781 10.3599 1.64106 10.4006 1.66432 10.4414C1.69339 10.4821 1.72247 10.5228 1.75154 10.5635C1.78062 10.5984 1.81551 10.6391 1.8504 10.674C1.88529 10.7088 1.92018 10.7379 1.96089 10.7728C1.96089 10.7728 1.96671 10.7786 1.97251 10.7786C2.0074 10.8077 2.04229 10.8368 2.07718 10.86C2.11788 10.8891 2.15859 10.9124 2.20511 10.9356C2.24581 10.9589 2.29233 10.9822 2.33885 10.9996C2.37374 11.0171 2.41445 11.0287 2.45515 11.0403C2.46098 11.0461 2.46677 11.0461 2.47842 11.0519C2.50169 11.0578 2.53076 11.0636 2.55402 11.0694C2.53657 11.3834 2.53075 11.68 2.57729 11.7846C2.62962 11.9009 2.88548 11.5462 3.14135 11.1392C3.10645 11.5404 3.08319 12.0114 3.14135 12.151C3.20531 12.2964 3.55421 11.8428 3.85659 11.3427C7.97945 10.389 11.7418 13.2384 12.1372 17.2624C12.0616 16.6344 11.2882 16.2855 10.9335 16.3727C10.759 16.803 10.4625 17.3554 9.98564 17.6985C10.0263 17.3147 10.0089 16.9193 9.92749 16.5355C9.79956 17.0705 9.54951 17.5706 9.20643 18.0009C8.654 18.0416 8.10157 17.7741 7.81082 17.3729C7.78755 17.3554 7.78174 17.3205 7.7643 17.2973C7.74685 17.2566 7.7294 17.2159 7.71778 17.1752C7.70033 17.1345 7.6887 17.0938 7.68289 17.0531C7.67706 17.0123 7.67706 16.9716 7.67706 16.9251C7.67706 16.896 7.67706 16.867 7.67706 16.8379C7.68289 16.7972 7.69451 16.7565 7.70613 16.7158C7.71776 16.6751 7.7294 16.6344 7.74684 16.5937C7.77011 16.553 7.78755 16.5123 7.81662 16.4716C7.91548 16.1924 7.91548 15.9656 7.73521 15.8319C7.70032 15.8086 7.66543 15.7912 7.62472 15.7737C7.60146 15.7679 7.57239 15.7563 7.54913 15.7505C7.53169 15.7447 7.52006 15.7389 7.50261 15.733C7.4619 15.7214 7.4212 15.7098 7.38049 15.704C7.33979 15.6923 7.29908 15.6865 7.25838 15.6865C7.21767 15.6807 7.17115 15.6749 7.13045 15.6749C7.10137 15.6749 7.0723 15.6807 7.04322 15.6807C6.9967 15.6807 6.956 15.6865 6.91529 15.6982C6.87459 15.704 6.83388 15.7098 6.79318 15.7214C6.75247 15.733 6.71176 15.7447 6.67106 15.7621C6.63035 15.7796 6.59546 15.797 6.55476 15.8145C6.51987 15.8319 6.48498 15.8552 6.44427 15.8726C5.08937 16.7565 5.89766 18.8267 6.82225 19.4256C6.47335 19.4896 6.11863 19.5652 6.01978 19.6408C6.01395 19.6466 6.00816 19.6524 6.00816 19.6524C6.2582 19.8036 6.51988 19.9315 6.79318 20.042C7.16535 20.1641 7.56077 20.2746 7.73522 20.3211V20.3269C8.21787 20.4258 8.70633 20.4607 9.20061 20.4316C11.7767 20.2513 13.8875 18.2917 14.2713 15.7098C14.2829 15.7621 14.2946 15.8086 14.3062 15.861C14.3237 15.9657 14.3469 16.0761 14.3585 16.1866C14.3585 16.1866 14.3585 16.1866 14.3585 16.1925C14.3702 16.2448 14.376 16.2971 14.3818 16.3436C14.3818 16.3553 14.3818 16.3611 14.3818 16.3669C14.3876 16.4193 14.3934 16.4716 14.3934 16.5181C14.3993 16.5821 14.4051 16.646 14.4051 16.71C14.4051 16.7391 14.4051 16.7682 14.4051 16.803C14.4051 16.8321 14.4109 16.867 14.4109 16.8961C14.4109 16.931 14.4051 16.9659 14.4051 17.0008C14.4051 17.0298 14.4051 17.0589 14.4051 17.0822C14.4051 17.1229 14.3992 17.1578 14.3992 17.1985C14.3992 17.2217 14.3992 17.245 14.3934 17.2741C14.3934 17.3148 14.3876 17.3555 14.3876 17.402C14.3818 17.4194 14.3818 17.4369 14.3818 17.4543C14.3759 17.5008 14.3701 17.5416 14.3643 17.5881C14.3643 17.6055 14.3643 17.623 14.3585 17.6404C14.3527 17.6986 14.341 17.7509 14.3352 17.809V17.8149V17.8207C14.3236 17.873 14.3119 17.9312 14.3003 17.9835C14.3003 17.9893 14.3003 17.9951 14.3003 18.001C14.2887 18.0533 14.2771 18.1056 14.2654 18.158C14.2654 18.1638 14.2596 18.1754 14.2596 18.1812C14.248 18.2336 14.2363 18.2859 14.2189 18.3382C14.2189 18.3441 14.2189 18.3499 14.2189 18.3557C14.2015 18.4138 14.184 18.4662 14.1724 18.5185C14.1666 18.5243 14.1666 18.5301 14.1666 18.5301C14.1491 18.5883 14.1317 18.6464 14.1142 18.7046C14.091 18.7627 14.0735 18.8151 14.0503 18.8732C14.027 18.9314 14.0096 18.9895 13.9863 19.0419C13.963 19.1 13.9398 19.1523 13.9165 19.2105H13.9107C13.8874 19.2628 13.8642 19.321 13.8351 19.3733C13.8293 19.3908 13.8235 19.4024 13.8176 19.414C13.8118 19.4198 13.8118 19.4256 13.806 19.4315C13.428 20.1932 12.8698 20.862 12.172 21.3853C12.1255 21.4144 12.079 21.4493 12.0324 21.4842C12.0208 21.4958 12.0034 21.5016 11.9917 21.5132C11.951 21.5423 11.9103 21.5714 11.8638 21.6005L11.8812 21.6354H11.8871C11.9685 21.6237 12.0499 21.6121 12.1313 21.6005H12.1371C12.2883 21.5772 12.4395 21.5481 12.5907 21.5191C12.6314 21.5132 12.6779 21.5016 12.7186 21.49C12.7477 21.4842 12.771 21.4784 12.8 21.4725C12.8407 21.4667 12.8814 21.4551 12.9222 21.4493C12.957 21.4376 12.9919 21.4318 13.0268 21.4202C13.6083 21.2806 14.1724 21.0887 14.7132 20.8619C13.7886 22.1238 12.55 23.1414 11.102 23.8102C11.7708 23.7637 12.4395 23.6532 13.085 23.4671C15.4284 22.7751 17.3997 21.1992 18.5802 19.0767C18.3418 20.42 17.8068 21.6993 17.0159 22.8158C17.58 22.4436 18.0975 22.0133 18.5686 21.5249C19.8711 20.1641 20.7259 18.4371 21.0167 16.5821C21.2144 17.5009 21.2725 18.4487 21.1853 19.3849C25.3838 13.5292 21.5342 7.45829 19.9235 5.85916C19.9176 5.84754 19.9118 5.84171 19.9118 5.83008C19.906 5.83591 19.906 5.83591 19.906 5.84171C19.906 5.83588 19.906 5.83588 19.9002 5.83008C19.9002 5.89987 19.8944 5.96964 19.8886 6.03942C19.8711 6.17317 19.8537 6.3011 19.8304 6.42903C19.8013 6.55696 19.7664 6.68489 19.7316 6.81282C19.6909 6.93494 19.6443 7.06287 19.592 7.18499C19.5397 7.30129 19.4815 7.4234 19.4175 7.5397C19.3536 7.65019 19.2838 7.76649 19.2082 7.87116C19.1326 7.98165 19.0512 8.08632 18.9698 8.18517C18.8826 8.28984 18.7895 8.38288 18.6965 8.47592C18.6383 8.52826 18.586 8.57478 18.5278 8.6213C18.4813 8.66201 18.4406 8.6969 18.3941 8.7376C18.2894 8.81901 18.1848 8.89461 18.0685 8.96439C17.958 9.03417 17.8417 9.10395 17.7254 9.1621C17.6033 9.22025 17.4811 9.27258 17.359 9.32492C17.2369 9.37144 17.109 9.41214 16.981 9.44704C16.8531 9.48192 16.7194 9.511 16.5914 9.53426C16.4577 9.55753 16.3239 9.56915 16.196 9.58078C16.103 9.5866 16.0099 9.5924 15.9169 9.5924C15.7831 9.5924 15.6494 9.58078 15.5215 9.56913C15.3877 9.55751 15.254 9.54006 15.126 9.51098C14.9923 9.48771 14.8644 9.45283 14.7364 9.41213H14.7306C14.8585 9.40051 14.9865 9.38886 15.1144 9.3656C15.2482 9.34234 15.3761 9.31327 15.504 9.27838C15.6319 9.24349 15.7599 9.20278 15.882 9.15626C16.0099 9.10974 16.132 9.05159 16.2483 8.99344C16.3705 8.93529 16.4809 8.87133 16.5972 8.80155C16.7077 8.72595 16.8182 8.65036 16.9229 8.56894C17.0276 8.48754 17.1264 8.40031 17.2195 8.30727C17.3183 8.22004 17.4055 8.12119 17.4928 8.02233C17.58 7.91766 17.6614 7.81299 17.737 7.70832C17.7486 7.69087 17.7603 7.66762 17.7719 7.65017C17.83 7.55713 17.8882 7.46409 17.9405 7.37105C18.0045 7.25475 18.0626 7.13845 18.115 7.01633C18.1673 6.89422 18.2138 6.7721 18.2545 6.64417C18.2952 6.52205 18.3243 6.39412 18.3534 6.26619C18.3767 6.13245 18.3999 6.00451 18.4115 5.87658C18.4232 5.74284 18.4348 5.60909 18.4348 5.48116C18.4348 5.38812 18.429 5.29508 18.4232 5.20204C18.4116 5.0683 18.3941 4.94036 18.3767 4.81243C18.3534 4.67869 18.3243 4.55076 18.2894 4.42283C18.2487 4.30071 18.208 4.17278 18.1615 4.05067C18.115 3.92855 18.0568 3.80643 17.9987 3.69013C17.9347 3.57383 17.8708 3.45753 17.801 3.34705C17.7254 3.23656 17.6498 3.13189 17.5684 3.02722C17.4811 2.92836 17.3939 2.82951 17.3009 2.73065C17.2544 2.68413 17.202 2.6318 17.1497 2.58528C16.888 2.38175 16.6147 2.18985 16.3414 2.0154C16.3007 1.99213 16.2658 1.9747 16.2251 1.95725C16.0332 1.83514 15.8529 1.77117 15.6727 1.71302L15.6727 1.71299Z" fill="#E0234E"/>
</g>
<defs>
<clipPath id="clip0_157_2489">
<rect width="23.8095" height="23" fill="white" transform="translate(0.0247192 1)"/>
</clipPath>
</defs>
</svg>
