<svg width="25" height="24" viewBox="0 0 25 24" fill="none" xmlns="http://www.w3.org/2000/svg">
<g clip-path="url(#clip0_157_2446)">
<path d="M7.22472 7.2L7.87326 6.7316C7.6701 6.4503 7.30875 6.33205 6.97859 6.4388C6.64842 6.54557 6.42472 6.85301 6.42472 7.2H7.22472ZM12.0247 22.4C6.28096 22.4 1.62472 17.7438 1.62472 12H0.0247192C0.0247192 18.6274 5.3973 24 12.0247 24V22.4ZM22.4247 12C22.4247 17.7438 17.7686 22.4 12.0247 22.4V24C18.6521 24 24.0247 18.6274 24.0247 12H22.4247ZM12.0247 1.6C17.7686 1.6 22.4247 6.25624 22.4247 12H24.0247C24.0247 5.37258 18.6521 0 12.0247 0V1.6ZM12.0247 0C5.3973 0 0.0247192 5.37258 0.0247192 12H1.62472C1.62472 6.25624 6.28096 1.6 12.0247 1.6V0ZM8.02472 19.2V7.2H6.42472V19.2H8.02472ZM6.57617 7.6684L16.9762 22.0683L18.2732 21.1317L7.87326 6.7316L6.57617 7.6684ZM16.0247 6.4V16L17.6247 18.2607V6.4H16.0247Z" fill="white"/>
</g>
<defs>
<clipPath id="clip0_157_2446">
<rect width="24" height="24" fill="white" transform="translate(0.0247192)"/>
</clipPath>
</defs>
</svg>
