<svg width="24" height="24" viewBox="0 0 24 24" fill="none" xmlns="http://www.w3.org/2000/svg">
<g clip-path="url(#clip0_169_928)">
<path d="M4.25 0.307129H19.75C22.1 0.307129 24 2.20713 24 4.55713V19.4571C24 21.8071 22.1 23.7071 19.75 23.7071H4.25C1.9 23.7071 0 21.8071 0 19.4571V4.55713C0 2.20713 1.9 0.307129 4.25 0.307129Z" fill="#001E36"/>
<path d="M5.40002 16.7171V6.42708C5.40002 6.35708 5.43002 6.31708 5.50002 6.31708C5.67002 6.31708 5.83002 6.31708 6.06002 6.30708C6.30002 6.29708 6.55002 6.29708 6.82002 6.28708C7.09002 6.27708 7.38002 6.27708 7.69002 6.26708C8.00002 6.25708 8.30002 6.25708 8.60002 6.25708C9.42002 6.25708 10.1 6.35708 10.66 6.56708C11.16 6.73708 11.62 7.01708 12 7.38708C12.32 7.70708 12.57 8.09708 12.73 8.52708C12.88 8.94708 12.96 9.37708 12.96 9.82708C12.96 10.6871 12.76 11.3971 12.36 11.9571C11.96 12.5171 11.4 12.9371 10.75 13.1771C10.07 13.4271 9.32002 13.5171 8.50002 13.5171C8.26002 13.5171 8.10002 13.5171 8.00002 13.5071C7.90002 13.4971 7.76002 13.4971 7.57002 13.4971V16.7071C7.58002 16.7771 7.53002 16.8371 7.46002 16.8471H5.52002C5.44002 16.8471 5.40002 16.8071 5.40002 16.7171ZM7.58002 8.24708V11.6071C7.72002 11.6171 7.85002 11.6271 7.97002 11.6271H8.50002C8.89002 11.6271 9.28002 11.5671 9.65002 11.4471C9.97002 11.3571 10.25 11.1671 10.47 10.9171C10.68 10.6671 10.78 10.3271 10.78 9.88708C10.79 9.57708 10.71 9.26708 10.55 8.99708C10.38 8.73708 10.14 8.53708 9.85002 8.42708C9.48002 8.27708 9.08002 8.21708 8.67002 8.22708C8.41002 8.22708 8.18002 8.22708 7.99002 8.23708C7.79002 8.22708 7.65002 8.23708 7.58002 8.24708V8.24708ZM19.2 10.9971C18.9 10.8371 18.58 10.7271 18.24 10.6571C17.87 10.5771 17.5 10.5271 17.12 10.5271C16.92 10.5171 16.71 10.5471 16.52 10.5971C16.39 10.6271 16.28 10.6971 16.21 10.7971C16.16 10.8771 16.13 10.9771 16.13 11.0671C16.13 11.1571 16.17 11.2471 16.23 11.3271C16.32 11.4371 16.44 11.5271 16.57 11.5971C16.8 11.7171 17.04 11.8271 17.28 11.9271C17.82 12.1071 18.34 12.3571 18.82 12.6571C19.15 12.8671 19.42 13.1471 19.61 13.4871C19.77 13.8071 19.85 14.1571 19.84 14.5171C19.85 14.9871 19.71 15.4571 19.45 15.8471C19.17 16.2471 18.78 16.5571 18.33 16.7371C17.84 16.9471 17.24 17.0571 16.52 17.0571C16.06 17.0571 15.61 17.0171 15.16 16.9271C14.81 16.8671 14.46 16.7571 14.14 16.6071C14.07 16.5671 14.02 16.4971 14.03 16.4171V14.6771C14.03 14.6471 14.04 14.6071 14.07 14.5871C14.1 14.5671 14.13 14.5771 14.16 14.5971C14.55 14.8271 14.96 14.9871 15.4 15.0871C15.78 15.1871 16.18 15.2371 16.58 15.2371C16.96 15.2371 17.23 15.1871 17.41 15.0971C17.57 15.0271 17.68 14.8571 17.68 14.6771C17.68 14.5371 17.6 14.4071 17.44 14.2771C17.28 14.1471 16.95 13.9971 16.46 13.8071C15.95 13.6271 15.48 13.3871 15.04 13.0871C14.73 12.8671 14.47 12.5771 14.28 12.2371C14.12 11.9171 14.04 11.5671 14.05 11.2171C14.05 10.7871 14.17 10.3771 14.39 10.0071C14.64 9.60708 15.01 9.28708 15.44 9.08708C15.91 8.84708 16.5 8.73708 17.21 8.73708C17.62 8.73708 18.04 8.76708 18.45 8.82708C18.75 8.86708 19.04 8.94708 19.31 9.05708C19.35 9.06708 19.39 9.10708 19.41 9.14708C19.42 9.18708 19.43 9.22708 19.43 9.26708V10.8971C19.43 10.9371 19.41 10.9771 19.38 10.9971C19.29 11.0171 19.24 11.0171 19.2 10.9971V10.9971Z" fill="#31A8FF"/>
</g>
<defs>
<clipPath id="clip0_169_928">
<rect width="24" height="23.4048" fill="white" transform="translate(0 0.304688)"/>
</clipPath>
</defs>
</svg>
