<svg width="25" height="24" viewBox="0 0 25 24" fill="none" xmlns="http://www.w3.org/2000/svg">
<g clip-path="url(#clip0_157_2486)">
<path d="M18.1908 17.2441C18.3415 15.9889 18.2964 15.8048 19.2313 16.0082L19.4687 16.029C20.1876 16.0617 21.128 15.9134 21.6805 15.6567C22.8698 15.1049 23.5751 14.1835 22.4023 14.4256C19.7273 14.9774 19.5434 14.0716 19.5434 14.0716C22.3681 9.88047 23.5489 4.56018 22.5297 3.25788C19.7497 -0.29432 14.9375 1.38543 14.857 1.42905L14.8314 1.43378C14.3028 1.32411 13.7113 1.25859 13.0468 1.24784C11.8363 1.22795 10.9177 1.5652 10.2209 2.0937C10.2209 2.0937 1.63636 -1.44302 2.03573 6.54149C2.12067 8.24002 4.4704 19.394 7.2729 16.025C8.29719 14.793 9.28708 13.7514 9.28708 13.7514C9.77862 14.078 10.3671 14.2445 10.9843 14.1847L11.032 14.144C11.0171 14.297 11.0237 14.4466 11.0511 14.6237C10.3293 15.4304 10.5414 15.572 9.09801 15.8691C7.6377 16.1701 8.49563 16.7059 9.05562 16.8459C9.73469 17.0158 11.3056 17.2563 12.3674 15.7703L12.3251 15.9399C12.6083 16.1665 12.5891 17.5684 12.6293 18.57C12.6695 19.5717 12.7366 20.5064 12.9408 21.0575C13.1449 21.6085 13.3859 23.0281 15.2828 22.6215C16.8682 22.2818 18.0804 21.7928 18.1908 17.2441" fill="black"/>
<path d="M18.1908 17.2441C18.3415 15.9889 18.2964 15.8048 19.2313 16.0082L19.4687 16.029C20.1876 16.0617 21.128 15.9134 21.6805 15.6567C22.8698 15.1049 23.5751 14.1835 22.4023 14.4256C19.7273 14.9774 19.5434 14.0716 19.5434 14.0716C22.3681 9.88047 23.5489 4.56018 22.5297 3.25788C19.7497 -0.29432 14.9375 1.38543 14.857 1.42905L14.8314 1.43378C14.3028 1.32411 13.7113 1.25859 13.0468 1.24784C11.8363 1.22795 10.9177 1.5652 10.2209 2.0937C10.2209 2.0937 1.63636 -1.44302 2.03573 6.54149C2.12067 8.24002 4.4704 19.394 7.2729 16.025C8.29719 14.793 9.28708 13.7514 9.28708 13.7514C9.77862 14.078 10.3671 14.2445 10.9843 14.1847L11.032 14.144C11.0171 14.297 11.0237 14.4466 11.0511 14.6237C10.3293 15.4304 10.5414 15.572 9.09801 15.8691C7.6377 16.1701 8.49563 16.7059 9.05562 16.8459C9.73469 17.0158 11.3056 17.2563 12.3674 15.7703L12.3251 15.9399C12.6083 16.1665 12.5891 17.5684 12.6293 18.57C12.6695 19.5717 12.7366 20.5064 12.9408 21.0575C13.1449 21.6085 13.3859 23.0281 15.2828 22.6215C16.8682 22.2818 18.0804 21.7928 18.1908 17.2441" stroke="black" stroke-width="1.98888"/>
<path d="M22.4026 14.4255C19.7272 14.9773 19.5433 14.0715 19.5433 14.0715C22.368 9.88011 23.5489 4.55971 22.5298 3.25757C19.7498 -0.294411 14.9375 1.38545 14.8572 1.42906L14.8313 1.43369C14.3028 1.32397 13.7113 1.2586 13.0464 1.24775C11.8359 1.22791 10.9176 1.56511 10.2209 2.09351C10.2209 2.09351 1.63616 -1.44306 2.03542 6.5414C2.12036 8.24004 4.47003 19.394 7.27264 16.025C8.29699 14.7931 9.28672 13.7514 9.28672 13.7514C9.77831 14.078 10.3668 14.2446 10.9838 14.1847L11.0317 14.144C11.0168 14.297 11.0236 14.4466 11.0509 14.6237C10.3289 15.4304 10.541 15.572 9.09775 15.8691C7.63733 16.1701 8.49526 16.7059 9.05541 16.846C9.73448 17.0158 11.3055 17.2563 12.3671 15.7703L12.3247 15.9399C12.6076 16.1665 12.8063 17.4137 12.773 18.5443C12.7397 19.675 12.7174 20.4512 12.9403 21.0576C13.1632 21.6639 13.3854 23.0281 15.2827 22.6215C16.8681 22.2818 17.6897 21.4013 17.804 19.9327C17.8851 18.8887 18.0686 19.043 18.0802 18.1095L18.2274 17.6676C18.3972 16.2523 18.2544 15.7957 19.2312 16.0081L19.4685 16.0289C20.1874 16.0616 21.1283 15.9133 21.6806 15.6566C22.8697 15.1048 23.5749 14.1834 22.4024 14.4255H22.4026Z" fill="#336791"/>
<path d="M12.4819 15.2368C12.4083 17.8703 12.5005 20.5222 12.7581 21.1667C13.016 21.8112 13.5678 23.0647 15.4653 22.6582C17.0505 22.3184 17.6273 21.6607 17.8776 20.209C18.0619 19.1409 18.4173 16.1747 18.4629 15.5669" stroke="white" stroke-width="0.662961" stroke-linecap="round" stroke-linejoin="round"/>
<path d="M10.2076 2.03468C10.2076 2.03468 1.61707 -1.47641 2.01644 6.50805C2.10137 8.20668 4.45121 19.361 7.25376 15.9919C8.2779 14.7598 9.20412 13.7934 9.20412 13.7934" stroke="white" stroke-width="0.662961" stroke-linecap="round" stroke-linejoin="round"/>
<path d="M14.8478 1.3938C14.5505 1.48703 19.6264 -0.461787 22.5112 3.22428C23.5301 4.52647 22.3493 9.84687 19.5246 14.0384" stroke="white" stroke-width="0.662961" stroke-linecap="round" stroke-linejoin="round"/>
<path d="M19.5245 14.0385C19.5245 14.0385 19.7086 14.9445 22.384 14.3923C23.5562 14.1502 22.8507 15.0717 21.6619 15.6238C20.6862 16.0766 18.4987 16.1927 18.463 15.5669C18.371 13.9525 19.6143 14.443 19.5246 14.0385C19.4435 13.6741 18.8875 13.3166 18.5197 12.4249C18.1986 11.6467 14.1162 5.6784 19.6518 6.56479C19.8546 6.52283 18.2081 1.29933 13.0274 1.21439C7.84799 1.12946 8.01792 7.58398 8.01792 7.58398" stroke="white" stroke-width="0.662961" stroke-linecap="round" stroke-linejoin="bevel"/>
<path d="M11.032 14.5905C10.3099 15.3971 10.5223 15.5388 9.07887 15.836C7.61845 16.137 8.47649 16.6727 9.03648 16.8127C9.71555 16.9826 11.2866 17.2232 12.3481 15.7368C12.6714 15.2843 12.3462 14.5622 11.9022 14.3781C11.6876 14.2892 11.4007 14.1779 11.032 14.5905V14.5905Z" stroke="white" stroke-width="0.662961" stroke-linecap="round" stroke-linejoin="round"/>
<path d="M10.9848 14.5765C10.912 14.1022 11.1406 13.5379 11.3856 12.8776C11.7537 11.887 12.6032 10.8962 11.9237 7.7538C11.4172 5.4121 8.02006 7.26646 8.01793 7.58398C8.01586 7.90139 8.17159 9.19337 7.96119 10.6979C7.68664 12.6611 9.2104 14.3215 10.965 14.1516" stroke="white" stroke-width="0.662961" stroke-linecap="round" stroke-linejoin="round"/>
<path d="M10.1764 7.53636C10.1611 7.6448 10.375 7.93418 10.6538 7.97285C10.9322 8.01168 11.1705 7.78553 11.1856 7.67719C11.2007 7.56875 10.9871 7.44929 10.7081 7.41047C10.4296 7.37159 10.1912 7.42818 10.1765 7.53636H10.1764Z" fill="white" stroke="white" stroke-width="0.220985"/>
<path d="M18.6554 7.31527C18.6705 7.42371 18.4569 7.71309 18.178 7.75176C17.8995 7.79058 17.6612 7.56444 17.6459 7.4561C17.6312 7.34766 17.8448 7.2282 18.1235 7.18938C18.4021 7.15055 18.6403 7.20709 18.6554 7.31532V7.31527Z" fill="white" stroke="white" stroke-width="0.110493"/>
<path d="M19.6519 6.56476C19.6978 7.41541 19.4686 7.99481 19.4398 8.90034C19.397 10.2166 20.0673 11.7231 19.0573 13.2315" stroke="white" stroke-width="0.662961" stroke-linecap="round" stroke-linejoin="round"/>
</g>
<defs>
<clipPath id="clip0_157_2486">
<rect width="22.9799" height="23.6879" fill="white" transform="translate(1.00104)"/>
</clipPath>
</defs>
</svg>
