<svg width="24" height="24" viewBox="0 0 24 24" fill="none" xmlns="http://www.w3.org/2000/svg">
<g clip-path="url(#clip0_157_2491)">
<path d="M21.8684 18.474L13.9807 1.7234C13.781 1.30342 13.3672 1.02672 12.9028 1.00269C12.4373 0.971501 11.9931 1.20177 11.7504 1.60013L3.19531 15.4564C2.92972 15.8836 2.93531 16.4258 3.20965 16.8474L7.39228 23.3246C7.71726 23.8239 8.33201 24.05 8.90307 23.8802L21.041 20.2898C21.4108 20.1817 21.7155 19.9186 21.8764 19.5685C22.0351 19.2202 22.0324 18.8196 21.8689 18.4734L21.8684 18.474ZM20.1024 19.1924L9.80267 22.2381C9.48847 22.3315 9.18688 22.0592 9.25224 21.7421L12.932 4.12232C13.0008 3.79264 13.4561 3.74046 13.6 4.04549L20.412 18.5113C20.473 18.6417 20.4737 18.7923 20.4141 18.9234C20.3544 19.0544 20.2403 19.1527 20.1019 19.1924H20.1024Z" fill="black"/>
</g>
<defs>
<clipPath id="clip0_157_2491">
<rect width="18.9935" height="23" fill="white" transform="translate(3 1)"/>
</clipPath>
</defs>
</svg>
