<svg width="25" height="24" viewBox="0 0 25 24" fill="none" xmlns="http://www.w3.org/2000/svg">
<g clip-path="url(#clip0_157_2488)">
<path d="M21.8931 18.474L14.0054 1.7234C13.8058 1.30342 13.3919 1.02672 12.9275 1.00269C12.4621 0.971501 12.0179 1.20177 11.7751 1.60013L3.22003 15.4564C2.95444 15.8836 2.96003 16.4258 3.23436 16.8474L7.417 23.3246C7.74198 23.8239 8.35672 24.05 8.92779 23.8802L21.0657 20.2898C21.4355 20.1817 21.7402 19.9186 21.9011 19.5685C22.0598 19.2202 22.0571 18.8196 21.8937 18.4734L21.8931 18.474ZM20.1272 19.1924L9.82739 22.2381C9.51319 22.3315 9.2116 22.0592 9.27696 21.7421L12.9568 4.12232C13.0256 3.79264 13.4808 3.74046 13.6247 4.04549L20.4368 18.5113C20.4977 18.6417 20.4985 18.7923 20.4388 18.9234C20.3791 19.0544 20.265 19.1527 20.1266 19.1924H20.1272Z" fill="white"/>
</g>
<defs>
<clipPath id="clip0_157_2488">
<rect width="18.9935" height="23" fill="white" transform="translate(3.02472 1)"/>
</clipPath>
</defs>
</svg>
