<svg width="25" height="24" viewBox="0 0 25 24" fill="none" xmlns="http://www.w3.org/2000/svg">
<g clip-path="url(#clip0_507_754)">
<path fill-rule="evenodd" clip-rule="evenodd" d="M18.9007 1.96308C20.0428 1.96308 21.0768 2.42614 21.8253 3.17449C22.5737 3.92284 23.0368 4.95693 23.0368 6.09889V18.7879C23.0368 19.9299 22.5738 20.9639 21.8254 21.7124C21.4417 22.097 20.9858 22.402 20.4839 22.6099C19.982 22.8178 19.444 22.9244 18.9007 22.9237H6.09893C4.95686 22.9237 3.92288 22.4606 3.17441 21.7123C2.42595 20.9639 1.96289 19.9298 1.96289 18.7879V6.09889C1.96289 4.95682 2.42584 3.92284 3.1743 3.17437C3.55795 2.78975 4.01383 2.48474 4.51573 2.27686C5.01764 2.06899 5.55567 1.96235 6.09893 1.96308H18.9007Z" fill="#EC5990" stroke="white" stroke-width="1.92611"/>
<path fill-rule="evenodd" clip-rule="evenodd" d="M16.1127 6.84676H13.7483C13.575 6.30677 13.0707 5.94025 12.501 5.94025C11.9313 5.94025 11.427 6.30677 11.2537 6.84676H8.88763C7.95608 6.84676 7.20093 7.59817 7.20093 8.52508V17.2693C7.20093 18.1962 7.95608 18.9476 8.88763 18.9476H16.1127C17.0442 18.9476 17.7994 18.1962 17.7994 17.2693V8.52508C17.7994 7.59817 17.0442 6.84676 16.1127 6.84676ZM11.3716 7.15188C11.4072 7.15277 11.442 7.14121 11.47 7.11921C11.498 7.0972 11.5174 7.06612 11.5249 7.03133C11.6253 6.57292 12.0332 6.24593 12.5048 6.24593C12.9763 6.24593 13.3842 6.5728 13.4846 7.03133C13.4921 7.06612 13.5115 7.0972 13.5395 7.11921C13.5675 7.14121 13.6023 7.15277 13.6379 7.15188H14.4628V8.15131C14.4628 8.40408 14.2568 8.60904 14.0028 8.60904H11.0051C10.7511 8.60904 10.5451 8.40408 10.5451 8.15131V7.15188H11.3716ZM17.4927 17.2693C17.4927 18.0277 16.8749 18.6425 16.1127 18.6425H8.88763C8.12546 18.6425 7.50763 18.0277 7.50763 17.2693V8.52508C7.50763 7.76665 8.12546 7.15188 8.88763 7.15188H10.2385V8.15131C10.2385 8.57267 10.5818 8.91416 11.0052 8.91416H13.9952C14.4186 8.91416 14.7619 8.57256 14.7619 8.15131V7.15188H16.1128C16.875 7.15188 17.4928 7.76665 17.4928 8.52508L17.4927 17.2693ZM15.8121 11.833H13.1134C13.0933 11.833 13.0734 11.8369 13.0548 11.8445C13.0363 11.8522 13.0194 11.8634 13.0051 11.8776C12.9909 11.8917 12.9796 11.9086 12.9719 11.9271C12.9642 11.9457 12.9601 11.9655 12.9601 11.9856C12.9601 12.0057 12.9642 12.0256 12.9719 12.0441C12.9796 12.0627 12.9909 12.0795 13.0051 12.0937C13.0194 12.1078 13.0363 12.1191 13.0548 12.1267C13.0734 12.1344 13.0933 12.1383 13.1134 12.1382H15.8121C15.8322 12.1383 15.8521 12.1344 15.8707 12.1267C15.8892 12.1191 15.9061 12.1078 15.9204 12.0937C15.9346 12.0795 15.9459 12.0627 15.9536 12.0441C15.9614 12.0256 15.9654 12.0057 15.9654 11.9856C15.9654 11.9655 15.9614 11.9457 15.9536 11.9271C15.9459 11.9086 15.9346 11.8917 15.9204 11.8776C15.9061 11.8634 15.8892 11.8522 15.8707 11.8445C15.8521 11.8369 15.8322 11.833 15.8121 11.833ZM11.8255 11.833H9.12681C9.10672 11.833 9.08682 11.8369 9.06825 11.8445C9.04968 11.8522 9.03279 11.8634 9.01855 11.8776C9.00432 11.8917 8.99302 11.9086 8.98529 11.9271C8.97756 11.9457 8.97356 11.9655 8.97351 11.9856C8.97356 12.0057 8.97756 12.0256 8.98529 12.0441C8.99302 12.0627 9.00432 12.0795 9.01855 12.0937C9.03279 12.1078 9.04968 12.1191 9.06825 12.1267C9.08682 12.1344 9.10672 12.1383 9.12681 12.1382H11.8255C11.8456 12.1383 11.8655 12.1344 11.8841 12.1267C11.9026 12.1191 11.9195 12.1078 11.9338 12.0937C11.948 12.0795 11.9593 12.0627 11.967 12.0441C11.9748 12.0256 11.9788 12.0057 11.9788 11.9856C11.9788 11.9655 11.9748 11.9457 11.967 11.9271C11.9593 11.9086 11.948 11.8917 11.9338 11.8776C11.9195 11.8634 11.9026 11.8522 11.8841 11.8445C11.8655 11.8369 11.8456 11.833 11.8255 11.833ZM15.8198 15.5254H13.1135C13.0934 15.5253 13.0735 15.5292 13.055 15.5369C13.0364 15.5445 13.0195 15.5557 13.0053 15.5699C12.991 15.5841 12.9797 15.6009 12.972 15.6195C12.9643 15.638 12.9603 15.6579 12.9602 15.678C12.9603 15.6981 12.9643 15.7179 12.972 15.7365C12.9797 15.755 12.991 15.7719 13.0053 15.786C13.0195 15.8002 13.0364 15.8114 13.055 15.8191C13.0735 15.8267 13.0934 15.8306 13.1135 15.8306H15.8198C15.8399 15.8306 15.8598 15.8267 15.8784 15.8191C15.8969 15.8114 15.9138 15.8002 15.9281 15.786C15.9423 15.7719 15.9536 15.755 15.9613 15.7365C15.9691 15.7179 15.9731 15.6981 15.9731 15.678C15.9731 15.6579 15.9691 15.638 15.9613 15.6195C15.9536 15.6009 15.9423 15.5841 15.9281 15.5699C15.9138 15.5557 15.8969 15.5445 15.8784 15.5369C15.8598 15.5292 15.8399 15.5253 15.8198 15.5254ZM11.8331 15.5254H9.12681C9.10672 15.5253 9.08682 15.5292 9.06825 15.5369C9.04968 15.5445 9.03279 15.5557 9.01855 15.5699C9.00432 15.5841 8.99302 15.6009 8.98529 15.6195C8.97756 15.638 8.97356 15.6579 8.97351 15.678C8.97356 15.6981 8.97756 15.7179 8.98529 15.7365C8.99302 15.755 9.00432 15.7719 9.01855 15.786C9.03279 15.8002 9.04968 15.8114 9.06825 15.8191C9.08682 15.8267 9.10672 15.8306 9.12681 15.8306H11.8331C11.8532 15.8306 11.8731 15.8267 11.8917 15.8191C11.9102 15.8114 11.9271 15.8002 11.9414 15.786C11.9556 15.7719 11.9669 15.755 11.9746 15.7365C11.9824 15.7179 11.9864 15.6981 11.9864 15.678C11.9864 15.6579 11.9824 15.638 11.9746 15.6195C11.9669 15.6009 11.9556 15.5841 11.9414 15.5699C11.9271 15.5557 11.9102 15.5445 11.8917 15.5369C11.8731 15.5292 11.8532 15.5253 11.8331 15.5254Z" fill="white"/>
</g>
<defs>
<clipPath id="clip0_507_754">
<rect width="23" height="22.8867" fill="white" transform="translate(1 1)"/>
</clipPath>
</defs>
</svg>
