<svg width="24" height="24" viewBox="0 0 24 24" fill="none" xmlns="http://www.w3.org/2000/svg">
<path d="M12 14.0501C13.1321 14.0501 14.05 13.1323 14.05 12.0001C14.05 10.8679 13.1321 9.95007 12 9.95007C10.8678 9.95007 9.94995 10.8679 9.94995 12.0001C9.94995 13.1323 10.8678 14.0501 12 14.0501Z" fill="#61DAFB"/>
<path d="M12 16.2C18.0751 16.2 23 14.3196 23 12C23 9.68039 18.0751 7.79999 12 7.79999C5.92487 7.79999 1 9.68039 1 12C1 14.3196 5.92487 16.2 12 16.2Z" stroke="#61DAFB"/>
<path d="M8.36278 14.1C11.4003 19.3612 15.4913 22.6861 17.5001 21.5263C19.5089 20.3665 18.675 15.1612 15.6374 9.9C12.5998 4.63878 8.50891 1.31392 6.50008 2.47372C4.49126 3.63352 5.32521 8.83878 8.36278 14.1Z" stroke="#61DAFB"/>
<path d="M8.36278 9.90007C5.32521 15.1613 4.49126 20.3666 6.50008 21.5264C8.50891 22.6861 12.5998 19.3613 15.6374 14.1001C18.675 8.83885 19.5089 3.63359 17.5001 2.47379C15.4913 1.31399 11.4003 4.63885 8.36278 9.90007Z" stroke="#61DAFB"/>
</svg>
