<svg width="23" height="21" viewBox="0 0 23 21" fill="none" xmlns="http://www.w3.org/2000/svg">
<g clip-path="url(#clip0_20_98)">
<path d="M11.5 12.7941C12.6322 12.7941 13.55 11.8763 13.55 10.7441C13.55 9.61191 12.6322 8.69409 11.5 8.69409C10.3678 8.69409 9.45001 9.61191 9.45001 10.7441C9.45001 11.8763 10.3678 12.7941 11.5 12.7941Z" fill="#61DAFB"/>
<path d="M11.5 14.9442C17.5751 14.9442 22.5 13.0638 22.5 10.7442C22.5 8.42459 17.5751 6.54419 11.5 6.54419C5.42487 6.54419 0.5 8.42459 0.5 10.7442C0.5 13.0638 5.42487 14.9442 11.5 14.9442Z" stroke="#61DAFB"/>
<path d="M7.86269 12.8442C10.9003 18.1054 14.9912 21.4303 17 20.2705C19.0088 19.1107 18.1749 13.9054 15.1373 8.6442C12.0997 3.38298 8.00882 0.0581218 5.99999 1.21792C3.99116 2.37772 4.82512 7.58298 7.86269 12.8442Z" stroke="#61DAFB"/>
<path d="M7.86269 8.64415C4.82512 13.9054 3.99116 19.1106 5.99999 20.2704C8.00882 21.4302 12.0997 18.1054 15.1373 12.8442C18.1749 7.58293 19.0088 2.37767 17 1.21787C14.9912 0.058073 10.9003 3.38293 7.86269 8.64415Z" stroke="#61DAFB"/>
</g>
<defs>
<clipPath id="clip0_20_98">
<rect width="23" height="20.4635" fill="white" transform="translate(0 0.512451)"/>
</clipPath>
</defs>
</svg>
