<svg width="25" height="24" viewBox="0 0 25 24" fill="none" xmlns="http://www.w3.org/2000/svg">
<path d="M19.4476 7.64447C19.8479 5.70578 19.9338 4.21883 19.675 3.13909C19.5212 2.49693 19.2399 1.97306 18.8121 1.5951C18.3605 1.19607 17.7896 1.00026 17.1481 1.00026C16.0898 1.00026 14.9772 1.48236 13.7882 2.39822C13.3033 2.77178 12.7999 3.22205 12.2772 3.74929C12.2356 3.69578 12.1886 3.64531 12.1362 3.59867C10.6584 2.28311 9.41417 1.46574 8.35 1.15059C7.71724 0.9632 7.12316 0.945347 6.58216 1.12722C6.01111 1.31919 5.55609 1.71603 5.23507 2.27187C4.70526 3.18922 4.56554 4.39461 4.76306 5.88297C4.84358 6.48964 4.98122 7.15047 5.17569 7.8665C5.10232 7.87535 5.02877 7.8916 4.95596 7.9157C3.08093 8.53641 1.75321 9.2039 0.949375 9.96672C0.471114 10.4206 0.158805 10.9259 0.0459071 11.4852C-0.0732567 12.0755 0.0429376 12.6677 0.36359 13.2231C0.89241 14.1391 1.86475 14.8616 3.24998 15.4338C3.8062 15.6636 4.43553 15.8717 5.13866 16.0588C5.10658 16.1312 5.08169 16.2081 5.06504 16.2887C4.6648 18.2274 4.57891 19.7143 4.83762 20.7941C4.99149 21.4362 5.27279 21.9601 5.70054 22.338C6.15212 22.7371 6.72307 22.9329 7.3646 22.9329C8.42292 22.9329 9.53548 22.4508 10.7244 21.5349C11.2146 21.1574 11.7234 20.7015 12.2521 20.167C12.3065 20.252 12.3733 20.331 12.4523 20.4013C13.9302 21.7169 15.1744 22.5343 16.2385 22.8494C16.8713 23.0368 17.4654 23.0547 18.0064 22.8728C18.5774 22.6808 19.0324 22.284 19.3535 21.7281C19.8833 20.8108 20.023 19.6054 19.8255 18.117C19.742 17.4884 19.5973 16.8017 19.3915 16.0556C19.4719 16.0475 19.5527 16.0305 19.6326 16.0041C21.5076 15.3834 22.8353 14.7159 23.6391 13.9531C24.1174 13.4992 24.4297 12.9939 24.5426 12.4346C24.6618 11.8442 24.5456 11.2521 24.2249 10.6967C23.6961 9.78065 22.7238 9.05819 21.3385 8.48596C20.7657 8.24934 20.1154 8.03571 19.3868 7.84426C19.4128 7.78078 19.4333 7.71403 19.4476 7.64447Z" fill="#002C4B"/>
<path fill-rule="evenodd" clip-rule="evenodd" d="M10.4045 7.98822H14.1848C14.4166 7.98822 14.6306 8.1122 14.746 8.31324L16.6396 11.6132C16.754 11.8127 16.754 12.0579 16.6396 12.2573L14.746 15.5573C14.6306 15.7584 14.4166 15.8823 14.1848 15.8823H10.4045C10.1727 15.8823 9.95862 15.7584 9.84326 15.5573L7.94968 12.2573C7.83524 12.0579 7.83524 11.8127 7.94968 11.6132L9.84326 8.31324C9.95862 8.1122 10.1727 7.98822 10.4045 7.98822ZM13.7163 8.80048C13.9482 8.80048 14.1623 8.92459 14.2777 9.12579L15.7034 11.6135C15.8176 11.8128 15.8176 12.0577 15.7034 12.257L14.2777 14.7448C14.1623 14.946 13.9482 15.0701 13.7163 15.0701H10.873C10.6411 15.0701 10.4269 14.946 10.3116 14.7448L8.88586 12.257C8.77165 12.0577 8.77165 11.8128 8.88586 11.6135L10.3116 9.12579C10.4269 8.92459 10.6411 8.80048 10.873 8.80048H13.7163ZM13.2106 9.68888H11.3786C11.147 9.68888 10.933 9.81274 10.8176 10.0136L9.89879 11.613C9.78414 11.8125 9.78414 12.058 9.89879 12.2576L10.8176 13.8569C10.933 14.0578 11.147 14.1817 11.3786 14.1817H13.2106C13.4423 14.1817 13.6563 14.0578 13.7717 13.8569L14.6905 12.2576C14.8051 12.058 14.8051 11.8125 14.6905 11.613L13.7717 10.0136C13.6563 9.81274 13.4423 9.68888 13.2106 9.68888ZM12.7238 10.5392C12.9553 10.5392 13.1692 10.6629 13.2847 10.8635L13.7157 11.6125C13.8307 11.8123 13.8307 12.0582 13.7157 12.258L13.2847 13.007C13.1692 13.2077 12.9553 13.3313 12.7238 13.3313H11.8654C11.6339 13.3313 11.4201 13.2077 11.3046 13.007L10.8736 12.258C10.7586 12.0582 10.7586 11.8123 10.8736 11.6125L11.3046 10.8635C11.4201 10.6629 11.6339 10.5392 11.8654 10.5392H12.7238ZM12.2948 11.3769C12.0949 11.3769 11.9105 11.4833 11.8107 11.6561C11.7109 11.8288 11.7109 12.0417 11.8107 12.2145C11.9105 12.3873 12.0949 12.4937 12.2945 12.4937C12.4943 12.4937 12.6787 12.3873 12.7786 12.2145C12.8784 12.0417 12.8784 11.8288 12.7786 11.6561C12.6787 11.4833 12.4943 11.3769 12.2948 11.3769ZM7.76489 11.9354H8.77013Z" fill="#FFD94C"/>
<path fill-rule="evenodd" clip-rule="evenodd" d="M7.09968 13.7286C7.26938 13.6316 7.48479 13.6919 7.5808 13.8634L7.64222 13.9726C8.13447 14.8448 8.64729 15.6727 9.18067 16.4562C9.81056 17.3816 10.519 18.3183 11.3059 19.2665C11.4294 19.4154 11.4123 19.6367 11.2674 19.7644L11.1883 19.8338C8.58615 22.1074 6.8949 22.5615 6.11458 21.1962C5.35131 19.8607 5.62753 17.433 6.94324 13.913C6.97242 13.8349 7.02778 13.7697 7.09968 13.7286ZM18.1869 16.4053C18.3748 16.3721 18.5546 16.496 18.5914 16.6839L18.6112 16.7864C19.2543 20.1523 18.8015 21.8352 17.2528 21.8352C15.7379 21.8352 13.8095 20.3999 11.4677 17.5293C11.4157 17.4656 11.3877 17.3857 11.3884 17.3034C11.3901 17.1092 11.5483 16.9531 11.7418 16.9548L11.8652 16.9557C12.8514 16.9611 13.8102 16.9268 14.7415 16.853C15.8413 16.7659 16.9898 16.6166 18.1869 16.4053ZM19.0765 9.25794C19.1443 9.07557 19.3483 8.9799 19.5354 9.04274L19.6374 9.07722C22.9816 10.2164 24.2522 11.4683 23.4493 12.8329C22.664 14.1677 20.3805 15.1395 16.5987 15.7482C16.5148 15.7617 16.4288 15.7459 16.3555 15.7035C16.1827 15.6036 16.1251 15.3851 16.2269 15.2155L16.2917 15.1072C16.8078 14.2409 17.2742 13.3787 17.691 12.5207C18.1831 11.5075 18.645 10.4199 19.0765 9.25794ZM7.98979 8.25168C8.07367 8.23818 8.15971 8.25397 8.23295 8.29631C8.4058 8.39623 8.46339 8.61474 8.36157 8.78437L8.2968 8.89268C7.78072 9.75899 7.3143 10.6211 6.89753 11.4791C6.40536 12.4924 5.94349 13.5799 5.51194 14.7419C5.4442 14.9243 5.24021 15.0199 5.05306 14.9571L4.95109 14.9226C1.60693 13.7835 0.336289 12.5316 1.13916 11.1669C1.92449 9.8321 4.20803 8.86035 7.98979 8.25168ZM13.4002 4.16603C16.0023 1.89244 17.6936 1.4383 18.4739 2.80362C19.2372 4.1391 18.961 6.56684 17.6452 10.0868C17.6161 10.1649 17.5607 10.2302 17.4888 10.2713C17.3191 10.3683 17.1037 10.3079 17.0077 10.1365L16.9463 10.0272C16.454 9.15507 15.9412 8.3272 15.4078 7.54362C14.7779 6.61828 14.0695 5.68151 13.2826 4.73331C13.1591 4.58448 13.1762 4.36318 13.321 4.23548L13.4002 4.16603ZM7.46514 2.03522C8.98004 2.03522 10.9084 3.47052 13.2502 6.34113C13.3022 6.4048 13.3302 6.48473 13.3295 6.56702C13.3278 6.76125 13.1696 6.91732 12.9761 6.91563L12.8527 6.91475C11.8664 6.90938 10.9077 6.9436 9.97638 7.0174C8.8766 7.10455 7.72814 7.2538 6.531 7.46514C6.3431 7.49831 6.1633 7.37447 6.12652 7.18655L6.1067 7.08404C5.46358 3.71816 5.9164 2.03522 7.46514 2.03522Z" fill="#FF4154"/>
</svg>
