<svg width="25" height="24" viewBox="0 0 25 24" fill="none" xmlns="http://www.w3.org/2000/svg">
<g clip-path="url(#clip0_157_2500)">
<path d="M17.6047 16.9134C18.4904 16.8217 19.1623 16.0582 19.1317 15.1419C19.1013 14.2257 18.3377 13.4926 17.4215 13.4926H17.3604C16.4136 13.5232 15.6806 14.3173 15.7112 15.264C15.7417 15.7222 15.9249 16.1192 16.1998 16.3941C15.1614 18.4405 13.5733 19.937 11.1911 21.1892C9.57244 22.0444 7.89272 22.3499 6.213 22.1361C4.83862 21.9528 3.76969 21.342 3.09769 20.334C2.12044 18.8375 2.02884 17.2187 2.85347 15.6C3.43378 14.4394 4.3499 13.5842 4.93022 13.1566C4.80806 12.7596 4.62478 12.0877 4.53319 11.5991C0.104717 14.806 0.562873 19.1429 1.90669 21.1892C2.9145 22.7164 4.96078 23.6632 7.22081 23.6632C7.83159 23.6632 8.44237 23.6021 9.05325 23.4494C12.9625 22.6859 15.925 20.3646 17.6047 16.9134V16.9134ZM22.98 13.1262C20.6588 10.4079 17.2383 8.91135 13.329 8.91135H12.8404C12.5655 8.3616 11.9852 7.99504 11.3438 7.99504H11.2827C10.336 8.0256 9.60309 8.81967 9.63356 9.76654C9.66412 10.6828 10.4276 11.4158 11.3438 11.4158H11.4049C12.0768 11.3852 12.6571 10.9576 12.9014 10.3773H13.4512C15.7723 10.3773 17.9712 11.0492 19.9565 12.3626C21.4835 13.3705 22.583 14.6838 23.1937 16.2719C23.7129 17.5547 23.6824 18.8069 23.1326 19.876C22.2775 21.4947 20.8421 22.3804 18.9486 22.3804C17.7269 22.3804 16.5664 22.0139 15.9555 21.739C15.6196 22.0444 15.0087 22.533 14.5811 22.8386C15.8945 23.4494 17.2383 23.7854 18.521 23.7854C21.4529 23.7854 23.6213 22.1666 24.446 20.5479C25.3316 18.7764 25.2705 15.7222 22.98 13.1262V13.1262ZM7.46512 17.4325C7.49569 18.3488 8.25919 19.0817 9.1754 19.0817H9.23653C10.1833 19.0513 10.9162 18.2571 10.8857 17.3103C10.8552 16.394 10.0916 15.6611 9.1754 15.6611H9.11437C9.05325 15.6611 8.96156 15.6611 8.90062 15.6915C7.6484 13.6147 7.12922 11.3547 7.3125 8.91126C7.43456 7.07873 8.04544 5.49051 9.11437 4.17717C10 3.0471 11.7103 2.49735 12.8709 2.46688C16.1082 2.40576 17.4825 6.43729 17.5742 8.05607C17.9712 8.14767 18.6431 8.36151 19.1013 8.51423C18.7347 3.56648 15.6806 1.00092 12.7488 1.00092C10 1.00092 7.46512 2.98617 6.45722 5.9182C5.05237 9.82757 5.96859 13.5842 7.67887 16.5468C7.52625 16.7606 7.43456 17.0966 7.46512 17.4326V17.4325Z" fill="#764ABC"/>
</g>
<defs>
<clipPath id="clip0_157_2500">
<rect width="24" height="22.8768" fill="white" transform="translate(0.975281 1)"/>
</clipPath>
</defs>
</svg>
