<svg width="24" height="24" viewBox="0 0 24 24" fill="none" xmlns="http://www.w3.org/2000/svg">
<path fill-rule="evenodd" clip-rule="evenodd" d="M12 0.260803C18.4833 0.260803 23.7391 5.51663 23.7391 12C23.7391 18.4833 18.4833 23.7391 12 23.7391C5.51669 23.7392 0.260803 18.4834 0.260803 12C0.260803 5.51669 5.51669 0.260803 12 0.260803Z" fill="#CC6699"/>
<path d="M19.3636 5.28535C18.832 3.20043 15.375 2.51506 12.1031 3.6774C10.1559 4.36918 8.04792 5.45489 6.53232 6.87261C4.73021 8.55815 4.44284 10.0253 4.56124 10.6383C4.97907 12.8014 7.94295 14.2153 9.1613 15.2643V15.2706C8.80204 15.4475 6.17255 16.7783 5.55718 18.1387C4.90787 19.5739 5.6605 20.6039 6.15884 20.7424C7.70272 21.172 9.28712 20.3993 10.1386 19.1293C10.9602 17.9037 10.8918 16.3211 10.5347 15.5339C11.0272 15.4039 11.6015 15.3457 12.3313 15.4309C14.3906 15.6714 14.7946 16.9572 14.7174 17.4953C14.6401 18.0335 14.2082 18.3293 14.0638 18.4186C13.9194 18.508 13.8752 18.5389 13.8874 18.6053C13.905 18.7019 13.9718 18.6983 14.0949 18.6775C14.2644 18.6489 15.1763 18.2397 15.2152 17.2464C15.2648 15.9853 14.0563 14.5745 11.9164 14.6114C11.035 14.6267 10.4809 14.7104 10.0806 14.8594C10.051 14.8257 10.0208 14.7921 9.9897 14.7589C8.66678 13.3475 6.22107 12.349 6.32484 10.4515C6.36255 9.76169 6.60232 7.94518 11.0242 5.74175C14.6465 3.93678 17.5463 4.43352 18.0474 5.53426C18.7632 7.10695 16.4976 10.0299 12.7359 10.4515C11.3027 10.6122 10.548 10.0567 10.3603 9.84986C10.1627 9.63203 10.1332 9.6222 10.0594 9.66312C9.93924 9.72969 10.0154 9.92198 10.0594 10.0366C10.1718 10.3289 10.6326 10.8472 11.4184 11.1051C12.1096 11.3319 13.7923 11.4565 15.8274 10.6694C18.1066 9.7878 19.8864 7.33529 19.3636 5.28535ZM9.66707 15.9104C9.83781 16.5421 9.81912 17.1313 9.64267 17.6648C9.62307 17.7241 9.60152 17.7827 9.5781 17.8406C9.55461 17.8985 9.5293 17.9557 9.50204 18.0121C9.36598 18.2944 9.18347 18.5586 8.95987 18.8025C8.27775 19.5466 7.32484 19.828 6.91621 19.5909C6.47495 19.3351 6.69592 18.286 7.48678 17.4501C8.33747 16.5508 9.56152 15.9725 9.56152 15.9725L9.5597 15.9689C9.5949 15.9499 9.63072 15.9303 9.66707 15.9104Z" fill="white"/>
</svg>
