<svg width="24" height="24" viewBox="0 0 24 24" fill="none" xmlns="http://www.w3.org/2000/svg">
<g clip-path="url(#clip0_157_2429)">
<path d="M21.8496 1.38557C21.516 2.1865 21.0843 2.94281 20.5643 3.63712C19.4511 2.48422 18.1181 1.56656 16.6443 0.938445C15.1705 0.310327 13.5858 -0.0154923 11.984 -0.0197334C10.3822 -0.0239745 8.79578 0.293449 7.31868 0.913754C5.84158 1.53406 4.50377 2.44465 3.38442 3.59163C2.26507 4.73862 1.38691 6.0987 0.801913 7.59141C0.216913 9.08412 -0.0630477 10.6791 -0.0214027 12.2821C0.0202424 13.885 0.382647 15.4633 1.04437 16.9235C1.70609 18.3838 2.65368 19.6963 3.83108 20.7835L4.27598 21.1794C5.96432 22.6047 8.01381 23.5345 10.1975 23.8657C12.3812 24.197 14.6138 23.9167 16.6482 23.056C18.6826 22.1953 20.4393 20.7878 21.7238 18.9892C23.0083 17.1907 23.7704 15.0714 23.9258 12.866C24.2719 9.84743 23.3573 5.98763 21.8496 1.38557ZM5.56125 20.8825C5.43417 21.0388 5.26365 21.1539 5.07123 21.2133C4.87881 21.2726 4.67314 21.2735 4.48021 21.2159C4.28727 21.1583 4.11573 21.0447 3.98727 20.8895C3.85881 20.7343 3.77919 20.5444 3.75847 20.344C3.73775 20.1435 3.77687 19.9414 3.87087 19.7631C3.96488 19.5849 4.10956 19.4386 4.28662 19.3426C4.46368 19.2467 4.66518 19.2054 4.86566 19.2241C5.06614 19.2427 5.25659 19.3205 5.41295 19.4474C5.61793 19.6212 5.74782 19.8676 5.77546 20.1351C5.8031 20.4026 5.72635 20.6704 5.56125 20.8825V20.8825ZM21.7755 17.2949C18.8342 21.2289 12.5067 19.8928 8.47783 20.0907C8.47783 20.0907 7.76105 20.1402 7.04426 20.2392C7.04426 20.2392 7.31614 20.1155 7.66218 19.9918C10.5046 19.0021 11.8393 18.8041 13.5695 17.9134C16.8074 16.2557 20.0453 12.6186 20.6879 8.85774C19.4521 12.4701 15.6951 15.5876 12.2842 16.8495C9.93612 17.7155 5.70955 18.5567 5.70955 18.5567L5.53654 18.4577C2.66939 17.0474 2.57052 10.8124 7.81048 8.80825C10.1091 7.91753 12.2842 8.41238 14.7806 7.81856C17.4253 7.20001 20.4902 5.22062 21.726 2.62269C23.1102 6.80413 24.7909 13.2866 21.7755 17.2949Z" fill="#6DB33F"/>
</g>
<defs>
<clipPath id="clip0_157_2429">
<rect width="24" height="24" fill="white"/>
</clipPath>
</defs>
</svg>
