<svg width="25" height="24" viewBox="0 0 25 24" fill="none" xmlns="http://www.w3.org/2000/svg">
<mask id="mask0_507_674" style="mask-type:luminance" maskUnits="userSpaceOnUse" x="1" y="5" width="23" height="14">
<path d="M1 5H24V18.8H1V5Z" fill="white"/>
</mask>
<g mask="url(#mask0_507_674)">
<path fill-rule="evenodd" clip-rule="evenodd" d="M12.5 5C9.43333 5 7.51667 6.53333 6.75 9.6C7.9 8.06667 9.24167 7.49167 10.775 7.875C11.6499 8.0935 12.2751 8.72856 12.9672 9.43091C14.0947 10.5754 15.3997 11.9 18.25 11.9C21.3167 11.9 23.2333 10.3667 24 7.3C22.85 8.83333 21.5083 9.40833 19.975 9.025C19.1001 8.8065 18.4749 8.17144 17.7828 7.46909C16.6553 6.32463 15.3503 5 12.5 5ZM6.75 11.9C3.68333 11.9 1.76667 13.4333 1 16.5C2.15 14.9667 3.49167 14.3917 5.025 14.775C5.89985 14.9939 6.52511 15.6286 7.21724 16.3309C8.34467 17.4754 9.6497 18.8 12.5 18.8C15.5667 18.8 17.4833 17.2667 18.25 14.2C17.1 15.7333 15.7583 16.3083 14.225 15.925C13.3501 15.7065 12.7249 15.0714 12.0328 14.3691C10.9053 13.2246 9.6003 11.9 6.75 11.9Z" fill="#38BDF8"/>
</g>
</svg>
