<svg width="24" height="24" viewBox="0 0 24 24" fill="none" xmlns="http://www.w3.org/2000/svg">
<g clip-path="url(#clip0_168_802)">
<path d="M12.037 1.47021C13.129 1.47021 14.0995 2.2403 14.0995 3.18882C14.0995 4.13735 13.1755 4.90743 12.037 4.90743C11.9066 4.90743 11.737 4.88656 11.5273 4.84378C11.3644 4.81044 11.1949 4.83752 11.0504 4.91995L3.65635 9.12517C3.60348 9.15536 3.55956 9.19902 3.52907 9.25171C3.49857 9.3044 3.48259 9.36423 3.48275 9.42511C3.4829 9.48598 3.4992 9.54573 3.52997 9.59826C3.56074 9.65079 3.60489 9.69422 3.65791 9.72413L11.6734 14.2236C11.8816 14.3405 12.1351 14.341 12.3438 14.2252L20.4026 9.74552C20.456 9.7159 20.5005 9.67261 20.5316 9.62009C20.5627 9.56758 20.5792 9.50773 20.5796 9.4467C20.5799 9.38566 20.5639 9.32565 20.5334 9.27281C20.5029 9.21997 20.4588 9.17622 20.4057 9.14604L17.891 7.71908C17.6823 7.60065 17.4277 7.59908 17.2179 7.71543L14.5638 9.18778C14.531 9.20598 14.5031 9.23177 14.4823 9.26299C14.4615 9.29422 14.4485 9.32997 14.4443 9.36726L14.4433 9.3923C14.4433 10.3413 13.5193 11.1114 12.3809 11.1114C11.2424 11.1114 10.3184 10.3413 10.3184 9.3923C10.3184 8.44378 11.2424 7.67369 12.3809 7.67369C12.4231 7.67369 12.4717 7.6763 12.527 7.68048L12.6136 7.68935L12.7101 7.70134C12.8567 7.72117 13.0059 7.693 13.1358 7.62152L17.0614 5.4443C17.209 5.36239 17.3744 5.31798 17.5432 5.31498C17.7119 5.31197 17.8788 5.35047 18.0292 5.42708L18.071 5.449L23.5523 8.56117C24.2395 8.95091 24.2473 9.9323 23.581 10.3377L23.5445 10.3591L19.8767 12.3975C19.8227 12.4278 19.778 12.4721 19.747 12.5257C19.7161 12.5794 19.7002 12.6403 19.701 12.7022C19.7018 12.7641 19.7193 12.8246 19.7516 12.8774C19.7839 12.9302 19.8298 12.9733 19.8845 13.0022L23.5158 14.9123C24.2374 15.2916 24.2546 16.3179 23.5471 16.7212L12.5165 23.0071C12.3608 23.0958 12.1847 23.1425 12.0055 23.1425C11.8263 23.1425 11.6501 23.0958 11.4944 23.0071L0.526955 16.7467C-0.181566 16.3424 -0.16174 15.314 0.56139 14.9368L4.23287 13.0215C4.28781 12.9929 4.334 12.9499 4.36654 12.8972C4.39907 12.8445 4.41676 12.7839 4.41772 12.722C4.41868 12.66 4.40289 12.599 4.372 12.5452C4.34112 12.4915 4.29629 12.4472 4.24226 12.4168L0.526434 10.3309C-0.160697 9.94482 -0.175827 8.96761 0.484695 8.557L0.521216 8.53508L9.64748 3.34535C9.79162 3.26326 9.9013 3.13191 9.95635 2.97543L9.96783 2.93891C10.2887 1.98517 11.017 1.47021 12.037 1.47021V1.47021ZM17.1292 14.1313L12.623 16.7222L12.5812 16.7452C12.43 16.8231 12.2617 16.8623 12.0916 16.8591C11.9215 16.8559 11.7548 16.8105 11.6066 16.7269L7.11443 14.1944C7.015 14.1382 6.90308 14.1078 6.78889 14.106C6.6747 14.1042 6.56187 14.131 6.4607 14.184L3.8713 15.5379C3.81667 15.5666 3.77076 15.6094 3.73837 15.662C3.70598 15.7145 3.6883 15.7747 3.68718 15.8364C3.68606 15.8982 3.70154 15.959 3.732 16.0127C3.76247 16.0664 3.80679 16.1109 3.86035 16.1415L11.7715 20.6681C11.9823 20.7881 12.2405 20.7887 12.4513 20.6681L20.4308 16.1092C20.4844 16.0787 20.5289 16.0344 20.5595 15.9809C20.59 15.9274 20.6057 15.8666 20.6046 15.8049C20.6036 15.7433 20.586 15.683 20.5537 15.6305C20.5214 15.578 20.4755 15.5352 20.4209 15.5066L17.7897 14.1187C17.5821 14.0092 17.3332 14.0144 17.1292 14.1313V14.1313Z" fill="#6DD9F4"/>
</g>
<defs>
<clipPath id="clip0_168_802">
<rect width="24" height="24" fill="white"/>
</clipPath>
</defs>
</svg>
