<svg width="25" height="24" viewBox="0 0 25 24" fill="none" xmlns="http://www.w3.org/2000/svg">
<g clip-path="url(#clip0_157_2495)">
<path d="M21.681 0H2.36847C1.07405 0 0.0247192 1.04933 0.0247192 2.34375V21.6562C0.0247192 22.9507 1.07405 24 2.36847 24H21.681C22.9754 24 24.0247 22.9507 24.0247 21.6562V2.34375C24.0247 1.04933 22.9754 0 21.681 0Z" fill="#3178C6"/>
<path fill-rule="evenodd" clip-rule="evenodd" d="M14.8841 19.0781V21.4219C15.2638 21.6188 15.7278 21.7641 16.2435 21.8625C16.7591 21.9609 17.3216 22.0078 17.8841 22.0078C18.4466 22.0078 18.9622 21.9563 19.4778 21.8484C19.9935 21.7406 20.4153 21.5625 20.7903 21.3328C21.17 21.0844 21.4935 20.7703 21.681 20.3484C21.8685 19.9266 22.0138 19.4578 22.0138 18.8484C22.0138 18.4219 21.9482 18.0516 21.8216 17.7234C21.695 17.3953 21.5122 17.1141 21.2591 16.8797C21.02 16.6313 20.7435 16.4109 20.4153 16.2234C20.0872 16.0359 19.7122 15.8391 19.2903 15.6609C18.981 15.5344 18.7278 15.4125 18.4466 15.2906C18.2028 15.1688 17.9919 15.0469 17.8372 14.925C17.6638 14.7984 17.5325 14.6672 17.4388 14.5313C17.345 14.3906 17.2982 14.2359 17.2982 14.0625C17.2982 13.9031 17.3399 13.7578 17.4247 13.6266C17.5096 13.4953 17.6263 13.3875 17.7763 13.2938C17.9263 13.2 18.1138 13.1297 18.3388 13.0781C18.5591 13.0266 18.8028 13.0031 19.0888 13.0031C19.2857 13.0031 19.4919 13.0177 19.6982 13.0472C19.9138 13.0767 20.1341 13.1222 20.3544 13.1831C20.5747 13.2441 20.7903 13.3191 21.0107 13.4128C21.2169 13.5066 21.4091 13.6144 21.5732 13.7363V11.5331C21.2169 11.3972 20.8232 11.2941 20.4013 11.2284C19.9794 11.1628 19.5107 11.13 18.9482 11.13C18.3857 11.13 17.87 11.1909 17.3544 11.3081C16.8388 11.4253 16.4169 11.6128 16.0419 11.8706C15.6622 12.1238 15.3857 12.4331 15.1513 12.855C14.931 13.2488 14.8232 13.6988 14.8232 14.2613C14.8232 14.9644 15.0247 15.5738 15.4325 16.0425C15.8357 16.5581 16.4638 16.9331 17.2607 17.3081C17.5841 17.4394 17.87 17.5706 18.1513 17.6972C18.4325 17.8238 18.6669 17.955 18.8544 18.0909C19.056 18.2269 19.2153 18.3769 19.3232 18.5363C19.4403 18.6956 19.5013 18.8831 19.5013 19.0988C19.5013 19.2488 19.4647 19.3894 19.3935 19.5206C19.3222 19.6519 19.2107 19.7644 19.0607 19.8581C18.9107 19.9519 18.7278 20.0269 18.4982 20.0831C18.2778 20.1347 18.0294 20.1628 17.7013 20.1628C17.1857 20.1628 16.67 20.0738 16.2013 19.8956C15.6857 19.7175 15.2169 19.4503 14.795 19.0988L14.8841 19.0781ZM10.9466 13.3125H13.9466V11.3906H5.55597V13.3125H8.55597V21.8906H10.9466V13.3125Z" fill="white"/>
</g>
<defs>
<clipPath id="clip0_157_2495">
<rect x="0.0247192" width="24" height="24" rx="4" fill="white"/>
</clipPath>
</defs>
</svg>
