<svg width="15" height="15" viewBox="0 0 15 15" fill="none" xmlns="http://www.w3.org/2000/svg">
<path fill-rule="evenodd" clip-rule="evenodd" d="M1.375 7.2013C1.375 6.99826 1.45565 6.80354 1.59922 6.65998C1.74279 6.51641 1.93751 6.43576 2.14054 6.43576H11.0101L7.72285 3.15006C7.57911 3.00631 7.49835 2.81135 7.49835 2.60806C7.49835 2.40477 7.57911 2.20981 7.72285 2.06606C7.8666 1.92231 8.06156 1.84155 8.26486 1.84155C8.46815 1.84155 8.66311 1.92231 8.80686 2.06606L13.4001 6.65929C13.4714 6.73041 13.5279 6.81488 13.5665 6.90789C13.6051 7.0009 13.625 7.1006 13.625 7.2013C13.625 7.30199 13.6051 7.4017 13.5665 7.4947C13.5279 7.58771 13.4714 7.67219 13.4001 7.7433L8.80686 12.3365C8.66311 12.4803 8.46815 12.561 8.26486 12.561C8.06156 12.561 7.8666 12.4803 7.72285 12.3365C7.57911 12.1928 7.49835 11.9978 7.49835 11.7945C7.49835 11.5912 7.57911 11.3963 7.72285 11.2525L11.0101 7.96684H2.14054C1.93751 7.96684 1.74279 7.88618 1.59922 7.74262C1.45565 7.59905 1.375 7.40433 1.375 7.2013Z" fill="white"/>
</svg>
