<svg width="30" height="31" viewBox="0 0 30 31" fill="none" xmlns="http://www.w3.org/2000/svg">
<path d="M23.75 5.50098H6.25C5.25544 5.50098 4.30161 5.89606 3.59835 6.59933C2.89509 7.30259 2.5 8.25641 2.5 9.25098V21.751C2.5 22.7455 2.89509 23.6994 3.59835 24.4026C4.30161 25.1059 5.25544 25.501 6.25 25.501H23.75C24.7446 25.501 25.6984 25.1059 26.4017 24.4026C27.1049 23.6994 27.5 22.7455 27.5 21.751V9.25098C27.5 8.25641 27.1049 7.30259 26.4017 6.59933C25.6984 5.89606 24.7446 5.50098 23.75 5.50098ZM23.75 8.00098L15.625 13.5885C15.435 13.6982 15.2194 13.7559 15 13.7559C14.7806 13.7559 14.565 13.6982 14.375 13.5885L6.25 8.00098H23.75Z" fill="#3CDFB8"/>
</svg>
