<svg width="19" height="19" viewBox="0 0 19 19" fill="none" xmlns="http://www.w3.org/2000/svg">
<path fill-rule="evenodd" clip-rule="evenodd" d="M9.47248 0.744141C4.51835 0.744141 0.5 4.76249 0.5 9.71662C0.5 13.6799 3.08716 17.0377 6.61009 18.2487C7.05046 18.3038 7.2156 18.0285 7.2156 17.8084C7.2156 17.5882 7.2156 17.0377 7.2156 16.2671C4.73853 16.8175 4.18807 15.0561 4.18807 15.0561C3.80275 14.0102 3.19725 13.735 3.19725 13.735C2.37156 13.1845 3.25229 13.1845 3.25229 13.1845C4.13303 13.2396 4.62844 14.1203 4.62844 14.1203C5.45413 15.4964 6.72018 15.1111 7.2156 14.8909C7.27064 14.2854 7.54587 13.9001 7.76606 13.6799C5.7844 13.4597 3.69266 12.6891 3.69266 9.2212C3.69266 8.23038 4.02294 7.45974 4.62844 6.79919C4.57339 6.63405 4.24312 5.69827 4.73853 4.48726C4.73853 4.48726 5.50917 4.26708 7.2156 5.42304C7.93119 5.20286 8.70183 5.14781 9.47248 5.14781C10.2431 5.14781 11.0138 5.2579 11.7294 5.42304C13.4358 4.26708 14.2064 4.48726 14.2064 4.48726C14.7018 5.69827 14.3716 6.63405 14.3165 6.85423C14.867 7.45974 15.2523 8.28542 15.2523 9.27625C15.2523 12.7441 13.1606 13.4597 11.1789 13.6799C11.5092 13.9551 11.7844 14.5056 11.7844 15.3313C11.7844 16.5423 11.7844 17.4781 11.7844 17.8084C11.7844 18.0285 11.9495 18.3038 12.3899 18.2487C15.9679 17.0377 18.5 13.6799 18.5 9.71662C18.445 4.76249 14.4266 0.744141 9.47248 0.744141Z" fill="black"/>
</svg>
