<svg width="25" height="26" viewBox="0 0 25 26" fill="none" xmlns="http://www.w3.org/2000/svg">
<g clip-path="url(#clip0_70_1584)">
<path fill-rule="evenodd" clip-rule="evenodd" d="M14.312 6.08481L13.6113 4.21611L11.7426 3.51534L13.6113 2.81456L14.312 0.945862L15.0127 2.81456L16.8815 3.51534L15.0127 4.21611L14.312 6.08481ZM10.0847 25.3557H9.98829C8.66419 25.3457 7.35546 25.0714 6.13879 24.5492C4.92211 24.0268 3.82181 23.267 2.90233 22.314C1.19729 20.4902 0.228089 18.0993 0.181668 15.6028C0.135404 13.1062 1.01505 10.681 2.65124 8.79508C3.70544 7.61348 5.03048 6.70552 6.51282 6.14923C6.6858 6.08265 6.87431 6.06729 7.05577 6.10497C7.23721 6.14264 7.40392 6.23174 7.53613 6.36167C7.65862 6.48655 7.74486 6.64235 7.78564 6.81242C7.82642 6.98248 7.8203 7.16046 7.76777 7.3273C3.44386 12.8422 4.98374 19.6727 11.9676 20.252C12.6872 20.3117 13.278 20.3068 13.6697 20.2169C15.5719 19.7801 16.285 19.1253 16.8954 18.5649C17.2723 18.2186 17.6101 17.9084 18.165 17.708C18.338 17.6471 18.5246 17.6366 18.7033 17.678C18.8818 17.7194 19.045 17.8106 19.1736 17.9414C19.3022 18.072 19.391 18.2366 19.4294 18.4158C19.4679 18.5951 19.4546 18.7816 19.3911 18.9536C18.898 20.2705 18.1276 21.4659 17.1322 22.4589C16.2061 23.3822 15.1069 24.1137 13.8975 24.6107C12.6881 25.1079 11.3924 25.3611 10.0847 25.3557ZM12.4433 13.0925L13.6697 16.3627L14.8961 13.0925L18.1662 11.8661L14.8961 10.6398L13.6697 7.36955L12.4433 10.6398L9.1731 11.8661L12.4433 13.0925ZM22.1374 14.9612L22.6628 16.3627L23.1884 14.9612L24.5899 14.4356L23.1884 13.91L22.6628 12.5085L22.1374 13.91L20.7357 14.4356L22.1374 14.9612Z" fill="#031B4E"/>
</g>
<defs>
<clipPath id="clip0_70_1584">
<rect width="24.41" height="24.41" fill="white" transform="translate(0.179932 0.945862)"/>
</clipPath>
</defs>
</svg>
