<svg width="25" height="26" viewBox="0 0 25 26" fill="none" xmlns="http://www.w3.org/2000/svg">
<g clip-path="url(#clip0_71_1840)">
<path fill-rule="evenodd" clip-rule="evenodd" d="M12.3849 0.945831C12.7895 0.945831 13.1777 1.10657 13.4637 1.39268C13.7498 1.67879 13.9106 2.06684 13.9106 2.47146V3.99709C13.9106 4.40171 13.7498 4.78975 13.4637 5.07586C13.1777 5.36197 12.7895 5.52271 12.3849 5.52271C11.9803 5.52271 11.5923 5.36197 11.3062 5.07586C11.0201 4.78975 10.8593 4.40171 10.8593 3.99709V2.47146C10.8593 2.06684 11.0201 1.67879 11.3062 1.39268C11.5923 1.10657 11.9803 0.945831 12.3849 0.945831ZM18.4875 13.1508C18.4875 14.7694 17.8445 16.3216 16.7 17.4659C15.5557 18.6104 14.0035 19.2534 12.3849 19.2534C10.7665 19.2534 9.21427 18.6104 8.06983 17.4659C6.92538 16.3216 6.28244 14.7694 6.28244 13.1508C6.28244 11.5324 6.92538 9.98017 8.06983 8.83573C9.21427 7.69128 10.7665 7.04834 12.3849 7.04834C14.0035 7.04834 15.5557 7.69128 16.7 8.83573C17.8445 9.98017 18.4875 11.5324 18.4875 13.1508ZM17.7796 20.7027L18.8582 21.7813C19.1459 22.0592 19.5314 22.213 19.9313 22.2095C20.3313 22.206 20.714 22.0456 20.9968 21.7627C21.2797 21.4799 21.4401 21.0972 21.4436 20.6972C21.4471 20.2973 21.2933 19.9118 21.0154 19.6241L19.9368 18.5455C19.649 18.2676 19.2637 18.1138 18.8636 18.1173C18.4637 18.1207 18.081 18.2812 17.7981 18.564C17.5153 18.8469 17.3548 19.2296 17.3514 19.6295C17.3479 20.0296 17.5017 20.4149 17.7796 20.7027ZM21.0139 4.52038C21.2999 4.80647 21.4606 5.19446 21.4606 5.59899C21.4606 6.00354 21.2999 6.39151 21.0139 6.67761L19.9368 7.75623C19.7961 7.90195 19.6278 8.01817 19.4416 8.09813C19.2555 8.17808 19.0552 8.22017 18.8528 8.22192C18.6501 8.22369 18.4493 8.18509 18.2618 8.10838C18.0742 8.03167 17.9039 7.91839 17.7606 7.77514C17.6174 7.6319 17.5041 7.46155 17.4275 7.27406C17.3507 7.08657 17.3121 6.88567 17.3138 6.6831C17.3157 6.48053 17.3578 6.28034 17.4377 6.0942C17.5176 5.90807 17.6338 5.73973 17.7796 5.59899L18.8582 4.52038C19.1443 4.23436 19.5322 4.0737 19.9368 4.0737C20.3414 4.0737 20.7293 4.23436 21.0154 4.52038H21.0139ZM23.0643 14.6765C23.4689 14.6765 23.8571 14.5157 24.1431 14.2296C24.4292 13.9436 24.59 13.5554 24.59 13.1508C24.59 12.7462 24.4292 12.3582 24.1431 12.0721C23.8571 11.786 23.4689 11.6252 23.0643 11.6252H21.5387C21.1341 11.6252 20.746 11.786 20.4599 12.0721C20.1738 12.3582 20.0131 12.7462 20.0131 13.1508C20.0131 13.5554 20.1738 13.9436 20.4599 14.2296C20.746 14.5157 21.1341 14.6765 21.5387 14.6765H23.0643ZM12.3849 20.779C12.7895 20.779 13.1777 20.9397 13.4637 21.2258C13.7498 21.5119 13.9106 21.9 13.9106 22.3046V23.8302C13.9106 24.2348 13.7498 24.623 13.4637 24.909C13.1777 25.1951 12.7895 25.3559 12.3849 25.3559C11.9803 25.3559 11.5923 25.1951 11.3062 24.909C11.0201 24.623 10.8593 24.2348 10.8593 23.8302V22.3046C10.8593 21.9 11.0201 21.5119 11.3062 21.2258C11.5923 20.9397 11.9803 20.779 12.3849 20.779ZM4.83309 7.75623C4.97475 7.89798 5.14292 8.01044 5.32803 8.08718C5.51313 8.16394 5.71155 8.20348 5.91193 8.20354C6.11233 8.20362 6.31077 8.16422 6.49593 8.0876C6.68109 8.01097 6.84935 7.89864 6.99109 7.75699C7.13284 7.61535 7.24529 7.44717 7.32205 7.26206C7.3988 7.07695 7.43834 6.87854 7.43841 6.67815C7.43849 6.47777 7.39909 6.27933 7.32247 6.09416C7.24584 5.909 7.13351 5.74074 6.99186 5.59899L5.91171 4.52038C5.62398 4.24247 5.23859 4.0887 4.83859 4.09217C4.43857 4.09565 4.05593 4.2561 3.77306 4.53896C3.4902 4.82183 3.32975 5.20447 3.32628 5.60449C3.3228 6.00449 3.47657 6.38988 3.75448 6.67761L4.83309 7.75623ZM6.99033 20.7027L5.91171 21.7813C5.62398 22.0592 5.23859 22.213 4.83859 22.2095C4.43857 22.206 4.05593 22.0456 3.77306 21.7627C3.4902 21.4799 3.32975 21.0972 3.32628 20.6972C3.3228 20.2973 3.47657 19.9118 3.75448 19.6241L4.83309 18.5455C5.12083 18.2676 5.50621 18.1138 5.90622 18.1173C6.30624 18.1207 6.68888 18.2812 6.97174 18.564C7.25461 18.8469 7.41505 19.2296 7.41853 19.6295C7.42201 20.0296 7.26824 20.4149 6.99033 20.7027ZM3.23119 14.6765C3.63581 14.6765 4.02385 14.5157 4.30996 14.2296C4.59607 13.9436 4.75681 13.5554 4.75681 13.1508C4.75681 12.7462 4.59607 12.3582 4.30996 12.0721C4.02385 11.786 3.63581 11.6252 3.23119 11.6252H1.70556C1.30094 11.6252 0.912888 11.786 0.626777 12.0721C0.340667 12.3582 0.179932 12.7462 0.179932 13.1508C0.179932 13.5554 0.340667 13.9436 0.626777 14.2296C0.912888 14.5157 1.30094 14.6765 1.70556 14.6765H3.23119Z" fill="#FEF497"/>
</g>
<defs>
<clipPath id="clip0_71_1840">
<rect width="24.41" height="24.41" fill="white" transform="translate(0.179932 0.945831)"/>
</clipPath>
</defs>
</svg>
