<svg width="37" height="36" viewBox="0 0 37 36" fill="none" xmlns="http://www.w3.org/2000/svg">
<path d="M0.5 18C0.5 8.05888 8.55888 0 18.5 0C28.4411 0 36.5 8.05888 36.5 18C36.5 27.9411 28.4411 36 18.5 36C8.55888 36 0.5 27.9411 0.5 18Z" fill="#1157FF"/>
<path d="M14.7354 12.375C15.255 12.375 15.7346 12.415 16.1742 12.5349C16.6138 12.6148 16.9735 12.7747 17.2932 12.9745C17.6129 13.1743 17.8527 13.4541 18.0126 13.8137C18.1724 14.1734 18.2524 14.613 18.2524 15.0926C18.2524 15.6521 18.1325 16.1317 17.8527 16.4914C17.6129 16.8511 17.2133 17.1708 16.7337 17.4106C17.4131 17.6104 17.9326 17.9701 18.2524 18.4497C18.5721 18.9293 18.7719 19.5288 18.7719 20.2082C18.7719 20.7677 18.652 21.2473 18.4522 21.6469C18.2524 22.0466 17.9326 22.4063 17.573 22.646C17.2133 22.8858 16.7737 23.0857 16.2941 23.2056C15.8145 23.3255 15.3349 23.4054 14.8553 23.4054H9.5V12.375H14.7354ZM14.4157 16.8511C14.8553 16.8511 15.215 16.7312 15.4948 16.5314C15.7745 16.3316 15.8944 15.9719 15.8944 15.5322C15.8944 15.2925 15.8545 15.0527 15.7745 14.8928C15.6946 14.7329 15.5747 14.613 15.4148 14.4932C15.255 14.4132 15.0951 14.3333 14.8953 14.2933C14.6955 14.2534 14.4956 14.2534 14.2559 14.2534H11.9379V16.8511H14.4157ZM14.5356 21.567C14.7754 21.567 15.0152 21.527 15.215 21.4871C15.4148 21.4471 15.6147 21.3672 15.7745 21.2473C15.9344 21.1274 16.0543 21.0075 16.1742 20.8076C16.2541 20.6078 16.334 20.368 16.334 20.0883C16.334 19.5288 16.1742 19.1291 15.8545 18.8494C15.5347 18.6096 15.0951 18.4897 14.5756 18.4897H11.9379V21.567H14.5356ZM22.2489 21.527C22.5686 21.8467 23.0482 22.0066 23.6876 22.0066C24.1272 22.0066 24.5269 21.8867 24.8466 21.6869C25.1663 21.4471 25.3662 21.2073 25.4461 20.9675H27.4044C27.0847 21.9267 26.6051 22.6061 25.9656 23.0457C25.3262 23.4453 24.5669 23.6851 23.6477 23.6851C23.0082 23.6851 22.4487 23.5652 21.9292 23.3654C21.4096 23.1656 21.01 22.8858 20.6503 22.4862C20.2906 22.1265 20.0108 21.6869 19.851 21.1673C19.6512 20.6478 19.5712 20.0883 19.5712 19.4488C19.5712 18.8494 19.6512 18.2898 19.851 17.7703C20.0508 17.2507 20.3306 16.8111 20.6902 16.4115C21.0499 16.0518 21.4895 15.7321 21.9691 15.5322C22.4887 15.3324 23.0082 15.2125 23.6477 15.2125C24.3271 15.2125 24.9266 15.3324 25.4461 15.6122C25.9656 15.8919 26.3653 16.2117 26.685 16.6912C27.0047 17.1309 27.2445 17.6504 27.4044 18.2099C27.4843 18.7694 27.5243 19.3289 27.4843 19.9684H21.6894C21.6894 20.6078 21.9292 21.2073 22.2489 21.527ZM24.7667 17.3307C24.4869 17.0509 24.0473 16.8911 23.5278 16.8911C23.1681 16.8911 22.8883 16.971 22.6485 17.0909C22.4087 17.2108 22.2489 17.3706 22.089 17.5305C21.9292 17.6904 21.8492 17.8902 21.8093 18.09C21.7693 18.2898 21.7293 18.4497 21.7293 18.6096H25.3262C25.2463 18.0101 25.0464 17.6104 24.7667 17.3307ZM21.2498 13.1343H25.7259V14.2134H21.2498V13.1343Z" fill="white"/>
</svg>
