<svg width="36" height="36" viewBox="0 0 36 36" fill="none" xmlns="http://www.w3.org/2000/svg">
<path d="M0 18C0 27.9411 8.05888 36 18 36C27.9411 36 36 27.9411 36 18C36 8.05888 27.9411 0 18 0C8.05888 0 0 8.05888 0 18Z" fill="#EA4C89"/>
<path d="M18 9C13.032 9 9 13.032 9 18C9 22.968 13.032 27 18 27C22.95 27 27 22.968 27 18C27 13.032 22.95 9 18 9ZM23.94 13.14C25.02 14.454 25.65 16.11 25.686 17.928C25.434 17.874 22.896 17.37 20.34 17.676C20.286 17.55 20.232 17.406 20.178 17.28C20.016 16.902 19.854 16.524 19.674 16.164C22.482 15.03 23.778 13.356 23.94 13.14ZM18 10.332C19.944 10.332 21.744 11.07 23.094 12.258C22.95 12.456 21.798 14.004 19.062 15.03C17.802 12.708 16.398 10.818 16.2 10.53C16.776 10.404 17.37 10.332 18 10.332ZM14.724 11.052C14.922 11.322 16.29 13.23 17.568 15.498C13.968 16.452 10.8 16.434 10.458 16.434C10.98 14.04 12.582 12.06 14.724 11.052ZM10.314 18.018C10.314 17.946 10.314 17.856 10.314 17.784C10.638 17.802 14.382 17.838 18.216 16.686C18.432 17.118 18.648 17.55 18.846 18C18.756 18.036 18.648 18.054 18.54 18.09C14.58 19.368 12.474 22.86 12.294 23.148C11.052 21.78 10.314 19.98 10.314 18.018ZM18 25.686C16.218 25.686 14.58 25.074 13.284 24.066C13.428 23.778 14.976 20.772 19.314 19.26C19.332 19.242 19.35 19.242 19.368 19.242C20.448 22.05 20.898 24.39 21.006 25.074C20.088 25.47 19.062 25.686 18 25.686ZM22.284 24.372C22.212 23.904 21.798 21.654 20.79 18.9C23.202 18.522 25.308 19.152 25.578 19.224C25.236 21.366 24.012 23.22 22.284 24.372Z" fill="white"/>
</svg>
