<svg width="37" height="36" viewBox="0 0 37 36" fill="none" xmlns="http://www.w3.org/2000/svg">
<path d="M0.5 18C0.5 27.9411 8.55888 36 18.5 36C28.4411 36 36.5 27.9411 36.5 18C36.5 8.05888 28.4411 0 18.5 0C8.55888 0 0.5 8.05888 0.5 18Z" fill="#0088CC"/>
<path d="M9.61241 17.6718C14.4442 15.5667 17.6662 14.1788 19.2783 13.5083C23.8813 11.5938 24.8377 11.2612 25.4611 11.2501C25.5982 11.2478 25.9048 11.2818 26.1034 11.4429C26.2711 11.579 26.3172 11.7628 26.3393 11.8918C26.3614 12.0208 26.3889 12.3147 26.367 12.5443C26.1176 15.1651 25.0383 21.5252 24.4892 24.4606C24.2568 25.7026 23.7994 26.1191 23.3565 26.1598C22.3939 26.2484 21.663 25.5237 20.7308 24.9126C19.272 23.9564 18.4479 23.3611 17.0319 22.428C15.3955 21.3496 16.4563 20.7569 17.3889 19.7883C17.633 19.5348 21.8738 15.6774 21.9559 15.3275C21.9662 15.2837 21.9757 15.1206 21.8788 15.0344C21.7819 14.9483 21.6389 14.9777 21.5356 15.0012C21.3893 15.0344 19.0589 16.5747 14.5444 19.6221C13.8829 20.0764 13.2837 20.2977 12.7469 20.2861C12.1551 20.2733 11.0167 19.9515 10.1705 19.6764C9.13249 19.339 8.30752 19.1606 8.37936 18.5876C8.41678 18.2891 8.82779 17.9838 9.61241 17.6718Z" fill="white"/>
</svg>
