<svg width="37" height="36" viewBox="0 0 37 36" fill="none" xmlns="http://www.w3.org/2000/svg">
<path d="M0.5 18C0.5 27.9411 8.55888 36 18.5 36C28.4411 36 36.5 27.9411 36.5 18C36.5 8.05888 28.4411 0 18.5 0C8.55888 0 0.5 8.05888 0.5 18Z" fill="#1DA1F2"/>
<path d="M27.5 12.375C26.825 12.7125 26.15 12.825 25.3625 12.9375C26.15 12.4875 26.7125 11.8125 26.9375 10.9125C26.2625 11.3625 25.475 11.5875 24.575 11.8125C23.9 11.1375 22.8875 10.6875 21.875 10.6875C19.5125 10.6875 17.7125 12.9375 18.275 15.1875C15.2375 15.075 12.5375 13.6125 10.625 11.3625C9.6125 13.05 10.175 15.1875 11.75 16.3125C11.1875 16.3125 10.625 16.0875 10.0625 15.8625C10.0625 17.55 11.3 19.125 12.9875 19.575C12.425 19.6875 11.8625 19.8 11.3 19.6875C11.75 21.15 13.1 22.275 14.7875 22.275C13.4375 23.2875 11.4125 23.85 9.5 23.625C11.1875 24.6375 13.1 25.3125 15.125 25.3125C21.9875 25.3125 25.8125 19.575 25.5875 14.2875C26.375 13.8375 27.05 13.1625 27.5 12.375Z" fill="white"/>
</svg>
