<svg width="262" height="56" viewBox="0 0 262 56" fill="none" xmlns="http://www.w3.org/2000/svg">
<path d="M21.2263 55.1668H1.79695C0.804524 55.1668 0 54.3622 0 53.3698V1.79695C0 0.804524 0.804522 0 1.79695 0H21.0108C26.6855 0 31.588 1.10441 35.7183 3.31324C39.8666 5.5041 43.0631 8.6647 45.3078 12.795C47.5705 16.9074 48.7019 21.8368 48.7019 27.5834C48.7019 33.3299 47.5795 38.2683 45.3348 42.3987C43.09 46.511 39.9115 49.6716 35.7991 51.8804C31.6868 54.0713 26.8291 55.1668 21.2263 55.1668ZM17.1465 39.574C16.254 40.7581 17.0987 42.4525 18.5815 42.4525H20.6875C23.4171 42.4525 25.7427 42.0126 27.6642 41.1326C29.6036 40.2527 31.0762 38.7352 32.0818 36.5803C33.1054 34.4253 33.6172 31.4264 33.6172 27.5834C33.6172 23.7404 33.0965 20.7414 32.0549 18.5865C31.0313 16.4315 29.5228 14.9141 27.5295 14.0341C25.5541 13.1542 23.1298 12.7142 20.2565 12.7142H16.7739C15.7814 12.7142 14.9769 13.5187 14.9769 14.5112V25.7864C14.9769 26.7789 15.7814 27.5834 16.7739 27.5834H22.5793C24.062 27.5834 24.9068 29.2778 24.0143 30.4619L17.1465 39.574Z" fill="url(#paint0_linear_502_415)"/>
<path d="M79.4639 13.47C80.8979 13.47 82.2312 13.7845 83.4639 14.4134C84.6966 15.0172 85.7658 15.8474 86.6715 16.904C87.6023 17.9606 88.3319 19.1933 88.8602 20.6021C89.3885 22.0109 89.6526 23.5204 89.6526 25.1304C89.6526 26.7405 89.3885 28.2625 88.8602 29.6965C88.3319 31.1053 87.6023 32.338 86.6715 33.3946C85.7658 34.4512 84.6841 35.294 83.4262 35.9229C82.1935 36.5267 80.8727 36.8286 79.4639 36.8286H69.011V13.47H79.4639ZM78.7092 32.7531C79.5897 32.7531 80.4073 32.5519 81.162 32.1493C81.9167 31.7468 82.5708 31.1934 83.1243 30.489C83.6778 29.7846 84.1054 28.9795 84.4073 28.0739C84.7344 27.143 84.8979 26.1619 84.8979 25.1304C84.8979 24.099 84.7344 23.1304 84.4073 22.2248C84.1054 21.2939 83.6778 20.4889 83.1243 19.8097C82.5708 19.1053 81.9167 18.5518 81.162 18.1493C80.4073 17.7216 79.5897 17.5078 78.7092 17.5078H73.7658V32.7531H78.7092ZM91.6025 28.338C91.6025 27.1305 91.8415 25.9984 92.3195 24.9418C92.8226 23.8852 93.4893 22.9669 94.3195 22.187C95.1497 21.382 96.1308 20.7531 97.2629 20.3002C98.395 19.8474 99.6025 19.621 100.886 19.621C102.169 19.621 103.364 19.8474 104.47 20.3002C105.603 20.7531 106.584 21.382 107.414 22.187C108.244 22.9669 108.898 23.8852 109.376 24.9418C109.879 25.9984 110.131 27.1305 110.131 28.338C110.131 29.5456 109.879 30.6776 109.376 31.7342C108.898 32.7909 108.244 33.7217 107.414 34.5267C106.584 35.3066 105.603 35.9229 104.47 36.3758C103.364 36.8286 102.169 37.055 100.886 37.055C99.6025 37.055 98.395 36.8286 97.2629 36.3758C96.1308 35.9229 95.1497 35.3066 94.3195 34.5267C93.4893 33.7217 92.8226 32.7909 92.3195 31.7342C91.8415 30.6776 91.6025 29.5456 91.6025 28.338ZM100.886 23.2059C100.206 23.2059 99.5648 23.3443 98.961 23.621C98.3824 23.8726 97.8667 24.2374 97.4138 24.7153C96.9862 25.1682 96.6465 25.7091 96.395 26.338C96.1434 26.9669 96.0176 27.6336 96.0176 28.338C96.0176 29.0424 96.1434 29.7091 96.395 30.338C96.6465 30.9669 96.9862 31.5204 97.4138 31.9984C97.8667 32.4512 98.3824 32.816 98.961 33.0927C99.5648 33.3443 100.206 33.4701 100.886 33.4701C101.565 33.4701 102.194 33.3443 102.772 33.0927C103.376 32.816 103.892 32.4512 104.32 31.9984C104.772 31.5204 105.125 30.9669 105.376 30.338C105.628 29.7091 105.754 29.0424 105.754 28.338C105.754 27.6084 105.615 26.9292 105.338 26.3003C105.087 25.6713 104.735 25.1304 104.282 24.6776C103.829 24.2248 103.301 23.8726 102.697 23.621C102.118 23.3443 101.514 23.2059 100.886 23.2059ZM121.256 37.055C120.048 37.055 118.903 36.8412 117.822 36.4135C116.765 35.9858 115.822 35.3946 114.991 34.6399C114.186 33.86 113.545 32.9418 113.067 31.8852C112.589 30.8034 112.35 29.621 112.35 28.338C112.35 27.0298 112.589 25.8474 113.067 24.7908C113.545 23.7091 114.186 22.7908 114.991 22.0361C115.822 21.2562 116.778 20.665 117.859 20.2625C118.941 19.8348 120.073 19.621 121.256 19.621C123.218 19.621 124.941 20.1367 126.425 21.1682C127.935 22.1996 128.992 23.7216 129.595 25.7342L125.407 25.8474C125.054 24.9166 124.488 24.2499 123.708 23.8474C122.954 23.4197 122.186 23.2059 121.407 23.2059C120.652 23.2059 119.985 23.3568 119.407 23.6587C118.853 23.9355 118.375 24.3254 117.973 24.8286C117.57 25.3065 117.268 25.8474 117.067 26.4512C116.866 27.055 116.765 27.6839 116.765 28.338C116.765 29.0424 116.878 29.7091 117.105 30.338C117.331 30.9418 117.646 31.4827 118.048 31.9607C118.451 32.4135 118.929 32.7783 119.482 33.055C120.061 33.3317 120.702 33.4701 121.407 33.4701C122.363 33.4701 123.18 33.2311 123.859 32.7531C124.564 32.25 125.08 31.5707 125.407 30.7154L129.633 30.8663C128.979 32.8789 127.91 34.4135 126.425 35.4701C124.941 36.5267 123.218 37.055 121.256 37.055ZM136.611 29.772C136.611 30.1493 136.712 30.5141 136.913 30.8663C137.14 31.2185 137.454 31.533 137.857 31.8097C138.259 32.0865 138.737 32.3129 139.291 32.489C139.869 32.6651 140.511 32.7531 141.215 32.7531C141.794 32.7531 142.347 32.6902 142.876 32.5644C143.429 32.4135 143.92 32.2122 144.347 31.9607C144.775 31.7091 145.115 31.3946 145.366 31.0173C145.643 30.6399 145.781 30.2248 145.781 29.772C145.781 28.9418 145.442 28.3128 144.762 27.8852C144.108 27.4575 143.266 27.1179 142.234 26.8663C141.228 26.5896 140.134 26.338 138.951 26.1116C137.794 25.8852 136.7 25.5455 135.668 25.0927C134.662 24.6399 133.819 24.0235 133.14 23.2436C132.486 22.4638 132.159 21.382 132.159 19.9983C132.159 19.0424 132.398 18.1744 132.876 17.3946C133.354 16.5895 134.008 15.8977 134.838 15.3191C135.668 14.7405 136.624 14.2876 137.706 13.9606C138.813 13.6335 139.983 13.47 141.215 13.47C142.473 13.47 143.643 13.6461 144.725 13.9983C145.832 14.3505 146.788 14.8285 147.593 15.4323C148.423 16.0361 149.077 16.753 149.555 17.5832C150.033 18.3883 150.272 19.2688 150.272 20.2248H145.517C145.517 19.4952 145.115 18.8663 144.31 18.338C143.53 17.7845 142.498 17.5078 141.215 17.5078C140.662 17.5078 140.121 17.5707 139.593 17.6964C139.089 17.8222 138.637 17.9983 138.234 18.2247C137.832 18.4512 137.505 18.7279 137.253 19.0549C137.027 19.382 136.913 19.7593 136.913 20.187C136.913 20.9921 137.253 21.5958 137.932 21.9984C138.612 22.4009 139.454 22.7405 140.461 23.0172C141.467 23.2688 142.561 23.5078 143.744 23.7342C144.926 23.9606 146.02 24.3128 147.027 24.7908C148.033 25.2436 148.876 25.8726 149.555 26.6776C150.234 27.4827 150.574 28.5896 150.574 29.9984C150.574 31.0802 150.285 32.0487 149.706 32.9041C149.152 33.7343 148.423 34.4387 147.517 35.0173C146.637 35.5959 145.643 36.0487 144.536 36.3758C143.429 36.6777 142.322 36.8286 141.215 36.8286C139.932 36.8286 138.725 36.6525 137.593 36.3003C136.461 35.9229 135.467 35.4198 134.611 34.7909C133.756 34.1619 133.077 33.4198 132.574 32.5644C132.096 31.7091 131.857 30.7783 131.857 29.772H136.611ZM152.738 23.1682V19.8474H154.927V15.0927H159.342V19.8474H164.021V23.1682H159.342V29.9229C159.342 30.8537 159.619 31.5707 160.172 32.0739C160.726 32.5519 161.405 32.8034 162.21 32.8286C162.487 32.8286 162.726 32.816 162.927 32.7909C163.128 32.7405 163.242 32.7028 163.267 32.6776L164.286 36.489C164.235 36.5141 163.971 36.577 163.493 36.6777C163.015 36.7783 162.512 36.8286 161.984 36.8286C159.795 36.8286 158.072 36.25 156.814 35.0928C155.581 33.9104 154.952 32.2122 154.927 29.9984V23.1682H152.738ZM166.079 28.338C166.079 27.1305 166.318 25.9984 166.796 24.9418C167.3 23.8852 167.966 22.9669 168.796 22.187C169.627 21.382 170.608 20.7531 171.74 20.3002C172.872 19.8474 174.08 19.621 175.363 19.621C176.646 19.621 177.841 19.8474 178.947 20.3002C180.08 20.7531 181.061 21.382 181.891 22.187C182.721 22.9669 183.375 23.8852 183.853 24.9418C184.356 25.9984 184.608 27.1305 184.608 28.338C184.608 29.5456 184.356 30.6776 183.853 31.7342C183.375 32.7909 182.721 33.7217 181.891 34.5267C181.061 35.3066 180.08 35.9229 178.947 36.3758C177.841 36.8286 176.646 37.055 175.363 37.055C174.08 37.055 172.872 36.8286 171.74 36.3758C170.608 35.9229 169.627 35.3066 168.796 34.5267C167.966 33.7217 167.3 32.7909 166.796 31.7342C166.318 30.6776 166.079 29.5456 166.079 28.338ZM175.363 23.2059C174.683 23.2059 174.042 23.3443 173.438 23.621C172.859 23.8726 172.344 24.2374 171.891 24.7153C171.463 25.1682 171.124 25.7091 170.872 26.338C170.62 26.9669 170.495 27.6336 170.495 28.338C170.495 29.0424 170.62 29.7091 170.872 30.338C171.124 30.9669 171.463 31.5204 171.891 31.9984C172.344 32.4512 172.859 32.816 173.438 33.0927C174.042 33.3443 174.683 33.4701 175.363 33.4701C176.042 33.4701 176.671 33.3443 177.249 33.0927C177.853 32.816 178.369 32.4512 178.797 31.9984C179.249 31.5204 179.602 30.9669 179.853 30.338C180.105 29.7091 180.23 29.0424 180.23 28.338C180.23 27.6084 180.092 26.9292 179.815 26.3003C179.564 25.6713 179.212 25.1304 178.759 24.6776C178.306 24.2248 177.778 23.8726 177.174 23.621C176.595 23.3443 175.991 23.2059 175.363 23.2059ZM187.746 19.8474H192.123V22.4512C192.425 21.9983 192.777 21.621 193.18 21.3191C193.607 20.9921 194.06 20.7279 194.538 20.5266C195.016 20.3002 195.507 20.1493 196.01 20.0738C196.513 19.9732 197.004 19.9229 197.482 19.9229C198.438 19.9229 199.192 20.0738 199.746 20.3757L197.633 24.3757C197.255 24.1996 196.815 24.1116 196.312 24.1116C195.784 24.1116 195.268 24.2248 194.765 24.4512C194.262 24.6776 193.809 24.9795 193.406 25.3569C193.029 25.7342 192.714 26.1871 192.463 26.7154C192.236 27.2185 192.123 27.7594 192.123 28.338V36.8286H187.746V19.8474ZM200.426 28.338C200.426 27.1053 200.64 25.9606 201.068 24.904C201.495 23.8223 202.074 22.8914 202.803 22.1116C203.558 21.3317 204.439 20.7279 205.445 20.3002C206.476 19.8474 207.596 19.621 208.803 19.621C209.936 19.621 210.98 19.8726 211.936 20.3757C212.892 20.8788 213.684 21.5581 214.313 22.4134V19.8474H218.728V36.8286H214.313V34.2626C213.659 35.1179 212.854 35.7972 211.898 36.3003C210.967 36.8035 209.936 37.055 208.803 37.055C207.596 37.055 206.476 36.8412 205.445 36.4135C204.439 35.9607 203.558 35.3443 202.803 34.5645C202.049 33.7846 201.457 32.8663 201.03 31.8097C200.627 30.728 200.426 29.5707 200.426 28.338ZM204.841 28.338C204.841 29.0927 204.967 29.7971 205.219 30.4512C205.47 31.1053 205.81 31.6839 206.237 32.1871C206.665 32.6651 207.156 33.0424 207.709 33.3192C208.288 33.5959 208.904 33.7343 209.558 33.7343C210.086 33.7343 210.627 33.6336 211.181 33.4324C211.734 33.206 212.237 32.8789 212.69 32.4512C213.168 31.9984 213.558 31.4324 213.86 30.7531C214.162 30.0739 214.313 29.2688 214.313 28.338C214.313 27.5833 214.187 26.8915 213.936 26.2625C213.709 25.6084 213.382 25.0424 212.954 24.5644C212.552 24.0613 212.049 23.6713 211.445 23.3946C210.866 23.1179 210.237 22.9795 209.558 22.9795C208.904 22.9795 208.288 23.1179 207.709 23.3946C207.156 23.6713 206.665 24.0613 206.237 24.5644C205.81 25.0424 205.47 25.6084 205.219 26.2625C204.967 26.9166 204.841 27.6084 204.841 28.338ZM221.763 28.338C221.763 27.1556 221.99 26.0487 222.442 25.0172C222.92 23.9606 223.549 23.0424 224.329 22.2625C225.134 21.4826 226.078 20.8663 227.159 20.4134C228.241 19.9606 229.386 19.7342 230.593 19.7342C231.65 19.7342 232.606 19.9606 233.461 20.4134C234.342 20.8663 235.071 21.4575 235.65 22.187V19.8474H239.952V35.8097C239.952 37.0928 239.713 38.25 239.235 39.2815C238.757 40.3129 238.103 41.1808 237.273 41.8852C236.468 42.6148 235.512 43.1683 234.405 43.5456C233.323 43.9481 232.178 44.1494 230.971 44.1494C229.738 44.1494 228.644 43.9733 227.688 43.6211C226.732 43.2689 225.902 42.8161 225.197 42.2626C224.493 41.7343 223.901 41.1431 223.424 40.489C222.971 39.8349 222.631 39.206 222.405 38.6022L227.046 38.3003C227.348 38.8789 227.826 39.3318 228.48 39.6588C229.159 40.011 229.939 40.1871 230.82 40.1871C231.675 40.1871 232.405 40.0613 233.008 39.8098C233.637 39.5582 234.141 39.2311 234.518 38.8286C234.92 38.4513 235.21 38.011 235.386 37.5079C235.562 37.0299 235.65 36.5519 235.65 36.0739V34.489C235.071 35.2185 234.342 35.8097 233.461 36.2626C232.606 36.7154 231.65 36.9418 230.593 36.9418C229.386 36.9418 228.241 36.7154 227.159 36.2626C226.078 35.8097 225.134 35.1934 224.329 34.4135C223.549 33.6085 222.92 32.6902 222.442 31.6588C221.99 30.6022 221.763 29.4952 221.763 28.338ZM230.895 23.055C230.266 23.055 229.663 23.1933 229.084 23.4701C228.53 23.7468 228.04 24.1241 227.612 24.6021C227.185 25.0801 226.832 25.6462 226.556 26.3003C226.304 26.9292 226.178 27.6084 226.178 28.338C226.178 29.0173 226.291 29.6713 226.518 30.3003C226.769 30.9292 227.096 31.4953 227.499 31.9984C227.927 32.4764 228.43 32.8663 229.008 33.1682C229.587 33.4449 230.216 33.5833 230.895 33.5833C231.549 33.5833 232.166 33.4701 232.744 33.2437C233.323 32.9921 233.826 32.6399 234.254 32.1871C234.681 31.7342 235.021 31.1934 235.273 30.5644C235.524 29.9103 235.65 29.1682 235.65 28.338C235.65 27.5581 235.524 26.8411 235.273 26.1871C235.021 25.533 234.681 24.9795 234.254 24.5267C233.826 24.0487 233.323 23.6839 232.744 23.4323C232.166 23.1807 231.549 23.055 230.895 23.055ZM242.768 28.338C242.768 27.1305 243.007 25.9984 243.485 24.9418C243.988 23.8852 244.654 22.9669 245.485 22.187C246.315 21.382 247.283 20.7531 248.39 20.3002C249.522 19.8474 250.717 19.621 251.975 19.621C253.409 19.621 254.717 19.8851 255.9 20.4134C257.082 20.9166 258.076 21.621 258.881 22.5267C259.711 23.4072 260.302 24.4386 260.654 25.621C261.032 26.7782 261.132 28.0235 260.956 29.3569H247.296C247.371 29.9103 247.522 30.4386 247.749 30.9418C248 31.4198 248.315 31.8475 248.692 32.2248C249.095 32.6022 249.573 32.9041 250.126 33.1305C250.68 33.3569 251.296 33.4701 251.975 33.4701C252.856 33.4701 253.648 33.2814 254.353 32.9041C255.057 32.5267 255.585 32.011 255.937 31.3569L260.428 31.5078C260.101 32.2877 259.673 33.0173 259.145 33.6965C258.617 34.3758 257.988 34.967 257.258 35.4701C256.554 35.9481 255.761 36.338 254.881 36.6399C254 36.9167 253.032 37.055 251.975 37.055C250.642 37.055 249.409 36.8286 248.277 36.3758C247.17 35.9229 246.202 35.3066 245.371 34.5267C244.566 33.7468 243.925 32.8286 243.447 31.772C242.994 30.6902 242.768 29.5456 242.768 28.338ZM256.503 26.7908C256.277 25.5833 255.761 24.6399 254.956 23.9606C254.151 23.2562 253.158 22.904 251.975 22.904C250.742 22.904 249.724 23.294 248.919 24.0738C248.139 24.8286 247.661 25.7342 247.485 26.7908H256.503Z" fill="#0D1117"/>
<defs>
<linearGradient id="paint0_linear_502_415" x1="49" y1="-1.34902e-06" x2="-3.0024e-07" y2="55" gradientUnits="userSpaceOnUse">
<stop offset="0.119792" stop-color="#4F89FF"/>
<stop offset="0.505208" stop-color="#D356FF"/>
<stop offset="0.848958" stop-color="#7956FF"/>
</linearGradient>
</defs>
</svg>
