<svg width="228" height="55" viewBox="0 0 228 55" fill="none" xmlns="http://www.w3.org/2000/svg">
<path d="M36.2405 27.357C35.9744 27.2176 35.653 27.2382 35.4067 27.4094L31.3553 30.2276C31.1388 30.3782 31.0095 30.6258 31.0095 30.8897V42.9856C31.0095 44.5474 32.2801 45.8176 33.8415 45.8176C35.4029 45.8176 36.6735 44.5474 36.6735 42.9856V28.0716C36.6735 27.7715 36.5065 27.4959 36.2405 27.357Z" fill="#FFEBA1"/>
<path d="M27.2422 33.6165C26.9757 33.4772 26.6547 33.4977 26.408 33.6689L22.357 36.4871C22.1401 36.6377 22.0112 36.8853 22.0112 37.1492V41.2753C22.0112 42.8367 23.2814 44.1073 24.8432 44.1073C26.4046 44.1073 27.6752 42.8367 27.6752 41.2753V34.3311C27.6752 34.0306 27.5082 33.7554 27.2422 33.6165Z" fill="#FFEBA1"/>
<path d="M12.2043 44.0767C11.9379 43.9378 11.6169 43.958 11.3701 44.1296L7.31915 46.9473C7.10263 47.0984 6.97339 47.3455 6.97339 47.6095V52.1682C6.97339 53.7296 8.24357 55.0002 9.80539 55.0002C11.3668 55.0002 12.6374 53.7296 12.6374 52.1682V44.7918C12.6374 44.4913 12.4704 44.216 12.2043 44.0767Z" fill="#FFEBA1"/>
<path d="M36.2405 27.357C35.9745 27.2176 35.6531 27.2382 35.4067 27.4094L33.8416 28.4983V42.9856C33.8416 44.0317 33.2713 44.9465 32.4258 45.4366C32.8425 45.6787 33.3259 45.8176 33.8416 45.8176C35.403 45.8176 36.6736 44.5474 36.6736 42.9856V28.0716C36.6736 27.7715 36.5066 27.4959 36.2405 27.357Z" fill="#F7D36F"/>
<path d="M27.2422 33.6162C26.9757 33.4769 26.6547 33.4975 26.408 33.6687L24.8432 34.7576V41.2751C24.8432 42.3212 24.2725 43.2356 23.427 43.7261C23.8441 43.9678 24.3275 44.1071 24.8432 44.1071C26.4046 44.1071 27.6752 42.8369 27.6752 41.2751V34.3308C27.6752 34.0304 27.5082 33.7551 27.2422 33.6162Z" fill="#F7D36F"/>
<path d="M12.2044 44.0767C11.9379 43.9378 11.6169 43.958 11.3702 44.1296L9.80543 45.2181V52.1682C9.80543 53.2139 9.23475 54.1287 8.38922 54.6192C8.80632 54.8609 9.28972 54.9998 9.80543 54.9998C11.3668 54.9998 12.6374 53.7296 12.6374 52.1682V44.7913C12.6374 44.4913 12.4704 44.216 12.2044 44.0767Z" fill="#F7D36F"/>
<path d="M40.4291 24.8985C40.323 24.7462 40.2432 24.5808 40.1929 24.4084C40.1866 24.3882 39.5739 22.3451 37.4561 19.4384C35.452 16.6882 31.7082 12.6981 25.2541 9.30842C18.7995 5.91875 13.3898 5.10133 9.98795 5.01279C6.39477 4.91796 4.3634 5.57382 4.34326 5.58053C4.17415 5.63592 3.99581 5.66404 3.81244 5.66404C3.80866 5.66404 3.80447 5.66404 3.80153 5.66404C3.58878 5.66404 3.38443 5.74796 3.23379 5.89776C3.08147 6.04841 2.99586 6.25318 2.99503 6.46719L2.81165 50.501C2.81039 50.8019 2.97656 51.0784 3.24302 51.2186C3.36093 51.2803 3.48975 51.3109 3.61774 51.3109C3.77971 51.3109 3.94084 51.2622 4.07848 51.1665L40.2273 26.0209C40.5928 25.7667 40.6834 25.264 40.4291 24.8985Z" fill="#FFDB57"/>
<path d="M3.24302 51.2186C3.36093 51.2807 3.48934 51.3109 3.61774 51.3109C3.77971 51.3109 3.94084 51.2622 4.07848 51.1665L40.2273 26.0209C40.5928 25.7666 40.683 25.2639 40.4287 24.8985C40.323 24.7461 40.2432 24.5808 40.1924 24.4083C40.1887 24.3949 39.9046 23.4504 39.0633 21.9385L2.82592 47.0631L2.81165 50.5014C2.81039 50.8019 2.97656 51.0788 3.24302 51.2186Z" fill="#F6C134"/>
<path d="M16.7018 17.1748C13.913 17.1748 11.6442 19.4437 11.6442 22.232C11.6442 25.0208 13.913 27.2893 16.7018 27.2893C19.4906 27.2893 21.759 25.0208 21.759 22.232C21.759 19.4433 19.4906 17.1748 16.7018 17.1748Z" fill="#F2433B"/>
<path d="M16.7018 23.7361C14.5383 23.7361 12.6882 22.3699 11.9673 20.4556C11.7591 21.0086 11.6442 21.607 11.6442 22.2322C11.6442 25.021 13.913 27.2895 16.7014 27.2895C19.4902 27.2895 21.759 25.021 21.759 22.2322C21.759 21.6074 21.6441 21.0086 21.4359 20.4556C20.715 22.3699 18.8654 23.7361 16.7018 23.7361Z" fill="#D83636"/>
<path d="M7.23566 25.4335C6.30914 24.4856 5.06959 23.9452 3.74528 23.9124C3.52917 23.9095 3.31895 23.9892 3.16327 24.1399C3.00801 24.2909 2.91989 24.4982 2.91905 24.7152L2.8838 33.2124C2.88254 33.4294 2.96898 33.6371 3.1234 33.7894C3.27447 33.9388 3.47798 34.0223 3.68989 34.0223H3.70332C6.4451 33.9765 8.67537 31.7085 8.67537 28.9667C8.67537 27.6382 8.16385 26.3831 7.23566 25.4335Z" fill="#F2433B"/>
<path d="M3.7033 30.4181C3.69869 30.4185 3.69449 30.4185 3.68987 30.4185C3.47797 30.4185 3.27445 30.335 3.12297 30.1856C3.0059 30.0698 2.92785 29.9217 2.89763 29.7622L2.88337 33.2123C2.88253 33.4293 2.96897 33.637 3.12297 33.7893C3.27403 33.9387 3.47755 34.0222 3.68987 34.0222H3.7033C6.44466 33.9764 8.67493 31.7084 8.67493 28.9666C8.67493 28.3385 8.55954 27.7275 8.34092 27.1572C7.62127 29.0296 5.8144 30.3832 3.7033 30.4181Z" fill="#D83636"/>
<path d="M28.4692 25.3633C25.6804 25.3633 23.412 27.6322 23.412 30.4205C23.412 32.4733 24.6377 34.3074 26.5344 35.0938C26.6338 35.1349 26.7387 35.1551 26.8432 35.1551C27.0056 35.1551 27.1663 35.1064 27.3035 35.0107L33.1769 30.9253C33.4018 30.7684 33.5323 30.5082 33.5223 30.2338C33.4228 27.5025 31.203 25.3633 28.4692 25.3633Z" fill="#F2433B"/>
<path d="M35.1004 16.6194C33.5218 14.9522 31.6956 13.3925 29.6718 11.9838C29.478 11.8491 29.2358 11.8063 29.008 11.8651C26.7815 12.4442 25.2268 14.4571 25.2268 16.7595C25.2268 19.5483 27.4957 21.8172 30.284 21.8172C32.902 21.8172 35.066 19.8542 35.3174 17.2513C35.3396 17.0188 35.2607 16.7885 35.1004 16.6194Z" fill="#F2433B"/>
<path d="M34.4387 15.9426C33.5239 17.2594 32.002 18.1041 30.284 18.1041C28.1499 18.1041 26.3216 16.7747 25.5801 14.9011C25.3514 15.4802 25.2268 16.1084 25.2268 16.7596C25.2268 19.5484 27.4957 21.8168 30.284 21.8168C32.902 21.8168 35.066 19.8543 35.3174 17.251C35.3396 17.0189 35.2607 16.7886 35.1004 16.619C34.8847 16.3916 34.6636 16.1663 34.4387 15.9426Z" fill="#D83636"/>
<path d="M17.9695 6.73262C17.8948 6.45735 17.6808 6.24251 17.4059 6.16614C14.8635 5.46286 12.368 5.07471 9.98793 5.01261C9.81672 5.008 9.65014 5.0059 9.48648 5.00464C9.48439 5.00464 9.48229 5.00464 9.48019 5.00464C9.2024 5.00464 8.9435 5.14773 8.79621 5.38397C8.29561 6.18586 8.03125 7.1107 8.03125 8.05778C8.03125 10.8466 10.3001 13.115 13.0885 13.115C15.8773 13.115 18.1461 10.8466 18.1461 8.05778C18.1461 7.61088 18.0865 7.16525 17.9695 6.73262Z" fill="#F2433B"/>
<path d="M17.7357 6.35131C16.9607 8.15147 15.1698 9.41536 13.0885 9.41536C10.9522 9.41536 9.12226 8.08307 8.38247 6.20654C8.15168 6.79317 8.03125 7.42008 8.03125 8.0579C8.03125 10.8467 10.3001 13.1155 13.0885 13.1155C15.8773 13.1155 18.1457 10.8467 18.1457 8.0579C18.1457 7.61142 18.0865 7.16537 17.9691 6.73274C17.9288 6.58336 17.8461 6.45244 17.7357 6.35131Z" fill="#D83636"/>
<path d="M20.0827 39.2615C19.2971 37.3628 17.4626 36.1362 15.4085 36.1362C12.6198 36.1362 10.3509 38.4047 10.3509 41.1935C10.3509 42.5962 10.9421 43.9487 11.9723 44.9033C12.1263 45.0456 12.3227 45.1181 12.5207 45.1181C12.681 45.1181 12.8417 45.0707 12.9811 44.9738L19.7982 40.2317C20.1091 40.0156 20.2274 39.6119 20.0827 39.2615Z" fill="#F2433B"/>
<path d="M45.0009 22.9954C44.8737 22.562 41.7232 12.3015 27.5939 4.87677C27.5884 4.87383 27.5834 4.8709 27.5779 4.86838C13.4431 -2.55214 3.20609 0.678917 2.77724 0.819908C1.04254 1.39059 0.0954667 3.2667 0.666147 5.0014C0.942675 5.84189 1.52972 6.52419 2.31944 6.92283C3.10916 7.32188 4.00714 7.38902 4.83799 7.11543C4.85645 7.10956 6.73046 6.54139 9.94599 6.6249C13.1766 6.70924 18.3245 7.49099 24.5042 10.7363C30.6839 13.9816 34.2494 17.7762 36.1524 20.3879C38.0465 22.9875 38.642 24.8535 38.6449 24.8623C38.8946 25.7112 39.4594 26.412 40.2361 26.8358C40.73 27.1056 41.2713 27.2424 41.8185 27.2424C42.1319 27.2424 42.4475 27.1975 42.7567 27.1064C43.6056 26.8572 44.3064 26.292 44.7306 25.5152C45.154 24.739 45.2501 23.8439 45.0009 22.9954Z" fill="#FF9F34"/>
<path d="M43.0701 24.6321C43.0668 24.6212 42.3568 22.3977 40.1001 19.3001C37.8321 16.1878 33.583 11.666 26.2191 7.79834C18.8549 3.93114 12.7205 2.99959 8.87089 2.89888C5.03852 2.79943 2.80574 3.4767 2.7835 3.48383C2.04707 3.72595 1.26658 3.74357 0.528052 3.5409C0.465529 4.01759 0.505812 4.51525 0.666106 5.00159C0.942634 5.84208 1.52968 6.52438 2.3194 6.92302C3.10912 7.32207 4.0071 7.38921 4.83794 7.11562C4.85641 7.10975 6.73042 6.54159 9.94595 6.62509C13.1766 6.70943 18.3245 7.49118 24.5042 10.7365C30.6839 13.9818 34.2494 17.7764 36.1523 20.3881C38.0465 22.9877 38.6419 24.8537 38.6449 24.8625C38.8945 25.7114 39.4593 26.4122 40.2361 26.836C40.7299 27.1058 41.2712 27.2426 41.8184 27.2426C42.1319 27.2426 42.4474 27.1977 42.7567 27.1066C43.2653 26.9572 43.7206 26.6937 44.0953 26.3396C43.6173 25.8734 43.2636 25.2905 43.0701 24.6321Z" fill="#FB8F2D"/>
<path d="M26.5343 35.0939C26.6337 35.135 26.7386 35.1552 26.8431 35.1552C27.0055 35.1552 27.1662 35.1065 27.3034 35.0108L33.1768 30.9254C33.4017 30.7685 33.5322 30.5083 33.5222 30.2339C33.4731 28.8903 32.9104 27.6906 32.0262 26.8174L23.8508 32.486C24.367 33.6429 25.3107 34.5866 26.5343 35.0939Z" fill="#D83636"/>
<path d="M11.9727 44.9034C12.1263 45.0456 12.3231 45.1182 12.5207 45.1182C12.681 45.1182 12.8422 45.0708 12.9811 44.9739L19.7982 40.2318C20.1091 40.0157 20.2274 39.6116 20.0827 39.2616C19.6177 38.1375 18.7848 37.2491 17.7563 36.7112L10.3916 41.8175C10.5389 42.9912 11.0961 44.0914 11.9727 44.9034Z" fill="#D83636"/>
<path d="M84.9886 37.5H79.5006L72.1926 26.468V37.5H66.7046V17.76H72.1926L79.5006 28.932V17.76H84.9886V37.5ZM93.6028 22.156V25.376H99.9028V29.548H93.6028V33.104H100.743V37.5H88.1148V17.76H100.743V22.156H93.6028ZM115.803 37.5L111.967 31.928L108.691 37.5H102.447L108.859 27.392L102.223 17.76H108.691L112.415 23.192L115.607 17.76H121.851L115.523 27.7L122.271 37.5H115.803ZM139.022 17.76V22.128H133.758V37.5H128.27V22.128H123.062V17.76H139.022ZM162.008 24.34C162.008 25.5347 161.728 26.6267 161.168 27.616C160.626 28.5867 159.796 29.3707 158.676 29.968C157.574 30.5467 156.221 30.836 154.616 30.836H151.9V37.5H146.412V17.76H154.616C156.202 17.76 157.546 18.04 158.648 18.6C159.768 19.16 160.608 19.9347 161.168 20.924C161.728 21.9133 162.008 23.052 162.008 24.34ZM154.084 26.468C155.633 26.468 156.408 25.7587 156.408 24.34C156.408 22.9027 155.633 22.184 154.084 22.184H151.9V26.468H154.084ZM169.7 17.76V37.5H164.212V17.76H169.7ZM178.818 33.048H187.022V37.5H172.658V33.328L180.778 22.184H172.658V17.76H187.022V21.932L178.818 33.048ZM195.99 33.048H204.194V37.5H189.83V33.328L197.95 22.184H189.83V17.76H204.194V21.932L195.99 33.048ZM219.657 34.28H212.657L211.593 37.5H205.825L213.021 17.76H219.349L226.517 37.5H220.721L219.657 34.28ZM218.285 30.08L216.157 23.696L214.057 30.08H218.285Z" fill="black"/>
</svg>
