<svg width="274" height="56" viewBox="0 0 274 56" fill="none" xmlns="http://www.w3.org/2000/svg">
<g clip-path="url(#clip0_318_725)">
<rect y="0.744141" width="55" height="55" rx="11" fill="#2F82FF"/>
<circle cx="14.0251" cy="41.7192" r="4.2625" fill="#F37E7F" stroke="url(#paint0_linear_318_725)" stroke-width="0.825"/>
<rect x="9.7626" y="10.5067" width="35.475" height="8.525" rx="4.2625" fill="url(#paint1_linear_318_725)" stroke="url(#paint2_linear_318_725)" stroke-width="0.825"/>
<rect x="9.7626" y="23.9817" width="22" height="8.525" rx="4.2625" fill="url(#paint3_linear_318_725)" stroke="url(#paint4_linear_318_725)" stroke-width="0.825"/>
<g opacity="0.3" filter="url(#filter0_f_318_725)">
<circle cx="992.5" cy="8.24414" r="992.5" fill="white"/>
</g>
</g>
<path d="M78.68 38.4401C77.3173 38.4401 76.0853 38.2068 74.984 37.7401C73.9013 37.2735 73.0427 36.6015 72.408 35.7241C71.7733 34.8468 71.4467 33.8108 71.428 32.6161H75.628C75.684 33.4188 75.964 34.0535 76.468 34.5201C76.9907 34.9868 77.7 35.2201 78.596 35.2201C79.5107 35.2201 80.2293 35.0055 80.752 34.5761C81.2747 34.1281 81.536 33.5495 81.536 32.8401C81.536 32.2615 81.3587 31.7855 81.004 31.4121C80.6493 31.0388 80.2013 30.7495 79.66 30.5441C79.1373 30.3201 78.4093 30.0775 77.476 29.8161C76.2067 29.4428 75.1707 29.0788 74.368 28.7241C73.584 28.3508 72.9027 27.8001 72.324 27.0721C71.764 26.3255 71.484 25.3361 71.484 24.1041C71.484 22.9468 71.7733 21.9388 72.352 21.0801C72.9307 20.2215 73.7427 19.5681 74.788 19.1201C75.8333 18.6535 77.028 18.4201 78.372 18.4201C80.388 18.4201 82.0213 18.9148 83.272 19.9041C84.5413 20.8748 85.2413 22.2375 85.372 23.9921H81.06C81.0227 23.3201 80.7333 22.7695 80.192 22.3401C79.6693 21.8921 78.9693 21.6681 78.092 21.6681C77.3267 21.6681 76.7107 21.8641 76.244 22.2561C75.796 22.6481 75.572 23.2175 75.572 23.9641C75.572 24.4868 75.74 24.9255 76.076 25.2801C76.4307 25.6161 76.86 25.8961 77.364 26.1201C77.8867 26.3255 78.6147 26.5681 79.548 26.8481C80.8173 27.2215 81.8533 27.5948 82.656 27.9681C83.4587 28.3415 84.1493 28.9015 84.728 29.6481C85.3067 30.3948 85.596 31.3748 85.596 32.5881C85.596 33.6335 85.3253 34.6041 84.784 35.5001C84.2427 36.3961 83.4493 37.1148 82.404 37.6561C81.3587 38.1788 80.1173 38.4401 78.68 38.4401ZM87.9865 30.4881C87.9865 28.8828 88.3132 27.4828 88.9665 26.2881C89.6198 25.0748 90.5252 24.1415 91.6825 23.4881C92.8398 22.8161 94.1652 22.4801 95.6585 22.4801C97.5812 22.4801 99.1678 22.9655 100.419 23.9361C101.688 24.8881 102.537 26.2321 102.967 27.9681H98.7385C98.5145 27.2961 98.1318 26.7735 97.5905 26.4001C97.0678 26.0081 96.4145 25.8121 95.6305 25.8121C94.5105 25.8121 93.6238 26.2228 92.9705 27.0441C92.3172 27.8468 91.9905 28.9948 91.9905 30.4881C91.9905 31.9628 92.3172 33.1108 92.9705 33.9321C93.6238 34.7348 94.5105 35.1361 95.6305 35.1361C97.2172 35.1361 98.2532 34.4268 98.7385 33.0081H102.967C102.537 34.6881 101.688 36.0228 100.419 37.0121C99.1492 38.0015 97.5625 38.4961 95.6585 38.4961C94.1652 38.4961 92.8398 38.1695 91.6825 37.5161C90.5252 36.8441 89.6198 35.9108 88.9665 34.7161C88.3132 33.5028 87.9865 32.0935 87.9865 30.4881ZM114.574 22.5081C115.75 22.5081 116.796 22.7695 117.71 23.2921C118.625 23.7961 119.334 24.5521 119.838 25.5601C120.361 26.5495 120.622 27.7441 120.622 29.1441V38.2441H116.702V29.6761C116.702 28.4441 116.394 27.5015 115.778 26.8481C115.162 26.1761 114.322 25.8401 113.258 25.8401C112.176 25.8401 111.317 26.1761 110.682 26.8481C110.066 27.5015 109.758 28.4441 109.758 29.6761V38.2441H105.838V17.5241H109.758V24.6641C110.262 23.9921 110.934 23.4695 111.774 23.0961C112.614 22.7041 113.548 22.5081 114.574 22.5081ZM138.77 30.1521C138.77 30.7121 138.733 31.2161 138.658 31.6641H127.318C127.411 32.7841 127.803 33.6615 128.494 34.2961C129.185 34.9308 130.034 35.2481 131.042 35.2481C132.498 35.2481 133.534 34.6228 134.15 33.3721H138.378C137.93 34.8655 137.071 36.0975 135.802 37.0681C134.533 38.0201 132.974 38.4961 131.126 38.4961C129.633 38.4961 128.289 38.1695 127.094 37.5161C125.918 36.8441 124.994 35.9015 124.322 34.6881C123.669 33.4748 123.342 32.0748 123.342 30.4881C123.342 28.8828 123.669 27.4735 124.322 26.2601C124.975 25.0468 125.89 24.1135 127.066 23.4601C128.242 22.8068 129.595 22.4801 131.126 22.4801C132.601 22.4801 133.917 22.7975 135.074 23.4321C136.25 24.0668 137.155 24.9721 137.79 26.1481C138.443 27.3055 138.77 28.6401 138.77 30.1521ZM134.71 29.0321C134.691 28.0241 134.327 27.2215 133.618 26.6241C132.909 26.0081 132.041 25.7001 131.014 25.7001C130.043 25.7001 129.222 25.9988 128.55 26.5961C127.897 27.1748 127.495 27.9868 127.346 29.0321H134.71ZM140.623 30.4321C140.623 28.8641 140.931 27.4735 141.547 26.2601C142.182 25.0468 143.041 24.1135 144.123 23.4601C145.206 22.8068 146.41 22.4801 147.735 22.4801C148.743 22.4801 149.705 22.7041 150.619 23.1521C151.534 23.5815 152.262 24.1601 152.803 24.8881V17.5241H156.779V38.2441H152.803V35.9481C152.318 36.7135 151.637 37.3295 150.759 37.7961C149.882 38.2628 148.865 38.4961 147.707 38.4961C146.401 38.4961 145.206 38.1601 144.123 37.4881C143.041 36.8161 142.182 35.8735 141.547 34.6601C140.931 33.4281 140.623 32.0188 140.623 30.4321ZM152.831 30.4881C152.831 29.5361 152.645 28.7241 152.271 28.0521C151.898 27.3615 151.394 26.8388 150.759 26.4841C150.125 26.1108 149.443 25.9241 148.715 25.9241C147.987 25.9241 147.315 26.1015 146.699 26.4561C146.083 26.8108 145.579 27.3335 145.187 28.0241C144.814 28.6961 144.627 29.4988 144.627 30.4321C144.627 31.3655 144.814 32.1868 145.187 32.8961C145.579 33.5868 146.083 34.1188 146.699 34.4921C147.334 34.8655 148.006 35.0521 148.715 35.0521C149.443 35.0521 150.125 34.8748 150.759 34.5201C151.394 34.1468 151.898 33.6241 152.271 32.9521C152.645 32.2615 152.831 31.4401 152.831 30.4881ZM175.252 22.7321V38.2441H171.304V36.2841C170.8 36.9561 170.137 37.4881 169.316 37.8801C168.513 38.2535 167.636 38.4401 166.684 38.4401C165.47 38.4401 164.397 38.1881 163.464 37.6841C162.53 37.1615 161.793 36.4055 161.252 35.4161C160.729 34.4081 160.468 33.2135 160.468 31.8321V22.7321H164.388V31.2721C164.388 32.5041 164.696 33.4561 165.312 34.1281C165.928 34.7815 166.768 35.1081 167.832 35.1081C168.914 35.1081 169.764 34.7815 170.38 34.1281C170.996 33.4561 171.304 32.5041 171.304 31.2721V22.7321H175.252ZM183.04 17.5241V38.2441H179.12V17.5241H183.04ZM201.332 30.1521C201.332 30.7121 201.295 31.2161 201.22 31.6641H189.88C189.974 32.7841 190.366 33.6615 191.056 34.2961C191.747 34.9308 192.596 35.2481 193.604 35.2481C195.06 35.2481 196.096 34.6228 196.712 33.3721H200.94C200.492 34.8655 199.634 36.0975 198.364 37.0681C197.095 38.0201 195.536 38.4961 193.688 38.4961C192.195 38.4961 190.851 38.1695 189.656 37.5161C188.48 36.8441 187.556 35.9015 186.884 34.6881C186.231 33.4748 185.904 32.0748 185.904 30.4881C185.904 28.8828 186.231 27.4735 186.884 26.2601C187.538 25.0468 188.452 24.1135 189.628 23.4601C190.804 22.8068 192.158 22.4801 193.688 22.4801C195.163 22.4801 196.479 22.7975 197.636 23.4321C198.812 24.0668 199.718 24.9721 200.352 26.1481C201.006 27.3055 201.332 28.6401 201.332 30.1521ZM197.272 29.0321C197.254 28.0241 196.89 27.2215 196.18 26.6241C195.471 26.0081 194.603 25.7001 193.576 25.7001C192.606 25.7001 191.784 25.9988 191.112 26.5961C190.459 27.1748 190.058 27.9868 189.908 29.0321H197.272ZM236.99 18.7001L231.53 38.2441H226.91L223.242 24.3281L219.406 38.2441L214.814 38.2721L209.55 18.7001H213.75L217.194 33.8761L221.17 18.7001H225.538L229.29 33.7921L232.762 18.7001H236.99ZM253.969 30.1521C253.969 30.7121 253.932 31.2161 253.857 31.6641H242.517C242.611 32.7841 243.003 33.6615 243.693 34.2961C244.384 34.9308 245.233 35.2481 246.241 35.2481C247.697 35.2481 248.733 34.6228 249.349 33.3721H253.577C253.129 34.8655 252.271 36.0975 251.001 37.0681C249.732 38.0201 248.173 38.4961 246.325 38.4961C244.832 38.4961 243.488 38.1695 242.293 37.5161C241.117 36.8441 240.193 35.9015 239.521 34.6881C238.868 33.4748 238.541 32.0748 238.541 30.4881C238.541 28.8828 238.868 27.4735 239.521 26.2601C240.175 25.0468 241.089 24.1135 242.265 23.4601C243.441 22.8068 244.795 22.4801 246.325 22.4801C247.8 22.4801 249.116 22.7975 250.273 23.4321C251.449 24.0668 252.355 24.9721 252.989 26.1481C253.643 27.3055 253.969 28.6401 253.969 30.1521ZM249.909 29.0321C249.891 28.0241 249.527 27.2215 248.817 26.6241C248.108 26.0081 247.24 25.7001 246.213 25.7001C245.243 25.7001 244.421 25.9988 243.749 26.5961C243.096 27.1748 242.695 27.9868 242.545 29.0321H249.909ZM260.75 25.0001C261.254 24.2535 261.945 23.6468 262.822 23.1801C263.718 22.7135 264.736 22.4801 265.874 22.4801C267.2 22.4801 268.394 22.8068 269.458 23.4601C270.541 24.1135 271.39 25.0468 272.006 26.2601C272.641 27.4548 272.958 28.8455 272.958 30.4321C272.958 32.0188 272.641 33.4281 272.006 34.6601C271.39 35.8735 270.541 36.8161 269.458 37.4881C268.394 38.1601 267.2 38.4961 265.874 38.4961C264.717 38.4961 263.7 38.2721 262.822 37.8241C261.964 37.3575 261.273 36.7601 260.75 36.0321V38.2441H256.83V17.5241H260.75V25.0001ZM268.954 30.4321C268.954 29.4988 268.758 28.6961 268.366 28.0241C267.993 27.3335 267.489 26.8108 266.854 26.4561C266.238 26.1015 265.566 25.9241 264.838 25.9241C264.129 25.9241 263.457 26.1108 262.822 26.4841C262.206 26.8388 261.702 27.3615 261.31 28.0521C260.937 28.7428 260.75 29.5548 260.75 30.4881C260.75 31.4215 260.937 32.2335 261.31 32.9241C261.702 33.6148 262.206 34.1468 262.822 34.5201C263.457 34.8748 264.129 35.0521 264.838 35.0521C265.566 35.0521 266.238 34.8655 266.854 34.4921C267.489 34.1188 267.993 33.5868 268.366 32.8961C268.758 32.2055 268.954 31.3841 268.954 30.4321Z" fill="black"/>
<defs>
<filter id="filter0_f_318_725" x="-600" y="-1584.26" width="3185" height="3185" filterUnits="userSpaceOnUse" color-interpolation-filters="sRGB">
<feFlood flood-opacity="0" result="BackgroundImageFix"/>
<feBlend mode="normal" in="SourceGraphic" in2="BackgroundImageFix" result="shape"/>
<feGaussianBlur stdDeviation="300" result="effect1_foregroundBlur_318_725"/>
</filter>
<linearGradient id="paint0_linear_318_725" x1="14.0251" y1="37.0442" x2="14.0251" y2="46.3942" gradientUnits="userSpaceOnUse">
<stop stop-color="#F58F90"/>
<stop offset="1" stop-color="white" stop-opacity="0"/>
</linearGradient>
<linearGradient id="paint1_linear_318_725" x1="9.3501" y1="14.7692" x2="45.6501" y2="14.7692" gradientUnits="userSpaceOnUse">
<stop stop-color="white"/>
<stop offset="1" stop-color="white" stop-opacity="0.75"/>
</linearGradient>
<linearGradient id="paint2_linear_318_725" x1="27.5001" y1="10.0942" x2="27.5001" y2="19.4442" gradientUnits="userSpaceOnUse">
<stop stop-color="#E2EEFF"/>
<stop offset="1" stop-color="white" stop-opacity="0"/>
</linearGradient>
<linearGradient id="paint3_linear_318_725" x1="9.3501" y1="28.2442" x2="32.1751" y2="28.2442" gradientUnits="userSpaceOnUse">
<stop stop-color="white"/>
<stop offset="1" stop-color="white" stop-opacity="0.75"/>
</linearGradient>
<linearGradient id="paint4_linear_318_725" x1="20.7626" y1="23.5692" x2="20.7626" y2="32.9192" gradientUnits="userSpaceOnUse">
<stop stop-color="#E2EEFF"/>
<stop offset="1" stop-color="white" stop-opacity="0"/>
</linearGradient>
<clipPath id="clip0_318_725">
<rect y="0.744141" width="55" height="55" rx="11" fill="white"/>
</clipPath>
</defs>
</svg>
