<svg width="169" height="56" viewBox="0 0 169 56" fill="none" xmlns="http://www.w3.org/2000/svg">
<g clip-path="url(#clip0_48_325)">
<rect x="0.5" y="0.744141" width="55" height="55" rx="11" fill="#2F82FF"/>
<circle cx="14.525" cy="41.7192" r="4.2625" fill="#F37E7F" stroke="url(#paint0_linear_48_325)" stroke-width="0.825"/>
<rect x="10.2625" y="10.5067" width="35.475" height="8.525" rx="4.2625" fill="url(#paint1_linear_48_325)" stroke="url(#paint2_linear_48_325)" stroke-width="0.825"/>
<rect x="10.2625" y="23.9816" width="22" height="8.525" rx="4.2625" fill="url(#paint3_linear_48_325)" stroke="url(#paint4_linear_48_325)" stroke-width="0.825"/>
<g opacity="0.3" filter="url(#filter0_f_48_325)">
<circle cx="993" cy="8.24414" r="992.5" fill="white"/>
</g>
</g>
<path d="M79.012 38.4401C77.7053 38.4401 76.5293 38.2161 75.484 37.7681C74.4387 37.3015 73.6173 36.6481 73.02 35.8081C72.4227 34.9681 72.124 33.9881 72.124 32.8681H75.54C75.6147 33.7081 75.9413 34.3988 76.52 34.9401C77.1173 35.4815 77.948 35.7521 79.012 35.7521C80.1133 35.7521 80.972 35.4908 81.588 34.9681C82.204 34.4268 82.512 33.7361 82.512 32.8961C82.512 32.2428 82.316 31.7108 81.924 31.3001C81.5507 30.8895 81.0747 30.5721 80.496 30.3481C79.936 30.1241 79.152 29.8815 78.144 29.6201C76.8747 29.2841 75.8387 28.9481 75.036 28.6121C74.252 28.2575 73.58 27.7161 73.02 26.9881C72.46 26.2601 72.18 25.2895 72.18 24.0761C72.18 22.9561 72.46 21.9761 73.02 21.1361C73.58 20.2961 74.364 19.6521 75.372 19.2041C76.38 18.7561 77.5467 18.5321 78.872 18.5321C80.7573 18.5321 82.2973 19.0081 83.492 19.9601C84.7053 20.8935 85.3773 22.1815 85.508 23.8241H81.98C81.924 23.1148 81.588 22.5081 80.972 22.0041C80.356 21.5001 79.544 21.2481 78.536 21.2481C77.6213 21.2481 76.8747 21.4815 76.296 21.9481C75.7173 22.4148 75.428 23.0868 75.428 23.9641C75.428 24.5615 75.6053 25.0561 75.96 25.4481C76.3333 25.8215 76.8 26.1201 77.36 26.3441C77.92 26.5681 78.6853 26.8108 79.656 27.0721C80.944 27.4268 81.9893 27.7815 82.792 28.1361C83.6133 28.4908 84.304 29.0415 84.864 29.7881C85.4427 30.5161 85.732 31.4961 85.732 32.7281C85.732 33.7175 85.4613 34.6508 84.92 35.5281C84.3973 36.4055 83.6227 37.1148 82.596 37.6561C81.588 38.1788 80.3933 38.4401 79.012 38.4401ZM93.2224 25.4201V33.9601C93.2224 34.5388 93.3531 34.9588 93.6144 35.2201C93.8944 35.4628 94.3611 35.5841 95.0144 35.5841H96.9744V38.2441H94.4544C93.0171 38.2441 91.9158 37.9081 91.1504 37.2361C90.3851 36.5641 90.0024 35.4721 90.0024 33.9601V25.4201H88.1824V22.8161H90.0024V18.9801H93.2224V22.8161H96.9744V25.4201H93.2224ZM113.888 22.8161V38.2441H110.696V36.4241C110.192 37.0588 109.53 37.5628 108.708 37.9361C107.906 38.2908 107.047 38.4681 106.132 38.4681C104.919 38.4681 103.827 38.2161 102.856 37.7121C101.904 37.2081 101.148 36.4615 100.588 35.4721C100.047 34.4828 99.7764 33.2881 99.7764 31.8881V22.8161H102.94V31.4121C102.94 32.7935 103.286 33.8575 103.976 34.6041C104.667 35.3321 105.61 35.6961 106.804 35.6961C107.999 35.6961 108.942 35.3321 109.632 34.6041C110.342 33.8575 110.696 32.7935 110.696 31.4121V22.8161H113.888ZM117.036 30.4601C117.036 28.9108 117.353 27.5388 117.988 26.3441C118.641 25.1495 119.519 24.2255 120.62 23.5721C121.74 22.9001 122.981 22.5641 124.344 22.5641C125.352 22.5641 126.341 22.7881 127.312 23.2361C128.301 23.6655 129.085 24.2441 129.664 24.9721V17.5241H132.884V38.2441H129.664V35.9201C129.141 36.6668 128.413 37.2828 127.48 37.7681C126.565 38.2535 125.511 38.4961 124.316 38.4961C122.972 38.4961 121.74 38.1601 120.62 37.4881C119.519 36.7975 118.641 35.8455 117.988 34.6321C117.353 33.4001 117.036 32.0095 117.036 30.4601ZM129.664 30.5161C129.664 29.4521 129.44 28.5281 128.992 27.7441C128.563 26.9601 127.993 26.3628 127.284 25.9521C126.575 25.5415 125.809 25.3361 124.988 25.3361C124.167 25.3361 123.401 25.5415 122.692 25.9521C121.983 26.3441 121.404 26.9321 120.956 27.7161C120.527 28.4815 120.312 29.3961 120.312 30.4601C120.312 31.5241 120.527 32.4575 120.956 33.2601C121.404 34.0628 121.983 34.6788 122.692 35.1081C123.42 35.5188 124.185 35.7241 124.988 35.7241C125.809 35.7241 126.575 35.5188 127.284 35.1081C127.993 34.6975 128.563 34.1001 128.992 33.3161C129.44 32.5135 129.664 31.5801 129.664 30.5161ZM138.701 20.7721C138.122 20.7721 137.637 20.5761 137.245 20.1841C136.853 19.7921 136.657 19.3068 136.657 18.7281C136.657 18.1495 136.853 17.6641 137.245 17.2721C137.637 16.8801 138.122 16.6841 138.701 16.6841C139.261 16.6841 139.737 16.8801 140.129 17.2721C140.521 17.6641 140.717 18.1495 140.717 18.7281C140.717 19.3068 140.521 19.7921 140.129 20.1841C139.737 20.5761 139.261 20.7721 138.701 20.7721ZM140.269 22.8161V38.2441H137.077V22.8161H140.269ZM150.927 25.4201H148.071V38.2441H144.851V25.4201H143.031V22.8161H144.851V21.7241C144.851 19.9508 145.318 18.6628 146.251 17.8601C147.203 17.0388 148.687 16.6281 150.703 16.6281V19.2881C149.733 19.2881 149.051 19.4748 148.659 19.8481C148.267 20.2028 148.071 20.8281 148.071 21.7241V22.8161H150.927V25.4201ZM167.644 22.8161L158.18 45.4961H154.876L158.012 37.9921L151.936 22.8161H155.492L159.832 34.5761L164.34 22.8161H167.644Z" fill="white"/>
<defs>
<filter id="filter0_f_48_325" x="-599.5" y="-1584.26" width="3185" height="3185" filterUnits="userSpaceOnUse" color-interpolation-filters="sRGB">
<feFlood flood-opacity="0" result="BackgroundImageFix"/>
<feBlend mode="normal" in="SourceGraphic" in2="BackgroundImageFix" result="shape"/>
<feGaussianBlur stdDeviation="300" result="effect1_foregroundBlur_48_325"/>
</filter>
<linearGradient id="paint0_linear_48_325" x1="14.525" y1="37.0442" x2="14.525" y2="46.3942" gradientUnits="userSpaceOnUse">
<stop stop-color="#F58F90"/>
<stop offset="1" stop-color="white" stop-opacity="0"/>
</linearGradient>
<linearGradient id="paint1_linear_48_325" x1="9.84998" y1="14.7692" x2="46.15" y2="14.7692" gradientUnits="userSpaceOnUse">
<stop stop-color="white"/>
<stop offset="1" stop-color="white" stop-opacity="0.75"/>
</linearGradient>
<linearGradient id="paint2_linear_48_325" x1="28" y1="10.0942" x2="28" y2="19.4442" gradientUnits="userSpaceOnUse">
<stop stop-color="#E2EEFF"/>
<stop offset="1" stop-color="white" stop-opacity="0"/>
</linearGradient>
<linearGradient id="paint3_linear_48_325" x1="9.84998" y1="28.2441" x2="32.675" y2="28.2441" gradientUnits="userSpaceOnUse">
<stop stop-color="white"/>
<stop offset="1" stop-color="white" stop-opacity="0.75"/>
</linearGradient>
<linearGradient id="paint4_linear_48_325" x1="21.2625" y1="23.5691" x2="21.2625" y2="32.9191" gradientUnits="userSpaceOnUse">
<stop stop-color="#E2EEFF"/>
<stop offset="1" stop-color="white" stop-opacity="0"/>
</linearGradient>
<clipPath id="clip0_48_325">
<rect x="0.5" y="0.744141" width="55" height="55" rx="11" fill="white"/>
</clipPath>
</defs>
</svg>
