<svg width="303" height="56" viewBox="0 0 303 56" fill="none" xmlns="http://www.w3.org/2000/svg">
<g clip-path="url(#clip0_48_325)">
<rect x="0.5" y="0.744141" width="55" height="55" rx="11" fill="white"/>
<circle cx="14.525" cy="41.7192" r="4.2625" fill="#F37E7F" stroke="url(#paint0_linear_48_325)" stroke-width="0.825"/>
<rect x="10.2625" y="10.5067" width="35.475" height="8.525" rx="4.2625" fill="url(#paint1_linear_48_325)" stroke="url(#paint2_linear_48_325)" stroke-width="0.825"/>
<rect x="10.2625" y="23.9816" width="22" height="8.525" rx="4.2625" fill="url(#paint3_linear_48_325)" stroke="url(#paint4_linear_48_325)" stroke-width="0.825"/>
<g opacity="0.3" filter="url(#filter0_f_48_325)">
<circle cx="993" cy="8.24414" r="992.5" fill="white"/>
</g>
</g>
<path d="M79.18 38.4401C77.8173 38.4401 76.5853 38.2068 75.484 37.7401C74.4013 37.2735 73.5427 36.6015 72.908 35.7241C72.2733 34.8468 71.9467 33.8108 71.928 32.6161H76.128C76.184 33.4188 76.464 34.0535 76.968 34.5201C77.4907 34.9868 78.2 35.2201 79.096 35.2201C80.0107 35.2201 80.7293 35.0055 81.252 34.5761C81.7747 34.1281 82.036 33.5495 82.036 32.8401C82.036 32.2615 81.8587 31.7855 81.504 31.4121C81.1493 31.0388 80.7013 30.7495 80.16 30.5441C79.6373 30.3201 78.9093 30.0775 77.976 29.8161C76.7067 29.4428 75.6707 29.0788 74.868 28.7241C74.084 28.3508 73.4027 27.8001 72.824 27.0721C72.264 26.3255 71.984 25.3361 71.984 24.1041C71.984 22.9468 72.2733 21.9388 72.852 21.0801C73.4307 20.2215 74.2427 19.5681 75.288 19.1201C76.3333 18.6535 77.528 18.4201 78.872 18.4201C80.888 18.4201 82.5213 18.9148 83.772 19.9041C85.0413 20.8748 85.7413 22.2375 85.872 23.9921H81.56C81.5227 23.3201 81.2333 22.7695 80.692 22.3401C80.1693 21.8921 79.4693 21.6681 78.592 21.6681C77.8267 21.6681 77.2107 21.8641 76.744 22.2561C76.296 22.6481 76.072 23.2175 76.072 23.9641C76.072 24.4868 76.24 24.9255 76.576 25.2801C76.9307 25.6161 77.36 25.8961 77.864 26.1201C78.3867 26.3255 79.1147 26.5681 80.048 26.8481C81.3173 27.2215 82.3533 27.5948 83.156 27.9681C83.9587 28.3415 84.6493 28.9015 85.228 29.6481C85.8067 30.3948 86.096 31.3748 86.096 32.5881C86.096 33.6335 85.8253 34.6041 85.284 35.5001C84.7427 36.3961 83.9493 37.1148 82.904 37.6561C81.8587 38.1788 80.6173 38.4401 79.18 38.4401ZM88.4865 30.4881C88.4865 28.8828 88.8132 27.4828 89.4665 26.2881C90.1198 25.0748 91.0252 24.1415 92.1825 23.4881C93.3398 22.8161 94.6652 22.4801 96.1585 22.4801C98.0812 22.4801 99.6678 22.9655 100.919 23.9361C102.188 24.8881 103.037 26.2321 103.467 27.9681H99.2385C99.0145 27.2961 98.6318 26.7735 98.0905 26.4001C97.5678 26.0081 96.9145 25.8121 96.1305 25.8121C95.0105 25.8121 94.1238 26.2228 93.4705 27.0441C92.8172 27.8468 92.4905 28.9948 92.4905 30.4881C92.4905 31.9628 92.8172 33.1108 93.4705 33.9321C94.1238 34.7348 95.0105 35.1361 96.1305 35.1361C97.7172 35.1361 98.7532 34.4268 99.2385 33.0081H103.467C103.037 34.6881 102.188 36.0228 100.919 37.0121C99.6492 38.0015 98.0625 38.4961 96.1585 38.4961C94.6652 38.4961 93.3398 38.1695 92.1825 37.5161C91.0252 36.8441 90.1198 35.9108 89.4665 34.7161C88.8132 33.5028 88.4865 32.0935 88.4865 30.4881ZM115.074 22.5081C116.25 22.5081 117.296 22.7695 118.21 23.2921C119.125 23.7961 119.834 24.5521 120.338 25.5601C120.861 26.5495 121.122 27.7441 121.122 29.1441V38.2441H117.202V29.6761C117.202 28.4441 116.894 27.5015 116.278 26.8481C115.662 26.1761 114.822 25.8401 113.758 25.8401C112.676 25.8401 111.817 26.1761 111.182 26.8481C110.566 27.5015 110.258 28.4441 110.258 29.6761V38.2441H106.338V17.5241H110.258V24.6641C110.762 23.9921 111.434 23.4695 112.274 23.0961C113.114 22.7041 114.048 22.5081 115.074 22.5081ZM139.27 30.1521C139.27 30.7121 139.233 31.2161 139.158 31.6641H127.818C127.911 32.7841 128.303 33.6615 128.994 34.2961C129.685 34.9308 130.534 35.2481 131.542 35.2481C132.998 35.2481 134.034 34.6228 134.65 33.3721H138.878C138.43 34.8655 137.571 36.0975 136.302 37.0681C135.033 38.0201 133.474 38.4961 131.626 38.4961C130.133 38.4961 128.789 38.1695 127.594 37.5161C126.418 36.8441 125.494 35.9015 124.822 34.6881C124.169 33.4748 123.842 32.0748 123.842 30.4881C123.842 28.8828 124.169 27.4735 124.822 26.2601C125.475 25.0468 126.39 24.1135 127.566 23.4601C128.742 22.8068 130.095 22.4801 131.626 22.4801C133.101 22.4801 134.417 22.7975 135.574 23.4321C136.75 24.0668 137.655 24.9721 138.29 26.1481C138.943 27.3055 139.27 28.6401 139.27 30.1521ZM135.21 29.0321C135.191 28.0241 134.827 27.2215 134.118 26.6241C133.409 26.0081 132.541 25.7001 131.514 25.7001C130.543 25.7001 129.722 25.9988 129.05 26.5961C128.397 27.1748 127.995 27.9868 127.846 29.0321H135.21ZM141.123 30.4321C141.123 28.8641 141.431 27.4735 142.047 26.2601C142.682 25.0468 143.541 24.1135 144.623 23.4601C145.706 22.8068 146.91 22.4801 148.235 22.4801C149.243 22.4801 150.205 22.7041 151.119 23.1521C152.034 23.5815 152.762 24.1601 153.303 24.8881V17.5241H157.279V38.2441H153.303V35.9481C152.818 36.7135 152.137 37.3295 151.259 37.7961C150.382 38.2628 149.365 38.4961 148.207 38.4961C146.901 38.4961 145.706 38.1601 144.623 37.4881C143.541 36.8161 142.682 35.8735 142.047 34.6601C141.431 33.4281 141.123 32.0188 141.123 30.4321ZM153.331 30.4881C153.331 29.5361 153.145 28.7241 152.771 28.0521C152.398 27.3615 151.894 26.8388 151.259 26.4841C150.625 26.1108 149.943 25.9241 149.215 25.9241C148.487 25.9241 147.815 26.1015 147.199 26.4561C146.583 26.8108 146.079 27.3335 145.687 28.0241C145.314 28.6961 145.127 29.4988 145.127 30.4321C145.127 31.3655 145.314 32.1868 145.687 32.8961C146.079 33.5868 146.583 34.1188 147.199 34.4921C147.834 34.8655 148.506 35.0521 149.215 35.0521C149.943 35.0521 150.625 34.8748 151.259 34.5201C151.894 34.1468 152.398 33.6241 152.771 32.9521C153.145 32.2615 153.331 31.4401 153.331 30.4881ZM175.752 22.7321V38.2441H171.804V36.2841C171.3 36.9561 170.637 37.4881 169.816 37.8801C169.013 38.2535 168.136 38.4401 167.184 38.4401C165.97 38.4401 164.897 38.1881 163.964 37.6841C163.03 37.1615 162.293 36.4055 161.752 35.4161C161.229 34.4081 160.968 33.2135 160.968 31.8321V22.7321H164.888V31.2721C164.888 32.5041 165.196 33.4561 165.812 34.1281C166.428 34.7815 167.268 35.1081 168.332 35.1081C169.414 35.1081 170.264 34.7815 170.88 34.1281C171.496 33.4561 171.804 32.5041 171.804 31.2721V22.7321H175.752ZM183.54 17.5241V38.2441H179.62V17.5241H183.54ZM201.832 30.1521C201.832 30.7121 201.795 31.2161 201.72 31.6641H190.38C190.474 32.7841 190.866 33.6615 191.556 34.2961C192.247 34.9308 193.096 35.2481 194.104 35.2481C195.56 35.2481 196.596 34.6228 197.212 33.3721H201.44C200.992 34.8655 200.134 36.0975 198.864 37.0681C197.595 38.0201 196.036 38.4961 194.188 38.4961C192.695 38.4961 191.351 38.1695 190.156 37.5161C188.98 36.8441 188.056 35.9015 187.384 34.6881C186.731 33.4748 186.404 32.0748 186.404 30.4881C186.404 28.8828 186.731 27.4735 187.384 26.2601C188.038 25.0468 188.952 24.1135 190.128 23.4601C191.304 22.8068 192.658 22.4801 194.188 22.4801C195.663 22.4801 196.979 22.7975 198.136 23.4321C199.312 24.0668 200.218 24.9721 200.852 26.1481C201.506 27.3055 201.832 28.6401 201.832 30.1521ZM197.772 29.0321C197.754 28.0241 197.39 27.2215 196.68 26.6241C195.971 26.0081 195.103 25.7001 194.076 25.7001C193.106 25.7001 192.284 25.9988 191.612 26.5961C190.959 27.1748 190.558 27.9868 190.408 29.0321H197.772ZM228.082 38.2441H224.162L215.286 24.8321V38.2441H211.366V18.6721H215.286L224.162 32.1121V18.6721H228.082V38.2441ZM230.947 30.4321C230.947 28.8641 231.255 27.4735 231.871 26.2601C232.506 25.0468 233.355 24.1135 234.419 23.4601C235.502 22.8068 236.706 22.4801 238.031 22.4801C239.189 22.4801 240.197 22.7135 241.055 23.1801C241.933 23.6468 242.633 24.2348 243.155 24.9441V22.7321H247.103V38.2441H243.155V35.9761C242.651 36.7041 241.951 37.3108 241.055 37.7961C240.178 38.2628 239.161 38.4961 238.003 38.4961C236.697 38.4961 235.502 38.1601 234.419 37.4881C233.355 36.8161 232.506 35.8735 231.871 34.6601C231.255 33.4281 230.947 32.0188 230.947 30.4321ZM243.155 30.4881C243.155 29.5361 242.969 28.7241 242.595 28.0521C242.222 27.3615 241.718 26.8388 241.083 26.4841C240.449 26.1108 239.767 25.9241 239.039 25.9241C238.311 25.9241 237.639 26.1015 237.023 26.4561C236.407 26.8108 235.903 27.3335 235.511 28.0241C235.138 28.6961 234.951 29.4988 234.951 30.4321C234.951 31.3655 235.138 32.1868 235.511 32.8961C235.903 33.5868 236.407 34.1188 237.023 34.4921C237.658 34.8655 238.33 35.0521 239.039 35.0521C239.767 35.0521 240.449 34.8748 241.083 34.5201C241.718 34.1468 242.222 33.6241 242.595 32.9521C242.969 32.2615 243.155 31.4401 243.155 30.4881ZM255.496 25.9521V33.4561C255.496 33.9788 255.617 34.3615 255.86 34.6041C256.121 34.8281 256.551 34.9401 257.148 34.9401H258.968V38.2441H256.504C253.2 38.2441 251.548 36.6388 251.548 33.4281V25.9521H249.7V22.7321H251.548V18.8961H255.496V22.7321H258.968V25.9521H255.496ZM263.775 20.8841C263.085 20.8841 262.506 20.6695 262.039 20.2401C261.591 19.7921 261.367 19.2415 261.367 18.5881C261.367 17.9348 261.591 17.3935 262.039 16.9641C262.506 16.5161 263.085 16.2921 263.775 16.2921C264.466 16.2921 265.035 16.5161 265.483 16.9641C265.95 17.3935 266.183 17.9348 266.183 18.5881C266.183 19.2415 265.95 19.7921 265.483 20.2401C265.035 20.6695 264.466 20.8841 263.775 20.8841ZM265.707 22.7321V38.2441H261.787V22.7321H265.707ZM276.048 34.6321L279.968 22.7321H284.14L278.4 38.2441H273.64L267.928 22.7321H272.128L276.048 34.6321ZM300.762 30.1521C300.762 30.7121 300.725 31.2161 300.65 31.6641H289.31C289.403 32.7841 289.795 33.6615 290.486 34.2961C291.177 34.9308 292.026 35.2481 293.034 35.2481C294.49 35.2481 295.526 34.6228 296.142 33.3721H300.37C299.922 34.8655 299.063 36.0975 297.794 37.0681C296.525 38.0201 294.966 38.4961 293.118 38.4961C291.625 38.4961 290.281 38.1695 289.086 37.5161C287.91 36.8441 286.986 35.9015 286.314 34.6881C285.661 33.4748 285.334 32.0748 285.334 30.4881C285.334 28.8828 285.661 27.4735 286.314 26.2601C286.967 25.0468 287.882 24.1135 289.058 23.4601C290.234 22.8068 291.587 22.4801 293.118 22.4801C294.593 22.4801 295.909 22.7975 297.066 23.4321C298.242 24.0668 299.147 24.9721 299.782 26.1481C300.435 27.3055 300.762 28.6401 300.762 30.1521ZM296.702 29.0321C296.683 28.0241 296.319 27.2215 295.61 26.6241C294.901 26.0081 294.033 25.7001 293.006 25.7001C292.035 25.7001 291.214 25.9988 290.542 26.5961C289.889 27.1748 289.487 27.9868 289.338 29.0321H296.702Z" fill="white"/>
<defs>
<filter id="filter0_f_48_325" x="-599.5" y="-1584.26" width="3185" height="3185" filterUnits="userSpaceOnUse" color-interpolation-filters="sRGB">
<feFlood flood-opacity="0" result="BackgroundImageFix"/>
<feBlend mode="normal" in="SourceGraphic" in2="BackgroundImageFix" result="shape"/>
<feGaussianBlur stdDeviation="300" result="effect1_foregroundBlur_48_325"/>
</filter>
<linearGradient id="paint0_linear_48_325" x1="14.525" y1="37.0442" x2="14.525" y2="46.3942" gradientUnits="userSpaceOnUse">
<stop stop-color="#F58F90"/>
<stop offset="1" stop-color="white" stop-opacity="0"/>
</linearGradient>
<linearGradient id="paint1_linear_48_325" x1="9.84998" y1="14.7692" x2="46.15" y2="14.7692" gradientUnits="userSpaceOnUse">
<stop stop-color="#4B93FF"/>
<stop offset="1" stop-color="#5096FF"/>
</linearGradient>
<linearGradient id="paint2_linear_48_325" x1="28" y1="10.0942" x2="28" y2="19.4442" gradientUnits="userSpaceOnUse">
<stop stop-color="#E2EEFF"/>
<stop offset="1" stop-color="white" stop-opacity="0"/>
</linearGradient>
<linearGradient id="paint3_linear_48_325" x1="9.84998" y1="28.2441" x2="32.675" y2="28.2441" gradientUnits="userSpaceOnUse">
<stop stop-color="#4B93FF"/>
<stop offset="1" stop-color="#5096FF"/>
</linearGradient>
<linearGradient id="paint4_linear_48_325" x1="21.2625" y1="23.5691" x2="21.2625" y2="32.9191" gradientUnits="userSpaceOnUse">
<stop stop-color="#E2EEFF"/>
<stop offset="1" stop-color="white" stop-opacity="0"/>
</linearGradient>
<clipPath id="clip0_48_325">
<rect x="0.5" y="0.744141" width="55" height="55" rx="11" fill="white"/>
</clipPath>
</defs>
</svg>
