<svg width="172" height="56" viewBox="0 0 172 56" fill="none" xmlns="http://www.w3.org/2000/svg">
<g clip-path="url(#clip0_7_259)">
<path d="M35.7285 15.3795L33.1304 30.0095C33.0562 30.4006 33.019 30.8039 33.019 31.2195C33.019 32.0506 33.2417 32.7106 33.6871 33.1995C34.1325 33.6639 34.8377 33.8961 35.8028 33.8961C36.9905 33.8961 37.9307 33.5539 38.6236 32.8695C39.3165 32.1606 39.7742 31.2073 39.9969 30.0095L42.595 15.3795H50.7977L48.1996 30.0095C47.7542 32.5516 46.8634 34.6906 45.5272 36.4261C44.2158 38.1616 42.595 39.4573 40.665 40.3128C38.7597 41.1683 36.6564 41.5961 34.3552 41.5961C31.4107 41.5961 29.0599 40.8383 27.3031 39.3228C25.5463 37.7828 24.6679 35.595 24.6679 32.7595C24.6679 31.855 24.7544 30.9383 24.9277 30.0095L27.5258 15.3795H35.7285ZM74.914 41.3395H66.6742L60.2902 28.2861L57.9519 41.3395H49.7121L54.3516 15.3795H62.5914L68.9383 28.6528L71.3138 15.3795H79.5536L74.914 41.3395ZM80.2327 28.3228C80.6781 25.7561 81.606 23.4706 83.0164 21.4661C84.4268 19.4616 86.2084 17.9095 88.3611 16.8095C90.5139 15.685 92.9141 15.1228 95.5617 15.1228C97.8383 15.1228 99.793 15.5506 101.426 16.4061C103.084 17.2373 104.346 18.4228 105.212 19.9628C106.078 21.5028 106.499 23.2995 106.474 25.3528H97.7887C97.5413 24.4973 97.0959 23.8373 96.4525 23.3728C95.8092 22.8839 95.0174 22.6395 94.077 22.6395C92.6914 22.6395 91.5037 23.1528 90.5139 24.1795C89.5242 25.2061 88.8808 26.5873 88.5838 28.3228C88.485 28.8116 88.4354 29.3373 88.4354 29.8995C88.4354 31.1706 88.7448 32.1728 89.3633 32.9061C90.0067 33.6395 90.9098 34.0061 92.0728 34.0061C93.0131 34.0061 93.8915 33.7739 94.708 33.3095C95.5246 32.8206 96.2051 32.1483 96.7494 31.2928H105.435C104.692 33.3461 103.616 35.1428 102.206 36.6828C100.795 38.2228 99.1125 39.4206 97.1577 40.2761C95.2276 41.1073 93.1245 41.5228 90.8479 41.5228C88.5467 41.5228 86.5796 41.1073 84.9464 40.2761C83.3133 39.4206 82.0762 38.2228 81.2348 36.6828C80.3936 35.1183 79.9729 33.3095 79.9729 31.2561C79.9729 30.2539 80.0596 29.2761 80.2327 28.3228ZM119.462 41.5961C117.235 41.5961 115.28 41.1439 113.598 40.2395C111.915 39.335 110.616 38.0639 109.7 36.4261C108.785 34.7639 108.327 32.8695 108.327 30.7428C108.327 27.6383 108.97 24.9006 110.257 22.5295C111.569 20.1339 113.387 18.2761 115.713 16.9561C118.064 15.6116 120.761 14.9395 123.805 14.9395C126.081 14.9395 128.061 15.3916 129.743 16.2961C131.451 17.1761 132.762 18.435 133.677 20.0728C134.593 21.6861 135.051 23.5561 135.051 25.6828C135.051 28.7628 134.396 31.5128 133.083 33.9328C131.797 36.3528 129.966 38.235 127.591 39.5795C125.24 40.9239 122.53 41.5961 119.462 41.5961ZM120.724 34.0061C122.011 34.0061 123.124 33.6761 124.064 33.0161C125.03 32.3316 125.759 31.4395 126.254 30.3395C126.749 29.215 126.997 28.005 126.997 26.7095C126.997 25.365 126.626 24.3261 125.883 23.5928C125.166 22.835 124.126 22.4561 122.765 22.4561C121.479 22.4561 120.353 22.7861 119.388 23.4461C118.423 24.1061 117.68 24.9983 117.161 26.1228C116.666 27.2228 116.419 28.4206 116.419 29.7161C116.419 31.0606 116.777 32.1116 117.495 32.8695C118.237 33.6273 119.314 34.0061 120.724 34.0061ZM147.117 41.5961C143.9 41.5961 141.327 40.9606 139.397 39.6895C137.491 38.4183 136.539 36.5606 136.539 34.1161C136.539 33.8716 136.563 33.505 136.613 33.0161H145.373C145.299 33.7739 145.41 34.3361 145.707 34.7028C146.028 35.0695 146.547 35.2528 147.266 35.2528C147.711 35.2528 148.082 35.1428 148.379 34.9228C148.676 34.7028 148.825 34.385 148.825 33.9695C148.825 33.3828 148.528 32.8939 147.934 32.5028C147.364 32.1116 146.436 31.6473 145.15 31.1095C143.74 30.5228 142.576 29.9606 141.661 29.4228C140.77 28.885 139.991 28.1516 139.323 27.2228C138.655 26.2939 138.321 25.1328 138.321 23.7395C138.321 21.9061 138.778 20.3295 139.694 19.0095C140.634 17.665 141.933 16.6506 143.591 15.9661C145.248 15.2816 147.141 14.9395 149.27 14.9395C151.175 14.9395 152.87 15.2328 154.355 15.8195C155.863 16.4061 157.039 17.2616 157.881 18.3861C158.747 19.4861 159.18 20.7939 159.18 22.3095C159.18 22.505 159.155 22.8473 159.106 23.3361H150.235C150.284 23.0428 150.309 22.8473 150.309 22.7495C150.309 22.285 150.173 21.9306 149.901 21.6861C149.628 21.4173 149.257 21.2828 148.787 21.2828C148.366 21.2828 148.02 21.405 147.748 21.6495C147.475 21.8939 147.34 22.2116 147.34 22.6028C147.34 23.1406 147.624 23.6173 148.194 24.0328C148.762 24.4239 149.665 24.9128 150.903 25.4995C152.314 26.1595 153.476 26.7828 154.392 27.3695C155.332 27.9561 156.137 28.7383 156.805 29.7161C157.473 30.6695 157.807 31.8428 157.807 33.2361C157.807 34.825 157.373 36.255 156.508 37.5261C155.666 38.7973 154.441 39.7995 152.833 40.5328C151.224 41.2416 149.319 41.5961 147.117 41.5961ZM163.694 41.6328C162.407 41.6328 161.392 41.3273 160.65 40.7161C159.932 40.105 159.574 39.3106 159.574 38.3328C159.574 37.4773 159.808 36.6828 160.279 35.9495C160.773 35.2161 161.441 34.6416 162.283 34.2261C163.149 33.7861 164.102 33.5661 165.141 33.5661C166.403 33.5661 167.392 33.8839 168.111 34.5195C168.828 35.1306 169.187 35.925 169.187 36.9028C169.187 37.7583 168.951 38.5528 168.482 39.2861C168.011 39.995 167.355 40.5695 166.514 41.0095C165.673 41.425 164.733 41.6328 163.694 41.6328Z" fill="white"/>
<path d="M9.97207 24.8826L30.097 24.8826L20.6252 41.0867L0.500221 41.0868L9.97207 24.8826Z" fill="#D32531"/>
</g>
<defs>
<clipPath id="clip0_7_259">
<rect width="171" height="55" fill="white" transform="translate(0.5 0.744141)"/>
</clipPath>
</defs>
</svg>
