<svg width="206" height="56" viewBox="0 0 206 56" fill="none" xmlns="http://www.w3.org/2000/svg">
<path d="M74.8885 0H32.4533L0.5 55.1152H43.1044L74.8885 0Z" fill="url(#paint0_linear_70_501)"/>
<path d="M0.500122 0H42.9354L74.8887 55.1152H32.2843L0.500122 0Z" fill="#2D62F6" fill-opacity="0.35"/>
<path d="M94.3436 18.2236L96.7343 22.7412L99.1249 18.2236H106.666L101.146 26.9248L107.158 36.5576H99.494L96.6639 31.3545L93.7987 36.5576H86.3104L92.3221 26.9248L86.7323 18.2236H94.3436ZM108.107 27.3994C108.107 26.0635 108.33 24.8037 108.775 23.6201C109.221 22.4248 109.865 21.3877 110.709 20.5088C111.553 19.6182 112.584 18.915 113.803 18.3994C115.021 17.8721 116.404 17.6084 117.951 17.6084C119.029 17.6084 119.99 17.7666 120.834 18.083C121.689 18.3877 122.433 18.7568 123.066 19.1904L123.277 18.2236H128.744V36.5576H123.277L123.066 35.5732C122.433 36.0186 121.683 36.3936 120.816 36.6982C119.961 37.0146 119 37.1729 117.933 37.1729C116.398 37.1729 115.021 36.915 113.803 36.3994C112.596 35.8838 111.57 35.1865 110.726 34.3076C109.883 33.417 109.232 32.3799 108.775 31.1963C108.33 30.001 108.107 28.7354 108.107 27.3994ZM114.558 27.3818C114.558 28.0615 114.664 28.6768 114.875 29.2275C115.086 29.7666 115.373 30.2295 115.736 30.6162C116.111 31.0029 116.539 31.3018 117.019 31.5127C117.512 31.7119 118.039 31.8115 118.601 31.8115C119.164 31.8115 119.685 31.7119 120.166 31.5127C120.646 31.3018 121.068 31.0088 121.432 30.6338C121.795 30.2471 122.076 29.7842 122.275 29.2451C122.486 28.6943 122.592 28.0732 122.592 27.3818C122.592 26.7139 122.486 26.1104 122.275 25.5713C122.064 25.0322 121.777 24.5752 121.414 24.2002C121.051 23.8135 120.623 23.5205 120.131 23.3213C119.65 23.1104 119.129 23.0049 118.566 23.0049C117.992 23.0049 117.459 23.1104 116.967 23.3213C116.486 23.5205 116.064 23.8076 115.701 24.1826C115.349 24.5576 115.068 25.0205 114.857 25.5713C114.658 26.1104 114.558 26.7139 114.558 27.3818ZM153.09 36.5576H146.621V26.9072C146.621 26.1455 146.545 25.5186 146.392 25.0264C146.252 24.5225 146.053 24.124 145.795 23.8311C145.549 23.5264 145.256 23.3154 144.916 23.1982C144.576 23.0693 144.219 23.0049 143.844 23.0049C143.234 23.0049 142.695 23.1221 142.226 23.3564C141.769 23.5791 141.383 23.8955 141.066 24.3057C140.762 24.7041 140.527 25.1787 140.363 25.7295C140.211 26.2803 140.135 26.8779 140.135 27.5225V36.5576H133.701V18.2236H138.851L139.185 19.3135C139.56 19.0908 139.971 18.874 140.416 18.6631C140.861 18.4521 141.324 18.2705 141.805 18.1182C142.285 17.9658 142.777 17.8428 143.281 17.749C143.785 17.6553 144.289 17.6084 144.793 17.6084C146.269 17.6084 147.529 17.8252 148.572 18.2588C149.627 18.6924 150.488 19.3076 151.156 20.1045C151.824 20.9014 152.31 21.8623 152.615 22.9873C152.932 24.1123 153.09 25.3721 153.09 26.7666V36.5576ZM157.291 18.2236H163.777V36.5576H157.291V18.2236ZM156.834 13.46C156.834 13.0264 156.922 12.6162 157.098 12.2295C157.273 11.8311 157.525 11.4854 157.853 11.1924C158.182 10.8994 158.574 10.6709 159.031 10.5068C159.5 10.3311 160.016 10.2432 160.578 10.2432C161.152 10.2432 161.668 10.3311 162.125 10.5068C162.594 10.6709 162.992 10.8994 163.32 11.1924C163.648 11.4854 163.9 11.8311 164.076 12.2295C164.252 12.6162 164.34 13.0264 164.34 13.46C164.34 13.9053 164.252 14.3271 164.076 14.7256C163.9 15.1123 163.648 15.4521 163.32 15.7451C162.992 16.0381 162.594 16.2666 162.125 16.4307C161.656 16.5947 161.135 16.6768 160.56 16.6768C159.998 16.6768 159.488 16.5947 159.031 16.4307C158.574 16.2549 158.182 16.0205 157.853 15.7275C157.537 15.4346 157.285 15.0947 157.098 14.708C156.922 14.3213 156.834 13.9053 156.834 13.46ZM171.846 13.2666L176.451 13.2314V18.2236H181.303V23.585H176.433V29.2451C176.433 29.7021 176.48 30.0771 176.574 30.3701C176.68 30.6631 176.826 30.8975 177.014 31.0732C177.201 31.2373 177.418 31.3545 177.664 31.4248C177.922 31.4834 178.203 31.5127 178.508 31.5127H181.514L181.461 36.6279H177.892C177.178 36.6279 176.486 36.5986 175.818 36.54C175.15 36.4697 174.523 36.3408 173.937 36.1533C173.351 35.9658 172.818 35.7021 172.338 35.3623C171.857 35.0225 171.441 34.583 171.09 34.0439C170.75 33.5049 170.48 32.8486 170.281 32.0752C170.094 31.3018 170 30.3818 170 29.3154V23.585H167.223V18.8389L169.842 17.5732L171.846 13.2666ZM204.242 18.2236L193.59 42.8682H186.629L190.285 35.2041L183.043 18.2412H190.162L193.291 26.6436L193.66 27.9268L197.299 18.2588L204.242 18.2236Z" fill="black"/>
<defs>
<linearGradient id="paint0_linear_70_501" x1="75.3024" y1="-1.26926e-06" x2="0.500005" y2="54.5435" gradientUnits="userSpaceOnUse">
<stop stop-color="#2D62F6"/>
<stop offset="1" stop-color="#F62DE2"/>
</linearGradient>
</defs>
</svg>
